<?xml version="1.0" encoding="UTF-8" standalone="no"?>
<!-- Created with Inkscape (http://www.inkscape.org/) -->

<svg
   xmlns:dc="http://purl.org/dc/elements/1.1/"
   xmlns:cc="http://creativecommons.org/ns#"
   xmlns:rdf="http://www.w3.org/1999/02/22-rdf-syntax-ns#"
   xmlns:svg="http://www.w3.org/2000/svg"
   xmlns="http://www.w3.org/2000/svg"
   xmlns:sodipodi="http://sodipodi.sourceforge.net/DTD/sodipodi-0.dtd"
   xmlns:inkscape="http://www.inkscape.org/namespaces/inkscape"
   width="89.028206mm"
   height="89.029411mm"
   viewBox="0 0 315.45427 315.45854"
   id="svg2"
   version="1.1"
   inkscape:version="0.91 r13725"
   sodipodi:docname="tree.svg">
  <defs
     id="defs4">
    <clipPath
       id="clipPath4160"
       clipPathUnits="userSpaceOnUse">
      <path
         style="clip-rule:evenodd"
         inkscape:connector-curvature="0"
         id="path4162"
         d="m 283,241 12634,0 0,9718 -12634,0 0,-9718 z" />
    </clipPath>
    <clipPath
       id="clipPath4170"
       clipPathUnits="userSpaceOnUse">
      <path
         style="clip-rule:evenodd"
         inkscape:connector-curvature="0"
         id="path4172"
         d="m 283,241 12634,0 0,9718 -12634,0 0,-9718 z" />
    </clipPath>
    <clipPath
       id="clipPath4176"
       clipPathUnits="userSpaceOnUse">
      <path
         style="clip-rule:evenodd"
         inkscape:connector-curvature="0"
         id="path4178"
         d="m 4496,2808 4207,0 0,4584 -4207,0 0,-4584 z" />
    </clipPath>
  </defs>
  <sodipodi:namedview
     id="base"
     pagecolor="#ffffff"
     bordercolor="#666666"
     borderopacity="1.0"
     inkscape:pageopacity="0.0"
     inkscape:pageshadow="2"
     inkscape:zoom="1.979899"
     inkscape:cx="239.55524"
     inkscape:cy="157.41972"
     inkscape:document-units="mm"
     inkscape:current-layer="layer1"
     showgrid="false"
     fit-margin-top="0"
     fit-margin-left="0"
     fit-margin-right="0"
     fit-margin-bottom="0"
     inkscape:window-width="1920"
     inkscape:window-height="1017"
     inkscape:window-x="1912"
     inkscape:window-y="-8"
     inkscape:window-maximized="1" />
  <metadata
     id="metadata7">
    <rdf:RDF>
      <cc:Work
         rdf:about="">
        <dc:format>image/svg+xml</dc:format>
        <dc:type
           rdf:resource="http://purl.org/dc/dcmitype/StillImage" />
        <dc:title></dc:title>
      </cc:Work>
    </rdf:RDF>
  </metadata>
  <g
     inkscape:label="Layer 1"
     inkscape:groupmode="layer"
     id="layer1"
     transform="translate(-184.41572,-297.49007)">
    <path
       style="fill:#000000"
       d="m 366.83438,567.07671 c -3.12585,-1.14385 -14.29679,-3.92102 -17.93792,-4.45952 -2.36532,-0.34978 -2.47703,-0.94942 -0.31047,-1.66695 4.78079,-1.58337 15.46865,1.0852 20.52027,5.12355 1.53112,1.22396 2.10021,2.22238 1.23641,2.16889 -0.21315,-0.0132 -1.79189,-0.53789 -3.50829,-1.16597 z"
       id="path7365" />
    <path
       style="fill:#000000"
       d="m 362.46184,560.9592 c -3.26863,-1.303 -9.43112,-3.64959 -13.69457,-5.21461 -4.26345,-1.56504 -9.61206,-3.84325 -11.88589,-5.06271 -8.3511,-4.47877 -18.00966,-7.94542 -22.13706,-7.94542 -2.1427,0 -3.2001,0.53983 -8.09443,4.1323 -1.84741,1.35609 -4.48231,3.05024 -5.85522,3.76483 l -2.49611,1.29921 5.08007,1.85597 c 6.97487,2.54823 17.23952,7.58858 15.47962,7.60116 -0.24902,0.002 -3.97081,-1.07895 -8.27058,-2.40163 -4.40577,-1.35525 -9.68186,-2.61894 -12.08887,-2.8954 -7.2255,-0.8299 -21.74743,0.11043 -36.02423,2.33267 -6.81245,1.06038 -12.47519,1.84341 -12.58405,1.74008 -0.28659,-0.27234 2.85845,-1.51008 10.67417,-4.20079 4.05406,-1.39574 9.25909,-3.6732 12.66103,-5.5399 3.17714,-1.74338 8.21848,-4.32061 11.20281,-5.72712 2.98444,-1.40654 6.18203,-3.09729 7.10568,-3.75723 1.81313,-1.29533 2.31288,-2.86596 0.77526,-2.43631 -6.04701,1.68969 -15.21861,2.93042 -19.76683,2.67402 -2.76569,-0.15591 -2.84919,-0.20323 -3.10049,-1.75718 l -0.2585,-1.59695 -3.08793,1.77156 c -3.0203,1.73271 -3.14481,1.75883 -5.68456,1.19104 -2.4342,-0.5442 -2.9681,-0.46801 -8.53946,1.21876 -3.26864,0.98958 -8.26852,2.20186 -11.11074,2.69395 -6.64944,1.15126 -18.72016,2.26342 -19.23703,1.77243 -0.59251,-0.56293 1.19676,-1.62585 3.37326,-2.00381 2.61902,-0.4548 9.7536,-3.92393 16.62201,-8.08219 10.36335,-6.2743 12.0513,-6.89277 26.8893,-9.85296 17.24055,-3.43949 17.9089,-3.65696 19.98478,-6.50272 0.78005,-1.06934 2.7642,-2.81266 4.40931,-3.87406 3.53034,-2.27762 6.84649,-5.43828 7.59469,-7.2385 0.29379,-0.7069 1.23731,-4.21963 2.09664,-7.80609 1.86672,-7.79027 2.34739,-8.75616 5.69005,-11.43393 4.06572,-3.25708 5.93016,-8.27508 4.69443,-12.63495 -1.02907,-3.63077 -2.24652,-4.47493 -7.51792,-5.21264 l -4.64862,-0.65054 -4.47568,-4.48481 c -3.73675,-3.74441 -4.91741,-5.34857 -7.15194,-9.7166 -1.47206,-2.87746 -3.41245,-6.10194 -4.312,-7.16548 -2.89363,-3.4211 -11.17653,-8.70608 -13.64455,-8.70608 -0.51288,0 -2.5555,1.12698 -4.53896,2.50437 -6.1489,4.27001 -13.48908,7.36648 -20.40159,8.60639 -2.13173,0.38238 -8.65552,0.83221 -14.49749,0.99962 -8.79065,0.25191 -11.55131,0.15669 -16.01455,-0.55233 -11.18075,-1.7762 -19.81355,-4.94823 -24.28785,-8.92448 -3.87097,-3.43987 -4.87126,-5.50609 -4.86567,-10.04927 0,-3.30624 0.22138,-4.14896 1.89859,-7.36449 3.01494,-5.77995 9.56706,-11.98069 17.46159,-16.52498 3.32472,-1.91381 7.07757,-3.37254 7.54179,-2.93149 0.1325,0.12586 -1.39244,1.15067 -3.38869,2.27736 -7.01177,3.95759 -16.82808,12.94457 -19.20174,17.5794 -1.71753,3.35398 -1.95136,8.16197 -0.52579,10.81656 1.29615,2.41382 2.84177,3.62162 7.11253,5.5581 5.39522,2.4463 10.22318,3.34836 20.66489,3.86114 9.87639,0.48502 25.43116,0.008 29.75663,-0.91337 7.25338,-1.54433 17.46651,-5.46238 17.46651,-6.70068 0,-1.04662 -3.25733,-1.33764 -7.92537,-0.7081 -4.01854,0.54193 -4.87263,0.48751 -11.76915,-0.75001 -6.7976,-1.21974 -7.79367,-1.28651 -11.59735,-0.77743 -2.28856,0.30631 -4.87629,0.55693 -5.75058,0.55693 -1.92806,0 -5.03324,-1.16942 -7.16964,-2.69999 -1.61096,-1.15414 -3.76691,-4.90535 -3.15395,-5.48766 0.18653,-0.17719 1.56001,0.4629 3.05228,1.42245 3.49024,2.24418 5.9064,2.95149 10.00593,2.92903 3.88135,-0.0212 5.92147,-0.56731 10.66525,-2.85465 1.91857,-0.92502 3.4883,-1.50104 3.4883,-1.28001 0,0.22104 -1.0364,1.36823 -2.30308,2.5493 -1.26679,1.18109 -2.19615,2.31193 -2.06535,2.51299 0.44698,0.68707 7.53288,1.53802 9.94538,1.19435 3.96897,-0.56547 7.2472,-2.54465 13.11384,-7.91735 3.06143,-2.80359 5.80576,-5.09744 6.09864,-5.09744 0.88561,0 0.59913,3.23999 -0.52625,5.95237 -1.22327,2.94866 -1.44887,2.67503 3.9933,4.84306 6.43344,2.56299 6.06642,2.85982 6.36753,-5.14932 0.22366,-5.95023 0.3484,-6.72379 0.92821,-5.75878 1.05296,1.75235 2.68916,8.38365 2.68916,10.89861 0,3.46307 -0.55571,3.85651 -5.98109,4.23484 l -4.68918,0.32699 4.13083,2.01215 c 5.80221,2.82632 8.79648,5.65983 15.02008,14.2137 2.98444,4.102 6.87779,8.97821 8.65186,10.83604 l 3.22546,3.37789 3.73618,-0.30006 c 3.16571,-0.25422 5.91895,-0.99858 11.17596,-3.02149 0.67451,-0.25957 0.90434,-0.1083 0.90434,0.59522 0,0.54532 -0.98099,1.64151 -2.32557,2.59859 -3.009,2.14198 -3.0925,3.17283 -0.22743,2.80774 1.31294,-0.16729 2.98855,-0.92645 4.47751,-2.02851 4.7584,-3.52217 5.06876,-1.75816 0.5652,3.21313 -2.87226,3.17053 -3.40707,4.12376 -5.29698,9.44067 l -2.10214,5.91405 -3.30542,2.23239 c -5.16482,3.48808 -5.38665,3.91791 -5.78497,11.20544 -0.46182,8.44951 -2.21248,12.58356 -6.90771,16.31168 -0.85031,0.67508 -3.21552,2.66348 -5.25621,4.41868 -2.04068,1.75519 -4.97588,3.91575 -6.52287,4.80119 -2.54798,1.45851 -3.3911,1.65518 -8.96383,2.09093 -7.7795,0.60829 -15.43735,2.05131 -20.85554,3.92994 -4.93693,1.71176 -17.38642,7.33892 -18.88635,8.53661 -0.98716,0.78827 -0.90046,0.81673 1.93616,0.63509 2.38167,-0.15252 4.36386,-0.84091 10.0113,-3.47693 l 7.04148,-3.28677 1.77498,0.99494 c 2.41798,1.35546 3.22147,1.26959 7.10727,-0.75969 4.03695,-2.10812 5.49426,-2.07054 6.16432,0.15899 l 0.47965,1.59564 3.93024,-0.009 c 4.1964,-0.01 12.93405,-1.07836 16.32023,-1.99624 2.92001,-0.79148 7.97883,-5.80083 9.5337,-9.44035 1.19654,-2.801 2.30135,-3.54747 2.8444,-1.92196 0.64664,1.93567 -0.85409,4.92079 -4.62236,9.19435 -1.19048,1.35015 -3.57888,4.46843 -5.3075,6.92953 l -3.14286,4.47469 -5.5893,2.31622 c -3.0741,1.27393 -5.81021,2.51911 -6.08024,2.76706 -0.77299,0.7098 10.94499,0.52452 14.30238,-0.22613 3.49538,-0.78148 5.21646,-1.94267 11.76892,-7.94003 l 4.90952,-4.49343 3.51971,0.40273 c 8.70783,0.99635 12.6639,2.53667 22.7034,8.83977 7.27874,4.56983 11.48941,6.69658 15.02019,7.58657 2.02367,0.51008 2.45545,0.50907 2.32547,-0.006 -0.0879,-0.34749 -3.87953,-4.43235 -8.42604,-9.07753 -4.5465,-4.64518 -8.41381,-8.70776 -8.59406,-9.02797 -0.54259,-0.96446 0.50008,-14.63833 1.31739,-17.27507 0.41841,-1.35015 1.70188,-4.99557 2.85181,-8.10092 1.15005,-3.10536 2.09243,-6.48768 2.09415,-7.51622 0,-1.12105 0.2103,-1.74856 0.51997,-1.56666 0.68445,0.40188 0.65521,5.43633 -0.0663,11.46668 -0.32087,2.68061 -0.42047,6.11158 -0.2216,7.62437 0.96397,7.32965 8.25424,11.9101 29.22765,18.3634 12.79104,3.93565 13.97295,3.88008 7.88095,-0.37055 -4.39493,-3.06644 -8.17657,-4.80321 -15.40881,-7.07678 -6.93821,-2.18115 -14.03017,-5.50986 -15.29136,-7.17724 -1.65117,-2.18294 -2.57642,-16.44099 -1.40821,-21.70107 0.63705,-2.86836 1.74209,-5.13917 6.76105,-13.89394 1.85768,-3.24038 3.54906,-6.41556 3.75867,-7.05595 0.20961,-0.64039 0.096,-3.623 -0.25279,-6.62802 -0.47301,-4.07761 -0.48764,-5.96193 -0.0582,-7.42757 0.60667,-2.06867 3.25299,-5.63821 7.5603,-10.19773 l 2.58555,-2.7369 5.42446,-0.54371 c 8.94943,-0.89701 10.44399,-1.29811 12.50101,-3.35494 1.00304,-1.00288 2.76512,-3.05738 3.91597,-4.56558 2.63901,-3.45878 4.56798,-4.99886 8.85381,-7.0689 1.87483,-0.90551 3.87382,-1.9888 4.44234,-2.40735 1.02691,-0.75607 1.02646,-0.76103 -0.0742,-0.77656 -1.8216,-0.0256 -7.95199,1.9471 -10.2161,3.28757 -1.16148,0.68766 -3.58379,2.43509 -5.383,3.88321 -1.7991,1.44809 -3.51766,2.63292 -3.81888,2.63292 -1.10949,0 0.0526,-5.32048 2.31724,-10.60225 2.95267,-6.88903 3.29856,-8.18799 2.1227,-7.97142 -0.52705,0.097 -1.78436,1.9413 -3.12334,4.58114 -4.75531,9.37579 -6.1561,11.75899 -7.40426,12.59736 -0.71061,0.47728 -3.50122,1.2057 -6.20133,1.61869 -2.70024,0.413 -6.18843,1.08713 -7.75164,1.49807 -1.56332,0.41093 -4.6388,0.88681 -6.83449,1.05751 -3.39646,0.26404 -4.04013,0.19179 -4.31314,-0.484 -0.17637,-0.43691 0.1806,-2.84429 0.79354,-5.34972 0.61272,-2.50544 1.246,-5.9987 1.40706,-7.76278 0.2593,-2.83987 0.12954,-3.51508 -1.13279,-5.89161 -1.3415,-2.52551 -5.44777,-7.9154 -10.93094,-14.34798 -1.32517,-1.55455 -2.2752,-2.95382 -2.1114,-3.10944 0.1638,-0.15564 1.83416,0.59738 3.71196,1.67335 5.21131,2.98613 12.64596,5.90778 17.69976,6.95562 9.78032,2.02784 22.49722,2.13256 30.15118,0.24828 2.86381,-0.70505 9.66233,-3.03427 10.28875,-3.52504 0.12622,-0.099 -0.68777,-0.88313 -1.8088,-1.74265 -3.10906,-2.38367 -10.0748,-8.84693 -10.67553,-9.90547 -0.52534,-0.9255 -0.50968,-0.9255 1.03754,0 0.8639,0.51679 3.66101,2.29671 6.2156,3.9554 5.08292,3.30021 9.02276,4.91512 13.78219,5.64914 3.48659,0.53772 6.46737,0.27038 12.23486,-1.09734 2.17913,-0.51678 4.21388,-0.93957 4.52183,-0.93957 1.32916,0 0.37239,2.18803 -1.89482,4.33353 -4.99839,4.72998 -9.03475,5.18551 -17.95802,2.02661 l -3.1006,-1.09767 -4.39264,2.62617 c -2.41593,1.44439 -4.50882,2.7104 -4.65103,2.81339 -1.08813,0.78854 9.19136,5.96204 14.21146,7.15233 2.8429,0.6741 13.72975,1.91448 14.05884,1.6018 0.0777,-0.0738 -0.908,-1.30201 -2.19043,-2.72938 -4.05692,-4.51532 -4.42497,-6.23008 -0.7426,-3.4593 2.76672,2.08184 5.2289,2.88626 8.91585,2.91284 3.69825,0.0267 5.49333,-0.67234 9.28228,-3.61439 l 2.96845,-2.30496 2.35389,1.70752 c 5.01942,3.64117 11.18442,3.26294 17.1605,-1.05279 2.5354,-1.83101 2.01384,-0.38527 -0.83867,2.32478 -1.98368,1.8845 -3.25699,2.6092 -5.99743,3.41338 -5.53663,1.62467 -9.3883,1.20521 -12.27324,-1.33668 l -1.40969,-1.24208 -2.0649,2.22875 c -1.13577,1.2258 -2.90208,2.60611 -3.92522,3.0674 -1.02314,0.46125 -5.38962,1.38906 -9.70321,2.0618 -4.3136,0.67274 -10.24398,1.97972 -13.17872,2.90442 -5.71735,1.80142 -15.63349,6.37742 -17.60918,8.12607 -1.15177,1.01938 -1.16205,1.08891 -0.24,1.6075 0.62587,0.35203 4.67754,0.52721 11.55761,0.49974 8.69652,-0.0347 11.56582,-0.23171 16.02002,-1.09969 6.99168,-1.36238 10.93586,-2.5477 10.70134,-3.21596 -0.1028,-0.29191 -1.19722,-1.09251 -2.43293,-1.7791 -3.3342,-1.85262 -3.17029,-2.34307 0.63407,-1.89835 15.73549,1.83936 21.52194,1.77642 29.07779,-0.31629 12.65773,-3.50582 21.55633,-9.48156 25.5253,-17.14128 3.96634,-7.65423 3.07558,-12.33521 -3.42057,-17.97581 -3.60378,-3.12914 -14.4374,-8.24629 -24.16906,-11.41599 -6.65162,-2.16652 -25.62044,-6.84638 -30.36697,-7.49194 -2.62119,-0.35649 -3.47595,-0.91203 -2.14805,-1.39613 1.08322,-0.39492 11.31064,0.48002 19.44116,1.66317 20.92087,3.04439 38.35836,10.26717 45.23672,18.73762 2.71223,3.33995 3.68306,5.52373 4.08663,9.19204 1.36754,12.42965 -12.53163,26.04206 -31.76615,31.11101 -3.3366,0.87931 -5.48477,1.05433 -13.52689,1.10214 -9.30182,0.0552 -9.64428,0.0937 -12.66104,1.42011 -5.00285,2.19961 -8.97753,3.52484 -14.21135,4.73825 -6.72368,1.55885 -18.49387,1.61365 -26.09723,0.12152 l -5.16768,-1.01416 -1.70862,1.66871 c -0.93976,0.91781 -2.60874,2.10497 -3.70887,2.63818 -2.14635,1.04031 -8.14744,2.6712 -11.82535,3.21373 -2.6501,0.3909 -4.69272,1.99433 -9.18954,7.21348 l -3.07559,3.56955 1.15165,5.15513 c 2.04856,9.17128 1.8409,10.11564 -4.42736,20.12771 -1.77442,2.83429 -3.81442,6.4797 -4.53338,8.10092 -1.50723,3.39899 -2.15011,9.11973 -1.72004,15.30605 0.22606,3.25257 0.49769,4.23312 1.43539,5.18051 1.70817,1.72589 7.00263,4.07206 17.12404,7.58811 4.95613,1.72168 10.58849,3.91789 12.51655,4.88045 3.47219,1.73345 11.47603,7.72871 14.90973,11.1682 1.74232,1.74527 1.75398,1.78387 0.53424,1.78387 -1.78926,0 -29.04511,-6.81924 -40.13963,-10.04268 -8.57727,-2.49213 -15.66181,-3.85866 -15.66181,-3.02104 0,0.18272 1.54733,1.7055 3.43872,3.38395 1.89116,1.67847 6.07031,5.81341 9.28686,9.18881 3.21643,3.37539 7.52717,7.86826 9.57928,9.98417 2.98056,3.07317 3.62583,4.00558 3.20798,4.63494 -0.28762,0.43334 -0.73894,0.84977 -1.00292,0.92547 -0.26387,0.0756 -3.15418,-0.9285 -6.42281,-2.23151 z"
       id="path7363" />
    <path
       style="fill:#000000"
       d="m 369.30913,443.25486 c 1.19916,-0.33229 1.14046,-0.78892 -0.25838,-2.01117 -1.25662,-1.09803 -4.55747,-3.0781 -5.13604,-3.08108 -0.51369,-0.002 -1.1111,4.25749 -0.72946,5.20215 0.26227,0.64925 0.77698,0.7364 2.77083,0.46905 1.34675,-0.1806 2.8557,-0.44113 3.35305,-0.57895 z"
       id="path7361" />
    <path
       style="fill:#000000"
       d="m 379.70104,437.54706 c 0.69942,-0.8776 2.45784,-3.41834 3.90774,-5.6461 l 2.63604,-4.05046 -10.59957,0 -10.59956,0 0,1.87201 c 0,1.40719 0.35296,2.18712 1.42111,3.14116 1.60764,1.43567 10.34027,6.27904 11.32115,6.27904 0.35272,0 1.21355,-0.71804 1.91309,-1.59565 z"
       id="path7359" />
    <path
       style="fill:#000000"
       d="m 392.38949,437.47636 c 0.35468,-0.40598 1.49833,-1.00003 2.54146,-1.32009 4.38418,-1.34529 7.3227,-2.51177 7.3227,-2.90685 0,-0.56098 -7.25108,-5.39881 -8.09192,-5.39881 -0.36129,0 -0.89394,0.42078 -1.18362,0.93505 -0.96832,1.71879 -3.58345,9.56193 -3.32221,9.9635 0.30693,0.47181 1.82844,-0.23663 2.73359,-1.2728 z"
       id="path7357" />
    <path
       style="fill:#000000"
       d="m 445.14607,558.8732 c -2.7497,-1.05134 -9.8066,-2.37895 -15.19839,-2.85925 -3.6714,-0.32704 -5.93883,-0.76085 -6.50038,-1.24371 -0.57902,-0.49777 -1.95283,-0.74319 -4.18074,-0.74676 -1.82514,-0.003 -4.46907,-0.33693 -5.87544,-0.74225 -2.40895,-0.69421 -4.93614,-2.36626 -4.93614,-3.26574 0,-0.59378 2.42324,-0.46554 5.83397,0.30875 3.13362,0.71136 4.55828,0.53586 7.53974,-0.9289 l 1.68589,-0.82827 2.24253,1.96391 c 1.46783,1.28545 2.92801,2.07216 4.2269,2.27733 7.43305,1.17413 12.32053,2.91211 15.69814,5.58237 1.42167,1.12384 1.33807,1.19908 -0.53608,0.48252 z"
       id="path7355" />
    <path
       style="fill:#000000"
       d="m 197.37759,553.60211 c 0.27004,-0.23465 3.62503,-1.69146 7.45555,-3.23734 6.60661,-2.66624 7.03166,-2.77219 8.2684,-2.06177 1.85222,1.06399 1.92292,2.18073 0.17866,2.82491 -2.16931,0.80122 -12.83959,2.90089 -14.74182,2.90089 -0.96729,0 -1.4483,-0.1768 -1.16079,-0.42669 z"
       id="path7353" />
    <path
       style="fill:#000000"
       d="m 336.46742,541.79809 c -2.32237,-2.44221 -2.73439,-3.19471 -4.56375,-8.3364 -1.67756,-4.71494 -2.41033,-9.08217 -1.60354,-9.55593 0.81879,-0.48071 1.41471,0.54796 3.44969,5.95486 1.04416,2.77436 2.81538,6.93888 3.93618,9.2545 1.12069,2.3156 2.0376,4.29866 2.0376,4.4068 0,0.79202 -1.73946,-0.12891 -3.25618,-1.72383 z"
       id="path7351" />
    <path
       style="fill:#000000"
       d="m 304.58282,518.87718 c 0,-0.50404 3.00191,-10.69932 4.19114,-14.23435 1.2925,-3.84234 1.80309,-7.81729 1.05993,-8.25362 -0.33424,-0.19625 -0.72855,0.28506 -0.97562,1.19098 -0.54294,1.99039 -1.39256,1.90996 -1.58744,-0.15027 -0.11308,-1.19383 0.19236,-1.98647 1.13817,-2.95606 2.45316,-2.51484 4.44234,-1.3341 4.44234,2.63695 0,2.15014 -4.57245,16.54965 -6.25354,19.69403 -0.91325,1.70801 -2.01498,2.8411 -2.01498,2.07234 z"
       id="path7349" />
    <path
       style="fill:#000000"
       d="m 342.48004,494.81177 c -1.6675,-2.41779 -0.67451,-7.85367 2.05257,-11.23579 1.31625,-1.63255 1.397,-0.65433 0.285,3.45368 -0.67201,2.48254 -0.97769,4.85106 -0.83742,6.48761 0.24525,2.85902 -0.17248,3.21953 -1.50015,1.2945 z"
       id="path7347" />
    <path
       style="fill:#000000"
       d="m 348.42333,491.48542 c -1.8505,-0.87146 -1.81874,-3.13749 0.0971,-6.95232 1.74861,-3.48101 5.46924,-7.58592 6.87573,-7.58592 1.37302,0 2.93087,1.8267 2.93087,3.43676 0,1.82443 -0.40631,1.85045 -1.91652,0.12274 l -1.18021,-1.35015 -1.11075,1.22741 c -1.5832,1.74942 -3.69402,6.28509 -3.33672,7.16977 0.43933,1.08782 1.19472,0.43987 2.6349,-2.26013 1.45402,-2.726 2.19558,-3.34774 2.65032,-2.22194 0.74808,1.85226 -3.18537,8.17353 -5.43372,8.73211 -0.55285,0.13738 -1.54812,-0.007 -2.21157,-0.31833 z"
       id="path7345" />
    <path
       style="fill:#000000"
       d="m 345.92504,469.82316 c 0,-0.42024 0.61238,-1.91232 1.36092,-3.31576 1.75728,-3.29459 2.08467,-7.27272 1.02908,-12.50649 -0.86379,-4.28377 -0.71289,-6.03946 1.0148,-11.79951 0.88024,-2.93466 1.46384,-3.92017 1.90933,-3.2241 0.14449,0.22605 -0.0697,3.14489 -0.47645,6.48632 -0.71667,5.88993 -0.70445,6.19706 0.40357,10.0648 0.6287,2.19422 1.23686,4.98761 1.35166,6.20758 0.18779,1.99595 0,2.46927 -1.89311,4.72606 -2.51199,2.99731 -4.6998,4.56197 -4.6998,3.3611 z"
       id="path7343" />
    <path
       style="fill:#000000"
       d="m 260.57861,459.081 c -3.00248,-0.76711 -4.90871,-1.93069 -5.35592,-3.26927 -0.52271,-1.56467 0.0194,-1.67394 2.13721,-0.43056 2.97816,1.74868 5.74533,1.47576 12.22801,-1.20598 6.92838,-2.86612 8.15383,-2.94818 6.29087,-0.4212 -1.02656,1.39244 -4.56764,3.66663 -7.21189,4.63179 -3.20297,1.16909 -5.47062,1.364 -8.08828,0.69522 z"
       id="path7341" />
    <path
       style="fill:#000000"
       d="m 304.58282,455.02672 c -5.48215,-1.79646 -11.89811,-8.43719 -16.00462,-16.56555 -2.60496,-5.15597 -3.5976,-8.78825 -3.97342,-14.5383 -0.3597,-5.50377 0.23314,-5.50377 1.80206,0 1.15302,4.04503 4.09416,10.87554 6.06118,14.07654 1.56583,2.54834 3.65792,3.31029 7.84506,2.85725 4.41515,-0.47769 7.93007,-2.27833 11.14889,-5.71142 l 2.77118,-2.95562 3.18182,3.29891 c 3.9797,4.1262 5.96979,7.84647 6.00451,11.22477 0.0377,3.70608 -2.56008,6.53072 -6.46496,7.02833 -2.94103,0.37477 -3.08861,-0.67354 -0.61969,-4.40289 1.12036,-1.6923 2.19809,-3.69807 2.39514,-4.45725 0.3629,-1.39819 -0.97963,-7.00797 -1.79121,-7.48444 -0.23064,-0.13544 -1.22431,0.94917 -2.20803,2.41026 -2.87169,4.26495 -4.662,5.27299 -10.50544,5.9149 l -4.97429,0.54645 1.86694,1.55735 c 1.02679,0.85652 3.56368,2.48762 5.63738,3.62464 4.04527,2.21801 5.57925,3.30954 5.57925,3.97013 0,0.6884 -5.26524,0.42074 -7.75175,-0.39406 z"
       id="path7339" />
    <path
       style="fill:#000000"
       d="m 323.94563,433.93821 c -0.83993,-0.41404 -2.22643,-1.25586 -3.08097,-1.87074 -3.06474,-2.20528 -4.0102,-2.42709 -11.8892,-2.78929 -5.00331,-0.23 -8.57613,-0.64006 -10.0772,-1.15652 -2.61788,-0.90082 -6.43973,-3.15394 -6.02234,-3.55042 0.15055,-0.14302 2.38725,0.12805 4.97064,0.60234 5.36678,0.98533 10.25859,0.59908 16.10307,-1.27144 6.62044,-2.11886 11.97419,-7.03893 14.48173,-13.30831 0.9634,-2.409 0.96626,-2.54011 0.0742,-3.47681 -0.50956,-0.53536 -1.79212,-1.39312 -2.84998,-1.9061 -2.96822,-1.43922 -5.51185,-3.79637 -6.89493,-6.38952 -2.1171,-3.96929 -1.5503,-4.33473 1.71263,-1.10406 5.02261,4.97277 9.90482,6.47443 15.24498,4.68896 4.18122,-1.398 3.83282,-0.12225 -0.76749,2.81006 -3.01277,1.92043 -3.49595,2.74213 -3.49595,5.94469 0,1.99722 0.55332,3.66575 2.65615,8.01047 1.46075,3.0183 2.82121,5.66454 3.02305,5.88054 0.20184,0.216 1.26553,-1.22008 2.36371,-3.19128 2.36555,-4.24594 2.84474,-3.56032 1.28552,1.83925 -1.2725,4.40625 -2.84416,7.51498 -4.01523,7.94194 -1.1087,0.4042 -3.37189,-2.17079 -4.55838,-5.18632 -1.24657,-3.16806 -1.633,-3.5147 -3.91871,-3.5147 l -2.0039,0 -0.0115,5.27788 c -0.0114,6.25857 -0.21543,6.76355 -2.3339,5.71938 z"
       id="path7337" />
    <path
       style="fill:#000000"
       d="m 324.00273,427.09308 c -0.17534,-0.66347 -0.64938,-1.20634 -1.05352,-1.20634 -1.33978,0 -1.43745,1.03786 -0.21429,2.27489 1.29169,1.30624 1.78526,0.89023 1.26781,-1.06855 z"
       id="path7335" />
    <path
       style="fill:#000000"
       d="m 270.2173,417.4953 c -7.66025,-0.60218 -13.60297,-2.73282 -20.84434,-7.47325 -3.7556,-2.45854 -3.81054,-2.47605 -5.94294,-1.89094 -5.4327,1.49073 -7.96879,1.73252 -11.63813,1.10952 -7.27348,-1.2349 -12.59296,-4.77863 -14.52057,-9.67307 -3.31832,-8.42609 1.40021,-16.89362 12.17489,-21.84841 2.37126,-1.0904 4.83871,-1.91118 5.4833,-1.82396 0.93781,0.12691 0.39865,0.59402 -2.69956,2.33835 -6.54732,3.68629 -11.84214,9.68665 -12.6736,14.36222 -0.44675,2.51247 1.11463,5.5218 4.36283,8.40836 2.82714,2.51229 4.72846,3.15233 10.64057,3.58178 3.24716,0.23586 5.11319,0.0777 8.69687,-0.7371 2.50935,-0.57057 4.68084,-1.03741 4.82556,-1.03741 0.14461,0 0.1108,0.85855 -0.0765,1.90785 l -0.33926,1.90786 3.13008,1.80645 c 7.06398,4.07681 13.45299,5.49853 22.66137,5.04273 5.99902,-0.29696 8.66499,-1.00662 17.85841,-4.75375 2.79345,-1.13861 5.19829,-1.95684 5.34405,-1.81831 0.56155,0.53349 -0.5507,2.52263 -2.5803,4.61449 -4.7496,4.89538 -12.6013,6.86189 -23.86293,5.97659 z"
       id="path7333" />
    <path
       style="fill:#000000"
       d="m 386.49201,388.60528 c -3.92705,-0.90831 -6.98436,-3.44776 -8.2483,-6.85137 -1.09305,-2.9432 -1.04462,-2.96034 1.03913,-0.36768 3.17977,3.95644 8.23311,5.55649 12.63535,4.00077 1.279,-0.452 2.84873,-0.93993 3.48818,-1.08429 3.06714,-0.69237 -0.58314,3.37646 -3.78735,4.22166 -2.24858,0.59314 -2.86986,0.60295 -5.12701,0.081 z"
       id="path7331" />
    <path
       style="fill:#000000"
       d="m 401.73688,384.95569 c -4.91809,-1.35819 -7.46446,-3.36605 -9.31735,-7.3471 -0.60746,-1.30509 -1.01058,-2.46214 -0.89578,-2.57123 0.11492,-0.10908 1.33693,1.04317 2.71589,2.56054 5.64572,6.21285 12.2769,6.0594 21.93877,-0.50765 5.08451,-3.45591 6.26689,-2.78731 2.68469,1.51809 -2.49063,2.99355 -4.82408,4.87697 -7.22092,5.82842 -2.6124,1.037 -7.16554,1.27556 -9.9053,0.51893 z"
       id="path7329" />
    <path
       style="fill:#000000"
       d="m 451.3474,383.48009 c 0,-0.10104 0.63214,-1.25807 1.40466,-2.57127 1.23755,-2.10365 1.40501,-2.91395 1.40764,-6.81264 0,-5.23231 -0.68937,-7.46121 -3.39201,-10.90895 -2.14715,-2.73925 -7.47371,-7.03275 -11.37643,-9.17005 -5.42264,-2.96967 -17.84814,-6.3933 -28.8692,-7.95434 -9.07691,-1.28569 -9.69739,-1.70285 -5.52019,-3.71173 7.36634,-3.54275 10.23426,-6.86066 9.17149,-10.61065 -1.12606,-3.97291 -8.07193,-8.52014 -15.92465,-10.42533 -1.20796,-0.29308 -2.19639,-0.77675 -2.19639,-1.07484 0,-0.84681 5.59889,-0.1124 10.19772,1.33765 7.4415,2.34641 12.22035,6.58758 12.90754,11.45559 0.48341,3.42408 -2.69064,8.3569 -6.85939,10.65991 -0.77287,0.42704 0.16974,0.65593 4.6918,1.13936 22.47335,2.4025 38.443,10.22505 43.74274,21.42687 3.46567,7.32528 -0.81662,17.40407 -7.39456,17.40407 -1.09488,0 -1.99077,-0.0825 -1.99077,-0.18365 z"
       id="path7327" />
    <path
       style="fill:#000000"
       d="m 467.64387,383.11798 c 0.23405,-0.37491 1.02348,-1.43774 1.75408,-2.36183 2.02881,-2.56553 1.82651,-5.06489 -0.67108,-8.29747 -1.09991,-1.42347 -1.90077,-2.68223 -1.77968,-2.79724 0.59718,-0.56736 4.26276,0.99273 5.82929,2.48096 3.30667,3.14152 3.36138,7.4186 0.12485,9.75226 -1.94873,1.40504 -5.95277,2.33672 -5.25746,1.22332 z"
       id="path7325" />
    <path
       style="fill:#000000"
       d="m 238.81817,373.31143 c -2.24321,-1.24103 -3.75045,-8.37616 -2.94709,-13.95056 0.70103,-4.86274 3.31513,-9.52432 8.27618,-14.75761 10.24808,-10.81046 17.21154,-15.24422 30.74082,-19.57304 8.84983,-2.83156 25.16091,-4.27227 30.72838,-2.71416 l 2.32558,0.65081 -5.94295,0.63707 c -10.41737,1.1167 -17.19635,2.21279 -21.44621,3.46764 -5.71231,1.68664 -13.93342,5.44191 -18.54675,8.4718 -7.25098,4.76221 -15.22136,13.65475 -19.28479,21.51582 -1.37862,2.66706 -1.4427,3.10722 -1.4259,9.7889 0.0194,7.43358 -0.1108,7.7724 -2.47727,6.46333 z"
       id="path7323" />
    <path
       style="fill:#000000"
       d="m 341.6448,367.42742 c -1.075,-0.24633 -2.66425,-0.79646 -3.53136,-1.22252 -1.12069,-0.55057 -3.25812,-0.80036 -7.38861,-0.86355 l -5.81192,-0.0889 -2.97222,-2.13277 c -3.34837,-2.40255 -5.98864,-5.95485 -5.98864,-8.05711 0,-1.8359 0.57457,-1.44497 3.12906,2.12873 2.86381,4.00644 5.5083,5.60914 9.23488,5.59677 1.58456,-0.006 3.96029,-0.32082 5.27951,-0.70128 2.23349,-0.6441 2.58943,-0.61593 5.16779,0.40901 5.4938,2.18379 9.50663,1.82407 13.7438,-1.23202 2.28217,-1.64613 2.84554,-2.77183 3.53194,-7.05805 l 0.58964,-3.68223 1.09648,2.20934 c 1.36526,2.75047 1.39724,4.43133 0.12931,6.79241 -2.87113,5.34696 -10.70146,9.16422 -16.20966,7.90217 z"
       id="path7321" />
    <path
       style="fill:#000000"
       d="m 312.87692,324.35669 c -2.85285,-2.71043 -3.02636,-9.50685 -0.34108,-13.36192 2.9834,-4.28312 9.03406,-8.04212 16.59403,-10.30911 4.63274,-1.38923 18.69422,-1.89459 27.95252,-1.0046 14.24893,1.36974 30.28037,9.25191 35.95043,17.67563 1.80184,2.67695 1.81702,2.97241 0.15169,2.97241 -1.80182,0 -3.41598,-0.8564 -11.55405,-6.12979 -10.3582,-6.712 -14.56717,-8.52532 -24.77127,-10.67181 -7.1003,-1.49358 -20.36961,-1.49578 -27.66822,-0.005 -8.19895,1.67513 -13.43242,4.63668 -15.37578,8.70105 -1.33521,2.79218 -1.18808,4.35301 0.85431,9.06423 0.98967,2.28269 1.79932,4.21586 1.79932,4.29594 0,0.0801 -0.48296,0.1456 -1.07329,0.1456 -0.59032,0 -1.7237,-0.61785 -2.51861,-1.37302 z"
       id="path7317" />
  </g>
</svg>
