<?xml version="1.0" encoding="UTF-8" standalone="no"?>
<!-- Created with Inkscape (http://www.inkscape.org/) -->

<svg
   xmlns:dc="http://purl.org/dc/elements/1.1/"
   xmlns:cc="http://creativecommons.org/ns#"
   xmlns:rdf="http://www.w3.org/1999/02/22-rdf-syntax-ns#"
   xmlns:svg="http://www.w3.org/2000/svg"
   xmlns="http://www.w3.org/2000/svg"
   xmlns:sodipodi="http://sodipodi.sourceforge.net/DTD/sodipodi-0.dtd"
   xmlns:inkscape="http://www.inkscape.org/namespaces/inkscape"
   width="89.028206mm"
   height="89.029411mm"
   viewBox="0 0 315.45427 315.45854"
   id="svg2"
   version="1.1"
   inkscape:version="0.91 r13725"
   sodipodi:docname="tree2.svg">
  <defs
     id="defs4">
    <clipPath
       id="clipPath4160"
       clipPathUnits="userSpaceOnUse">
      <path
         style="clip-rule:evenodd"
         inkscape:connector-curvature="0"
         id="path4162"
         d="m 283,241 12634,0 0,9718 -12634,0 0,-9718 z" />
    </clipPath>
    <clipPath
       id="clipPath4170"
       clipPathUnits="userSpaceOnUse">
      <path
         style="clip-rule:evenodd"
         inkscape:connector-curvature="0"
         id="path4172"
         d="m 283,241 12634,0 0,9718 -12634,0 0,-9718 z" />
    </clipPath>
    <clipPath
       id="clipPath4176"
       clipPathUnits="userSpaceOnUse">
      <path
         style="clip-rule:evenodd"
         inkscape:connector-curvature="0"
         id="path4178"
         d="m 4496,2808 4207,0 0,4584 -4207,0 0,-4584 z" />
    </clipPath>
    <clipPath
       id="clipPath7391"
       clipPathUnits="userSpaceOnUse">
      <path
         style="clip-rule:evenodd"
         inkscape:connector-curvature="0"
         id="path7393"
         d="m 283,241 12634,0 0,9718 -12634,0 0,-9718 z" />
    </clipPath>
    <clipPath
       id="clipPath7401"
       clipPathUnits="userSpaceOnUse">
      <path
         style="clip-rule:evenodd"
         inkscape:connector-curvature="0"
         id="path7403"
         d="m 283,241 12634,0 0,9718 -12634,0 0,-9718 z" />
    </clipPath>
    <clipPath
       id="clipPath7407"
       clipPathUnits="userSpaceOnUse">
      <path
         style="clip-rule:evenodd"
         inkscape:connector-curvature="0"
         id="path7409"
         d="m 4416,2835 4368,0 0,4530 -4368,0 0,-4530 z" />
    </clipPath>
  </defs>
  <sodipodi:namedview
     id="base"
     pagecolor="#ffffff"
     bordercolor="#666666"
     borderopacity="1.0"
     inkscape:pageopacity="0.0"
     inkscape:pageshadow="2"
     inkscape:zoom="1.979899"
     inkscape:cx="170.63864"
     inkscape:cy="115.76175"
     inkscape:document-units="mm"
     inkscape:current-layer="layer1"
     showgrid="false"
     fit-margin-top="0"
     fit-margin-left="0"
     fit-margin-right="0"
     fit-margin-bottom="0"
     inkscape:window-width="1920"
     inkscape:window-height="1017"
     inkscape:window-x="1912"
     inkscape:window-y="-8"
     inkscape:window-maximized="1" />
  <metadata
     id="metadata7">
    <rdf:RDF>
      <cc:Work
         rdf:about="">
        <dc:format>image/svg+xml</dc:format>
        <dc:type
           rdf:resource="http://purl.org/dc/dcmitype/StillImage" />
        <dc:title></dc:title>
      </cc:Work>
    </rdf:RDF>
  </metadata>
  <g
     inkscape:label="Layer 1"
     inkscape:groupmode="layer"
     id="layer1"
     transform="translate(-184.41572,-297.49007)" />
  <g
     inkscape:groupmode="layer"
     id="layer2"
     inkscape:label="Layer 2"
     style="display:inline">
    <path
       style="fill:#000000"
       d="M 243.75781 86.142578 C 243.35861 86.154138 243.07876 86.183057 242.94336 86.232422 C 241.61546 86.716522 242.47061 87.272416 245.0918 87.628906 C 249.83833 88.274466 268.80736 92.954574 275.45898 95.121094 C 285.19064 98.290794 296.02511 103.40797 299.62891 106.53711 C 306.12501 112.17771 307.01513 116.85749 303.04883 124.51172 C 299.07983 132.17144 290.18117 138.14848 277.52344 141.6543 C 270.88535 143.49282 265.60086 143.76101 253.74805 142.55273 A 17.474283 17.474283 0 0 1 238.90039 150.85352 A 17.474283 17.474283 0 0 1 232.82031 149.73828 C 230.50835 149.88682 227.70839 149.94619 223.52344 149.96289 C 216.64337 149.99036 212.59071 149.81492 211.96484 149.46289 C 211.04279 148.9443 211.05331 148.87485 212.20508 147.85547 C 213.57659 146.64157 218.77073 144.07824 223.73438 142.01367 A 17.474283 17.474283 0 0 1 221.42773 133.37891 A 17.474283 17.474283 0 0 1 221.58398 131.16992 C 217.01368 129.20561 212.44342 126.63297 213.1875 126.09375 C 213.32971 125.99076 215.42196 124.72564 217.83789 123.28125 L 222.23047 120.6543 L 225.33203 121.75195 C 225.4818 121.80497 225.60491 121.83769 225.75195 121.88867 A 17.474283 17.474283 0 0 1 231.25781 117.67773 C 230.30859 117.65763 229.38512 117.57734 228.42773 117.42969 C 223.6683 116.69567 219.7294 115.07951 214.64648 111.7793 C 212.09189 110.12061 209.29359 108.34101 208.42969 107.82422 C 206.88247 106.89872 206.86724 106.89872 207.39258 107.82422 C 207.99331 108.88276 214.9593 115.3468 218.06836 117.73047 C 219.18939 118.58999 220.00317 119.37366 219.87695 119.47266 C 219.25053 119.96343 212.4517 122.293 209.58789 122.99805 C 201.93393 124.88233 189.21782 124.77784 179.4375 122.75 C 174.3837 121.70216 166.94764 118.78105 161.73633 115.79492 C 159.85853 114.71895 158.18919 113.96545 158.02539 114.12109 C 157.86159 114.27671 158.81155 115.67592 160.13672 117.23047 C 165.61989 123.66305 169.72686 129.05262 171.06836 131.57812 C 172.33069 133.95466 172.46047 134.62888 172.20117 137.46875 C 172.04011 139.23283 171.40569 142.72698 170.79297 145.23242 C 170.18003 147.73785 169.82363 150.14512 170 150.58203 C 170.27301 151.25782 170.91604 151.33045 174.3125 151.06641 C 176.50819 150.89571 179.58316 150.41874 181.14648 150.00781 C 182.70969 149.59687 186.1982 148.92277 188.89844 148.50977 C 191.59855 148.09678 194.389 147.36986 195.09961 146.89258 C 196.34777 146.05421 197.7486 143.67071 202.50391 134.29492 C 203.84289 131.65508 205.10186 129.80989 205.62891 129.71289 C 206.80477 129.49632 206.45853 130.79652 203.50586 137.68555 C 201.24122 142.96732 200.07801 148.28711 201.1875 148.28711 C 201.48872 148.28711 203.20871 147.10239 205.00781 145.6543 C 206.80702 144.20618 209.22914 142.45914 210.39062 141.77148 C 212.65473 140.43101 218.78387 138.45878 220.60547 138.48438 C 221.70613 138.4999 221.7066 138.5037 220.67969 139.25977 C 220.11117 139.67832 218.11311 140.76246 216.23828 141.66797 C 211.95245 143.73801 210.02378 145.27755 207.38477 148.73633 C 206.23392 150.24453 204.47179 152.29985 203.46875 153.30273 C 201.41173 155.35956 199.91623 155.75924 190.9668 156.65625 L 185.54297 157.20117 L 182.95703 159.9375 C 178.64972 164.49702 176.00315 168.0661 175.39648 170.13477 C 174.96704 171.60041 174.98207 173.48489 175.45508 177.5625 C 175.80387 180.56752 175.91664 183.55102 175.70703 184.19141 C 175.49742 184.8318 173.8069 188.00571 171.94922 191.24609 C 166.93026 200.00086 165.82455 202.27229 165.1875 205.14062 C 164.01929 210.4007 164.94453 224.65886 166.5957 226.8418 C 166.7487 227.04407 166.99075 227.27142 167.30469 227.51758 A 43.286018 43.286018 0 0 1 182.34375 234.16797 C 189.2658 236.36824 193.00009 238.09774 197.29688 241.0957 C 203.15668 245.18432 202.1732 245.35209 190.71484 241.85938 A 43.286018 43.286018 0 0 1 193.56836 245.64453 C 204.14775 248.35093 214.67186 250.89844 215.76172 250.89844 C 216.98146 250.89844 216.96888 250.8605 215.22656 249.11523 C 211.79286 245.67574 203.7886 239.68072 200.31641 237.94727 C 198.38835 236.98471 192.75691 234.78809 187.80078 233.06641 C 177.67937 229.55036 172.38395 227.20441 170.67578 225.47852 C 169.73808 224.53113 169.46629 223.54943 169.24023 220.29688 C 168.81016 214.11056 169.45371 208.39118 170.96094 204.99219 C 171.6799 203.37097 173.71972 199.72494 175.49414 196.89062 C 181.7624 186.87856 181.97044 185.93495 179.92188 176.76367 L 178.76953 171.60742 L 181.8457 168.03906 C 186.34252 162.81991 188.38506 161.21512 191.03516 160.82422 C 194.71307 160.28169 200.71498 158.65164 202.86133 157.61133 C 203.96146 157.07812 205.63055 155.89047 206.57031 154.97266 L 208.27734 153.30469 L 213.44531 154.31836 C 221.04867 155.81049 232.81929 155.75612 239.54297 154.19727 C 244.77679 152.98386 248.75106 151.65859 253.75391 149.45898 C 256.77067 148.13257 257.1142 148.09426 266.41602 148.03906 C 274.45814 147.99125 276.60481 147.81486 279.94141 146.93555 C 299.17593 141.8666 313.07658 128.25582 311.70898 115.82617 C 311.30548 112.15786 310.33329 109.97276 307.62109 106.63281 C 300.74269 98.162367 283.30564 90.940874 262.38477 87.896484 C 255.27056 86.861228 246.55224 86.061657 243.75781 86.142578 z M 28.6875 109.55273 C 27.612735 109.56264 24.375927 110.88987 21.466797 112.56445 C 13.572267 117.10874 7.0188463 123.30794 4.0039062 129.08789 C 2.3266963 132.30342 2.1054688 133.14691 2.1054688 136.45312 C 2.0998785 140.99631 3.0997331 143.06208 6.9707031 146.50195 C 11.445003 150.4782 20.079016 153.65153 31.259766 155.42773 C 35.723006 156.13675 38.482788 156.23043 47.273438 155.97852 C 53.115408 155.81111 59.639754 155.36285 61.771484 154.98047 C 68.683994 153.74056 76.024928 150.64306 82.173828 146.37305 C 84.157288 144.99566 86.200011 143.86914 86.712891 143.86914 C 89.180911 143.86914 97.463799 149.15312 100.35742 152.57422 C 101.25697 153.63776 103.19591 156.86277 104.66797 159.74023 C 106.9025 164.10826 108.08356 165.71262 111.82031 169.45703 L 116.29688 173.94141 L 120.94531 174.5918 C 126.21671 175.32951 127.43382 176.17392 128.46289 179.80469 C 129.69862 184.16456 127.8333 189.18237 123.76758 192.43945 C 120.42492 195.11722 119.94486 196.08473 118.07812 203.875 C 117.21882 207.46146 116.27621 210.97279 115.98242 211.67969 C 115.23422 213.47991 111.91706 216.64035 108.38672 218.91797 C 106.74161 219.97937 104.75857 221.72363 103.97852 222.79297 C 101.90264 225.63873 101.23274 225.85543 83.992188 229.29492 C 69.154188 232.25511 67.466866 232.87414 57.103516 239.14844 C 50.235106 243.3067 43.101442 246.77567 40.482422 247.23047 C 38.305922 247.60843 36.514912 248.67144 37.107422 249.23438 C 37.624292 249.72536 49.696263 248.61415 56.345703 247.46289 C 59.187923 246.9708 64.186438 245.75716 67.455078 244.76758 C 73.026438 243.08081 73.561894 243.00463 75.996094 243.54883 C 78.535844 244.11662 78.659385 244.09013 81.679688 242.35742 L 84.767578 240.58594 L 85.027344 242.18359 C 85.278644 243.73754 85.361263 243.7855 88.126953 243.94141 C 92.675173 244.19781 101.84752 242.95727 107.89453 241.26758 C 109.43215 240.83793 108.93227 242.40781 107.11914 243.70312 C 106.19549 244.36307 102.99811 246.0544 100.01367 247.46094 C 97.029349 248.86745 91.987687 251.44412 88.810547 253.1875 C 85.408607 255.0542 80.202498 257.33082 76.148438 258.72656 C 68.332718 261.41727 65.188019 262.65539 65.474609 262.92773 C 65.583469 263.03106 71.246144 262.24788 78.058594 261.1875 C 92.335394 258.96526 106.85848 258.02557 114.08398 258.85547 C 114.4994 258.90318 115.09305 259.01527 115.66016 259.11719 A 43.286018 43.286018 0 0 1 116.6582 255.70898 L 113.88281 254.69531 L 116.37891 253.39648 C 116.77288 253.19142 117.2845 252.89385 117.83789 252.55859 A 43.286018 43.286018 0 0 1 123.43164 243.15039 L 122.23438 244.24609 C 115.68191 250.24345 113.96022 251.40407 110.46484 252.18555 C 107.10745 252.9362 95.389119 253.12191 96.162109 252.41211 C 96.432139 252.16416 99.168079 250.92041 102.24219 249.64648 L 107.83203 247.33008 L 110.97461 242.85547 C 112.70323 240.39437 115.09272 237.27593 116.2832 235.92578 C 120.05147 231.65222 121.55094 228.66614 120.9043 226.73047 C 120.36125 225.10496 119.25709 225.85134 118.06055 228.65234 C 116.50568 232.29186 111.44735 237.30227 108.52734 238.09375 C 105.14116 239.01163 96.403431 240.07984 92.207031 240.08984 L 88.277344 240.09766 L 87.796875 238.50195 C 87.126815 236.27242 85.669764 236.23563 81.632812 238.34375 C 77.747013 240.37303 76.943371 240.45898 74.525391 239.10352 L 72.75 238.10938 L 65.708984 241.39453 C 60.061544 244.03055 58.078936 244.72053 55.697266 244.87305 C 52.860646 245.05469 52.774559 245.0246 53.761719 244.23633 C 55.261649 243.03864 67.711506 237.41293 72.648438 235.70117 C 78.066626 233.82254 85.724406 232.37977 93.503906 231.77148 C 99.076632 231.33573 99.918805 231.1382 102.4668 229.67969 C 104.01379 228.79425 106.94955 226.6341 108.99023 224.87891 C 111.03092 223.12371 113.39578 221.13406 114.24609 220.45898 C 118.94132 216.73086 120.69248 212.59795 121.1543 204.14844 C 121.55262 196.86091 121.77463 196.43144 126.93945 192.94336 L 130.24414 190.71094 L 132.3457 184.79688 C 134.23561 179.47996 134.77032 178.526 137.64258 175.35547 C 142.14614 170.38418 141.83652 168.62041 137.07812 172.14258 C 135.58917 173.24464 133.9145 174.00263 132.60156 174.16992 C 129.73649 174.53501 129.81913 173.50526 132.82812 171.36328 C 134.17271 170.4062 135.1543 169.30899 135.1543 168.76367 C 135.1543 168.06015 134.92451 167.91035 134.25 168.16992 C 128.99299 170.19283 126.23993 170.93719 123.07422 171.19141 L 119.33789 171.49023 L 116.11133 168.11328 C 114.33726 166.25545 110.44342 161.37934 107.45898 157.27734 C 103.61866 151.99911 101.00645 148.90533 98.207031 146.64062 A 17.474283 17.474283 0 0 1 81.646484 129.21094 A 17.474283 17.474283 0 0 1 81.667969 128.79102 C 80.964122 129.40984 80.208027 130.08621 79.427734 130.80078 C 73.561094 136.17348 70.283423 138.15328 66.314453 138.71875 C 63.901953 139.06242 56.816121 138.21051 56.369141 137.52344 C 56.238341 137.32238 57.168757 136.19281 58.435547 135.01172 C 59.702227 133.83065 60.738281 132.68198 60.738281 132.46094 C 60.738281 132.23991 59.16857 132.81717 57.25 133.74219 C 52.50622 136.02953 50.465334 136.5745 46.583984 136.5957 C 45.682357 136.60064 44.871619 136.56243 44.103516 136.48828 A 17.474283 17.474283 0 0 1 42.107422 140.19531 C 42.743428 140.3443 43.338922 140.43164 43.849609 140.43164 C 44.723899 140.43164 47.311049 140.18131 49.599609 139.875 C 53.403289 139.36592 54.399666 139.4326 61.197266 140.65234 C 68.093786 141.88986 68.948257 141.94427 72.966797 141.40234 C 77.634837 140.7728 80.892578 141.06471 80.892578 142.11133 C 80.892578 143.34963 70.679161 147.26817 63.425781 148.8125 C 59.100311 149.73387 43.546312 150.20963 33.669922 149.72461 C 23.228212 149.21183 18.399126 148.30958 13.003906 145.86328 C 8.7331473 143.9268 7.1887281 142.72046 5.8925781 140.30664 C 4.4670081 137.65205 4.7004387 132.84226 6.4179688 129.48828 C 7.3614791 127.64597 9.5025815 125.11447 12.154297 122.48633 A 17.474283 17.474283 0 0 1 23.539062 113.18359 C 24.250139 112.72265 24.950208 112.28772 25.619141 111.91016 C 27.615391 110.78347 29.140313 109.75867 29.007812 109.63281 C 28.949785 109.57768 28.841038 109.55132 28.6875 109.55273 z M 245.18359 115.39258 C 244.92243 115.39258 243.34232 115.72327 241.5625 116.13086 A 17.474283 17.474283 0 0 1 245.36914 117.16016 C 245.93692 116.13153 245.95055 115.39258 245.18359 115.39258 z M 280.70898 125.49023 C 280.49147 125.48392 279.99739 125.7364 279.20508 126.30859 C 273.229 130.62432 267.06434 131.0025 262.04492 127.36133 L 259.69141 125.6543 L 256.72266 127.95898 C 256.37257 128.23082 256.05543 128.4645 255.73633 128.69922 A 17.474283 17.474283 0 0 1 256.31445 131.99609 C 256.41363 131.89566 256.52939 131.79428 256.62109 131.69531 L 258.6875 129.4668 L 260.0957 130.70898 C 262.98064 133.25087 266.83251 133.67154 272.36914 132.04688 C 275.10958 131.24269 276.38351 130.51731 278.36719 128.63281 C 280.32829 126.76965 281.18751 125.50412 280.70898 125.49023 z M 160.36523 203.98047 C 160.11753 203.99405 159.95508 204.59721 159.95508 205.57812 C 159.95336 206.60667 159.01138 209.98839 157.86133 213.09375 C 156.7114 216.1991 155.42818 219.84516 155.00977 221.19531 C 154.7431 222.05561 154.45488 224.13026 154.20312 226.51562 A 43.286018 43.286018 0 0 1 157.58984 226.36914 A 43.286018 43.286018 0 0 1 161.24805 226.55273 C 160.70271 225.46332 160.34802 224.32405 160.1875 223.10352 C 159.98863 221.59073 160.08929 218.15913 160.41016 215.47852 C 161.13167 209.44817 161.16101 204.4136 160.47656 204.01172 C 160.43785 203.98898 160.40062 203.97853 160.36523 203.98047 z "
       transform="translate(0,-1.5258789e-5)"
       id="path7363" />
    <path
       style="fill:#000000"
       d="m 184.89341,146.01733 c 1.19916,-0.33229 1.14046,-0.78892 -0.25838,-2.01117 -1.25662,-1.09803 -4.55747,-3.0781 -5.13604,-3.08108 -0.51369,-0.002 -1.1111,4.25749 -0.72946,5.20215 0.26227,0.64925 0.77698,0.7364 2.77083,0.46905 1.34675,-0.1806 2.8557,-0.44113 3.35305,-0.57895 z"
       id="path7361"
       inkscape:connector-curvature="0" />
    <path
       style="fill:#000000"
       d="m 195.28532,140.30953 c 0.69942,-0.8776 2.45784,-3.41834 3.90774,-5.6461 l 2.63604,-4.05046 -10.59957,0 -10.59956,0 0,1.87201 c 0,1.40719 0.35296,2.18712 1.42111,3.14116 1.60764,1.43567 10.34027,6.27904 11.32115,6.27904 0.35272,0 1.21355,-0.71804 1.91309,-1.59565 z"
       id="path7359"
       inkscape:connector-curvature="0" />
    <path
       style="fill:#000000"
       d="m 207.97377,140.23883 c 0.35468,-0.40598 1.49833,-1.00003 2.54146,-1.32009 4.38418,-1.34529 7.3227,-2.51177 7.3227,-2.90685 0,-0.56098 -7.25108,-5.39881 -8.09192,-5.39881 -0.36129,0 -0.89394,0.42078 -1.18362,0.93505 -0.96832,1.71879 -3.58345,9.56193 -3.32221,9.9635 0.30693,0.47181 1.82844,-0.23663 2.73359,-1.2728 z"
       id="path7357"
       inkscape:connector-curvature="0" />
    <path
       style="fill:#000000"
       d="m 260.73035,261.63567 c -2.7497,-1.05134 -9.8066,-2.37895 -15.19839,-2.85925 -3.6714,-0.32704 -5.93883,-0.76085 -6.50038,-1.24371 -0.57902,-0.49777 -1.95283,-0.74319 -4.18074,-0.74676 -1.82514,-0.003 -4.46907,-0.33693 -5.87544,-0.74225 -2.40895,-0.69421 -4.93614,-2.36626 -4.93614,-3.26574 0,-0.59378 2.42324,-0.46554 5.83397,0.30875 3.13362,0.71136 4.55828,0.53586 7.53974,-0.9289 l 1.68589,-0.82827 2.24253,1.96391 c 1.46783,1.28545 2.92801,2.07216 4.2269,2.27733 7.43305,1.17413 12.32053,2.91211 15.69814,5.58237 1.42167,1.12384 1.33807,1.19908 -0.53608,0.48252 z"
       id="path7355"
       inkscape:connector-curvature="0" />
    <path
       style="fill:#000000"
       d="m 12.961871,256.36458 c 0.27004,-0.23465 3.62503,-1.69146 7.45555,-3.23734 6.60661,-2.66624 7.03166,-2.77219 8.2684,-2.06177 1.85222,1.06399 1.92292,2.18073 0.17866,2.82491 -2.16931,0.80122 -12.83959,2.90089 -14.74182,2.90089 -0.96729,0 -1.4483,-0.1768 -1.16079,-0.42669 z"
       id="path7353"
       inkscape:connector-curvature="0" />
    <path
       style="fill:#000000"
       d="m 120.1671,221.63965 c 0,-0.50404 3.00191,-10.69932 4.19114,-14.23435 1.2925,-3.84234 1.80309,-7.81729 1.05993,-8.25362 -0.33424,-0.19625 -0.72855,0.28506 -0.97562,1.19098 -0.54294,1.99039 -1.39256,1.90996 -1.58744,-0.15027 -0.11308,-1.19383 0.19236,-1.98647 1.13817,-2.95606 2.45316,-2.51484 4.44234,-1.3341 4.44234,2.63695 0,2.15014 -4.57245,16.54965 -6.25354,19.69403 -0.91325,1.70801 -2.01498,2.8411 -2.01498,2.07234 z"
       id="path7349"
       inkscape:connector-curvature="0" />
    <path
       style="fill:#000000"
       d="M 170.98047 179.70898 C 169.57398 179.70898 165.85408 183.81391 164.10547 187.29492 C 163.9083 187.68753 163.7432 188.0541 163.58594 188.41406 A 15.720088 15.720088 0 0 1 164.73828 194.29688 A 15.720088 15.720088 0 0 1 164.72852 194.48633 C 165.26845 194.61621 165.84419 194.65948 166.21875 194.56641 C 168.4671 194.00783 172.40042 187.68624 171.65234 185.83398 C 171.1976 184.70818 170.45597 185.33064 169.00195 188.05664 C 167.56177 190.75664 166.80652 191.40423 166.36719 190.31641 C 166.00989 189.43173 168.11992 184.8959 169.70312 183.14648 L 170.81445 181.91992 L 171.99414 183.26953 C 173.50435 184.99724 173.91211 184.97091 173.91211 183.14648 C 173.91211 181.53642 172.35349 179.70898 170.98047 179.70898 z "
       transform="translate(0,-1.5258789e-5)"
       id="path7345" />
    <path
       style="fill:#000000"
       d="m 139.58701,129.85555 c -0.17534,-0.66347 -0.64938,-1.20634 -1.05352,-1.20634 -1.33978,0 -1.43745,1.03786 -0.21429,2.27489 1.29169,1.30624 1.78526,0.89023 1.26781,-1.06855 z"
       id="path7335"
       inkscape:connector-curvature="0" />
    <path
       style="fill:#000000"
       d="m 161.50932,172.58563 c 0,-0.42024 0.61238,-1.91232 1.36092,-3.31576 1.75728,-3.29459 2.08467,-7.27272 1.02908,-12.50649 -0.86379,-4.28377 -0.71289,-6.03946 1.0148,-11.79951 0.88024,-2.93466 1.46384,-3.92017 1.90933,-3.2241 0.14449,0.22605 -0.0697,3.14489 -0.47645,6.48632 -0.71667,5.88993 -0.70445,6.19706 0.40357,10.0648 0.6287,2.19422 1.23686,4.98761 1.35166,6.20758 0.18779,1.99595 0,2.46927 -1.89311,4.72606 -2.51199,2.99731 -4.6998,4.56197 -4.6998,3.3611 z"
       id="path7343"
       inkscape:connector-curvature="0" />
    <path
       style="fill:#000000"
       d="m 76.162891,161.84347 c -3.00248,-0.76711 -4.90871,-1.93069 -5.35592,-3.26927 -0.52271,-1.56467 0.0194,-1.67394 2.13721,-0.43056 2.97816,1.74868 5.74533,1.47576 12.22801,-1.20598 6.92838,-2.86612 8.15383,-2.94818 6.29087,-0.4212 -1.02656,1.39244 -4.56764,3.66663 -7.21189,4.63179 -3.20297,1.16909 -5.47062,1.364 -8.08828,0.69522 z"
       id="path7341"
       inkscape:connector-curvature="0" />
    <path
       style="fill:#000000"
       d="M 129.81836 134.95117 L 127.04688 137.9082 C 123.82806 141.34129 120.31163 143.14145 115.89648 143.61914 C 113.07869 143.92402 111.22252 143.66117 109.82422 142.69141 A 17.474283 17.474283 0 0 1 106.24805 144.9043 C 110.25521 151.30231 115.54185 156.27312 120.16797 157.78906 C 122.65448 158.60386 127.91797 158.87199 127.91797 158.18359 C 127.91797 157.523 126.38511 156.4309 122.33984 154.21289 C 120.26614 153.07587 117.72992 151.44441 116.70312 150.58789 L 114.83594 149.03125 L 119.80859 148.48438 C 125.65203 147.84247 127.44276 146.83526 130.31445 142.57031 C 131.29817 141.10922 132.2928 140.02472 132.52344 140.16016 C 133.33502 140.63663 134.67735 146.24634 134.31445 147.64453 C 134.1174 148.40371 133.04028 150.40926 131.91992 152.10156 C 129.451 155.83091 129.59803 156.87868 132.53906 156.50391 C 136.44394 156.0063 139.04161 153.18264 139.00391 149.47656 C 138.96919 146.09826 136.9797 142.37815 133 138.25195 L 129.81836 134.95117 z "
       transform="translate(0,-1.5258789e-5)"
       id="path7339" />
    <path
       style="fill:#000000"
       d="M 133.32227 98.304688 C 132.81255 98.258229 133.15483 99.351258 134.3457 101.58398 C 135.72878 104.17713 138.27201 106.53344 141.24023 107.97266 C 142.29809 108.48564 143.58028 109.34355 144.08984 109.87891 C 144.9819 110.81561 144.97903 110.94647 144.01562 113.35547 C 141.50808 119.62485 136.15364 124.5452 129.5332 126.66406 C 124.75405 128.19363 120.60995 128.7141 116.32422 128.32031 A 17.474283 17.474283 0 0 1 116.34375 128.83203 A 17.474283 17.474283 0 0 1 116.15039 131.27344 C 118.02841 131.60557 120.90046 131.87276 124.56055 132.04102 C 132.43955 132.40322 133.38448 132.6248 136.44922 134.83008 C 137.30376 135.44496 138.68937 136.28713 139.5293 136.70117 L 139.52539 136.70117 C 141.64386 137.74534 141.84797 137.23904 141.85938 130.98047 L 141.87109 125.70312 L 143.875 125.70312 C 146.16071 125.70312 146.5464 126.05069 147.79297 129.21875 C 148.97946 132.23428 151.24286 134.8085 152.35156 134.4043 C 153.52263 133.97734 155.09469 130.86914 156.36719 126.46289 C 157.92641 121.06332 157.44758 120.37711 155.08203 124.62305 C 153.98385 126.59425 152.92059 128.03045 152.71875 127.81445 C 152.51691 127.59845 151.15606 124.95189 149.69531 121.93359 C 147.59248 117.58887 147.03906 115.92105 147.03906 113.92383 C 147.03906 110.72127 147.52239 109.89895 150.53516 107.97852 C 155.13547 105.04621 155.48395 103.76997 151.30273 105.16797 C 145.96257 106.95344 141.07925 105.45324 136.05664 100.48047 C 134.62911 99.06705 133.71871 98.340822 133.32227 98.304688 z "
       transform="translate(0,-1.5258789e-5)"
       id="path7337" />
    <path
       style="fill:#000000"
       d="M 50.513672 78.658203 C 49.869082 78.570983 47.40251 79.392022 45.03125 80.482422 C 34.25657 85.437212 29.537149 93.903986 32.855469 102.33008 C 34.783079 107.22452 40.103473 110.76901 47.376953 112.00391 C 51.046293 112.62691 53.580972 112.38526 59.013672 110.89453 C 61.146072 110.30942 61.201431 110.32662 64.957031 112.78516 C 71.35202 116.97152 76.738816 119.11814 83.185547 119.97852 A 17.474283 17.474283 0 0 1 85.980469 116.31445 C 78.364348 116.32648 72.632311 114.80319 66.380859 111.19531 L 63.25 109.38867 L 63.589844 107.48242 C 63.777144 106.43312 63.810626 105.57422 63.666016 105.57422 C 63.521296 105.57422 61.351147 106.04076 58.841797 106.61133 C 55.258117 107.42613 53.391691 107.58352 50.144531 107.34766 C 44.232421 106.91821 42.331046 106.27987 39.503906 103.76758 C 36.255706 100.88102 34.693875 97.869892 35.140625 95.357422 C 35.972085 90.681852 41.267133 84.682384 47.814453 80.996094 C 50.912663 79.251764 51.451482 78.785113 50.513672 78.658203 z M 112.08789 109.6582 C 111.49175 109.73758 109.34466 110.48809 106.90039 111.48438 C 106.09132 111.81414 105.39047 112.0944 104.67578 112.37891 A 17.474283 17.474283 0 0 1 109.05273 114.86328 C 109.25918 114.67135 109.46819 114.48314 109.66406 114.28125 C 111.69366 112.18939 112.80569 110.19951 112.24414 109.66602 C 112.22592 109.6487 112.17305 109.64686 112.08789 109.6582 z "
       transform="translate(0,-1.5258789e-5)"
       id="path7333" />
    <path
       style="fill:#000000"
       d="m 202.07629,91.367748 c -3.92705,-0.90831 -6.98436,-3.44776 -8.2483,-6.85137 -1.09305,-2.9432 -1.04462,-2.96034 1.03913,-0.36768 3.17977,3.95644 8.23311,5.55649 12.63535,4.00077 1.279,-0.452 2.84873,-0.93993 3.48818,-1.08429 3.06714,-0.69237 -0.58314,3.37646 -3.78735,4.22166 -2.24858,0.59314 -2.86986,0.60295 -5.12701,0.081 z"
       id="path7331"
       inkscape:connector-curvature="0" />
    <path
       style="fill:#000000"
       d="m 217.32116,87.718158 c -4.91809,-1.35819 -7.46446,-3.36605 -9.31735,-7.3471 -0.60746,-1.30509 -1.01058,-2.46214 -0.89578,-2.57123 0.11492,-0.10908 1.33693,1.04317 2.71589,2.56054 5.64572,6.21285 12.2769,6.0594 21.93877,-0.50765 5.08451,-3.45591 6.26689,-2.78731 2.68469,1.51809 -2.49063,2.99355 -4.82408,4.87697 -7.22092,5.82842 -2.6124,1.037 -7.16554,1.27556 -9.9053,0.51893 z"
       id="path7329"
       inkscape:connector-curvature="0" />
    <path
       style="fill:#000000"
       d="m 266.93168,86.242558 c 0,-0.10104 0.63214,-1.25807 1.40466,-2.57127 1.23755,-2.10365 1.40501,-2.91395 1.40764,-6.81264 0,-5.23231 -0.68937,-7.46121 -3.39201,-10.90895 -2.14715,-2.73925 -7.47371,-7.03275 -11.37643,-9.17005 -5.42264,-2.96967 -17.84814,-6.3933 -28.8692,-7.95434 -9.07691,-1.28569 -9.69739,-1.70285 -5.52019,-3.71173 7.36634,-3.54275 10.23426,-6.86066 9.17149,-10.61065 -1.12606,-3.97291 -8.07193,-8.52014 -15.92465,-10.42533 -1.20796,-0.29308 -2.19639,-0.77675 -2.19639,-1.07484 0,-0.84681 5.59889,-0.1124 10.19772,1.33765 7.4415,2.34641 12.22035,6.58758 12.90754,11.45559 0.48341,3.42408 -2.69064,8.3569 -6.85939,10.65991 -0.77287,0.42704 0.16974,0.65593 4.6918,1.13936 22.47335,2.4025 38.443,10.22505 43.74274,21.42687 3.46567,7.32528 -0.81662,17.40407 -7.39456,17.40407 -1.09488,0 -1.99077,-0.0825 -1.99077,-0.18365 z"
       id="path7327"
       inkscape:connector-curvature="0" />
    <path
       style="fill:#000000"
       d="m 283.22815,85.880448 c 0.23405,-0.37491 1.02349,-1.43774 1.75409,-2.36183 2.0288,-2.56553 1.8265,-5.06489 -0.6711,-8.29747 -1.0999,-1.42347 -1.90076,-2.68223 -1.77967,-2.79724 0.59718,-0.56736 4.26277,0.99273 5.82927,2.48096 3.3067,3.14152 3.3614,7.4186 0.1249,9.75226 -1.9488,1.40504 -5.9528,2.33672 -5.25749,1.22332 z"
       id="path7325"
       inkscape:connector-curvature="0" />
    <path
       style="fill:#000000"
       d="m 54.402451,76.073898 c -2.24321,-1.24103 -3.75045,-8.37616 -2.94709,-13.95056 0.70103,-4.86274 3.31513,-9.52432 8.27618,-14.75761 10.24808,-10.81046 17.21154,-15.24422 30.74082,-19.57304 8.849826,-2.83156 25.160909,-4.27227 30.728379,-2.71416 l 2.32558,0.65081 -5.94295,0.63707 c -10.41737,1.1167 -17.19635,2.21279 -21.446209,3.46764 -5.71231,1.68664 -13.93342,5.44191 -18.54675,8.4718 -7.25098,4.76221 -15.22136,13.65475 -19.28479,21.51582 -1.37862,2.66706 -1.4427,3.10722 -1.4259,9.7889 0.0194,7.43358 -0.1108,7.7724 -2.47727,6.46333 z"
       id="path7323"
       inkscape:connector-curvature="0" />
    <path
       style="fill:#000000"
       d="m 157.22908,70.189888 c -1.075,-0.24633 -2.66425,-0.79646 -3.53136,-1.22252 -1.12069,-0.55057 -3.25812,-0.80036 -7.38861,-0.86355 l -5.81192,-0.0889 -2.97222,-2.13277 c -3.34837,-2.40255 -5.98864,-5.95485 -5.98864,-8.05711 0,-1.8359 0.57457,-1.44497 3.12906,2.12873 2.86381,4.00644 5.5083,5.60914 9.23488,5.59677 1.58456,-0.006 3.96029,-0.32082 5.27951,-0.70128 2.23349,-0.6441 2.58943,-0.61593 5.16779,0.40901 5.4938,2.18379 9.50663,1.82407 13.7438,-1.23202 2.28217,-1.64613 2.84554,-2.77183 3.53194,-7.05805 l 0.58964,-3.68223 1.09648,2.20934 c 1.36526,2.75047 1.39724,4.43133 0.12931,6.79241 -2.87113,5.34696 -10.70146,9.16422 -16.20966,7.90217 z"
       id="path7321"
       inkscape:connector-curvature="0" />
    <path
       style="fill:#000000"
       d="m 128.4612,27.119158 c -2.85285,-2.71043 -3.02636,-9.50685 -0.34108,-13.36192 2.9834,-4.2831204 9.03406,-8.0421204 16.59403,-10.3091104 4.63274,-1.38923 18.69422,-1.89459 27.95252,-1.0046 14.24893,1.36974 30.28037,9.2519104 35.95043,17.6756304 1.80184,2.67695 1.81702,2.97241 0.15169,2.97241 -1.80182,0 -3.41598,-0.8564 -11.55405,-6.12979 -10.3582,-6.712 -14.56717,-8.5253204 -24.77127,-10.6718104 -7.1003,-1.49358 -20.36961,-1.49578 -27.66822,-0.005 -8.19895,1.67513 -13.43242,4.6366804 -15.37578,8.7010504 -1.33521,2.79218 -1.18808,4.35301 0.85431,9.06423 0.98967,2.28269 1.79932,4.21586 1.79932,4.29594 0,0.0801 -0.48296,0.1456 -1.07329,0.1456 -0.59032,0 -1.7237,-0.61785 -2.51861,-1.37302 z"
       id="path7317"
       inkscape:connector-curvature="0" />
  </g>
</svg>
