M48
;GenerationSoftware,Autodesk,EAGLE,8.7.1*%
;CreationDate,2018-04-05T19:51:29Z*%
FMAT,2
ICI,OFF
INCH,TZ,0000.0000
T5C0.0138
T4C0.0320
T3C0.0400
T2C0.0512
T1C0.0787
%
G90
M72
T1
X25000Y7272
X25000Y3728
X10000Y7272
X10000Y3728
T2
X22539Y6484
X12461Y4516
X7539Y4516
X27461Y4516
X22539Y4516
X7539Y6484
X12461Y6484
X17500Y11665
X17500Y3791
X27461Y6484
T3
X19500Y1500
X18500Y1500
X17500Y1500
X16500Y1500
X15500Y1500
T4
X29000Y3000
X29000Y8000
X30500Y3000
X30500Y8000
X30000Y27500
X23500Y32000
X23500Y33000
X30000Y26500
X6000Y8000
X30000Y20000
X30000Y21000
X23500Y14500
X23500Y15500
X5500Y20000
X5500Y21000
X11000Y14500
X11000Y15500
X12500Y32000
X12500Y33000
X5500Y26500
X5500Y27500
X6000Y3000
X4500Y3000
X4500Y8000
T5
X20000Y23750
X15500Y6500
X15000Y23750
X15650Y22750
X15300Y23250
X17500Y10000
X19500Y23250
X14500Y24000
X17500Y25500
X20500Y23500
X19500Y22750
X18150Y21750
M30