G04 EAGLE Gerber X2 export*
%TF.Part,Single*%
%TF.FileFunction,Copper,L2,Bot,Mixed*%
%TF.FilePolarity,Positive*%
%TF.GenerationSoftware,Autodesk,EAGLE,8.7.0*%
%TF.CreationDate,2018-04-04T18:07:55Z*%
G75*
%MOMM*%
%FSLAX34Y34*%
%LPD*%
%AMOC8*
5,1,8,0,0,1.08239X$1,22.5*%
G01*
%ADD10C,1.950000*%
%ADD11R,1.879600X1.879600*%
%ADD12C,1.879600*%
%ADD13C,0.254000*%
%ADD14C,1.524000*%
%ADD15P,1.319650X8X112.500000*%
%ADD16C,0.304800*%
%ADD17C,0.705600*%


D10*
X444500Y296300D03*
X444500Y96300D03*
D11*
X596900Y812800D03*
D12*
X596900Y838200D03*
D11*
X762000Y673100D03*
D12*
X762000Y698500D03*
D10*
X697500Y114700D03*
X572500Y114700D03*
X697500Y164700D03*
X572500Y164700D03*
X316500Y114700D03*
X191500Y114700D03*
X316500Y164700D03*
X191500Y164700D03*
D13*
X357640Y83520D02*
X383040Y83520D01*
X357640Y83520D02*
X357640Y96220D01*
X357640Y102570D01*
X357640Y106380D01*
X357640Y102570D02*
X376690Y102570D01*
X383040Y102570D01*
X383040Y96220D01*
X383040Y83520D01*
X383040Y96220D02*
X376690Y102570D01*
X370340Y96220D01*
X357640Y96220D01*
X358910Y103840D02*
X358910Y106380D01*
X380500Y101300D02*
X381770Y101300D01*
X380500Y101300D02*
X381770Y100030D01*
X372880Y101300D02*
X370340Y98760D01*
X358910Y98760D01*
X358910Y101300D01*
X370340Y101300D01*
X375420Y91140D02*
X377960Y91140D01*
X375420Y91140D02*
X375420Y87330D01*
X377960Y87330D01*
X377960Y91140D01*
X365260Y91140D02*
X362720Y91140D01*
X362720Y87330D01*
X365260Y87330D01*
X365260Y91140D01*
X358910Y106380D02*
X357640Y106380D01*
D11*
X762000Y508000D03*
D12*
X762000Y533400D03*
D11*
X596900Y368300D03*
D12*
X596900Y393700D03*
D11*
X139700Y508000D03*
D12*
X139700Y533400D03*
D11*
X279400Y368300D03*
D12*
X279400Y393700D03*
D11*
X317500Y812800D03*
D12*
X317500Y838200D03*
D11*
X139700Y673100D03*
D12*
X139700Y698500D03*
D14*
X393700Y45720D02*
X393700Y30480D01*
X419100Y30480D02*
X419100Y45720D01*
X444500Y45720D02*
X444500Y30480D01*
X469900Y30480D02*
X469900Y45720D01*
X495300Y45720D02*
X495300Y30480D01*
D15*
X152400Y76200D03*
X152400Y203200D03*
X114300Y76200D03*
X114300Y203200D03*
X736600Y76200D03*
X736600Y203200D03*
X774700Y76200D03*
X774700Y203200D03*
D16*
X444500Y254000D02*
X444500Y96300D01*
D17*
X444500Y254000D03*
D16*
X419100Y270900D02*
X444500Y296300D01*
X419100Y270900D02*
X419100Y38100D01*
X521100Y164700D02*
X572500Y164700D01*
X521100Y164700D02*
X508000Y177800D01*
X508000Y285750D01*
X463550Y330200D01*
X463550Y527050D01*
X508000Y571500D01*
X508000Y603250D01*
D17*
X508000Y603250D03*
X393700Y165100D03*
D16*
X393700Y38100D01*
X381460Y164700D02*
X316500Y164700D01*
X400276Y183106D02*
X406400Y189230D01*
X382086Y165326D02*
X381460Y164700D01*
X382086Y165326D02*
X400276Y183106D01*
X406400Y189230D02*
X406400Y302260D01*
X425450Y321310D01*
X425450Y533400D01*
X381000Y577850D01*
D17*
X381000Y603250D03*
D16*
X381000Y577850D01*
X469900Y298450D02*
X469900Y38100D01*
X469900Y298450D02*
X438150Y330200D01*
D17*
X397510Y577850D03*
X461010Y552450D03*
D16*
X438150Y552450D01*
X438150Y330200D01*
X425450Y552450D02*
X397510Y577850D01*
X425450Y552450D02*
X438150Y552450D01*
X495300Y285750D02*
X495300Y38100D01*
X495300Y285750D02*
X450850Y330200D01*
X450850Y527050D01*
X474980Y551180D01*
X474980Y577850D01*
X463550Y589280D01*
X388620Y590550D01*
D17*
X388620Y590550D03*
X495300Y577850D03*
D16*
X474980Y577850D01*
X596900Y368300D02*
X609600Y368300D01*
X622300Y381000D01*
X622300Y495300D01*
X520700Y596900D01*
D17*
X520700Y596900D03*
D16*
X152400Y673100D02*
X139700Y673100D01*
X152400Y673100D02*
X165100Y685800D01*
X410210Y685800D01*
X444500Y647700D01*
D17*
X444500Y647700D03*
D16*
X749300Y685800D02*
X762000Y673100D01*
X749300Y685800D02*
X486410Y685800D01*
X444500Y647700D01*
D17*
X368300Y609600D03*
D16*
X369160Y609600D01*
X369386Y609826D01*
X476024Y609826D01*
X495300Y590550D01*
D17*
X495300Y590550D03*
D16*
X279400Y368300D02*
X266700Y368300D01*
X254000Y381000D01*
X254000Y482600D01*
X368300Y596900D02*
X368300Y609600D01*
X368300Y596900D02*
X254000Y482600D01*
M02*
