M48
;GenerationSoftware,Autodesk,EAGLE,8.7.0*%
;CreationDate,2018-04-04T18:07:55Z*%
FMAT,2
ICI,OFF
METRIC,TZ,000.000
T5C0.350
T4C0.813
T3C1.016
T2C1.300
T1C2.000
%
G90
M71
T1
X63500Y18470
X63500Y9470
X25400Y18470
X25400Y9470
T2
X57250Y16470
X31650Y11470
X19150Y11470
X69750Y11470
X57250Y11470
X19150Y16470
X31650Y16470
X44450Y29630
X44450Y9630
X69750Y16470
T3
X49530Y3810
X46990Y3810
X44450Y3810
X41910Y3810
X39370Y3810
T4
X73660Y7620
X73660Y20320
X77470Y7620
X77470Y20320
X76200Y69850
X59690Y81280
X59690Y83820
X76200Y67310
X15240Y20320
X76200Y50800
X76200Y53340
X59690Y36830
X59690Y39370
X13970Y50800
X13970Y53340
X27940Y36830
X27940Y39370
X31750Y81280
X31750Y83820
X13970Y67310
X13970Y69850
X15240Y7620
X11430Y7620
X11430Y20320
T5
X50800Y60325
X39370Y16510
X38100Y60325
X39751Y57785
X38862Y59055
X44450Y25400
X49530Y59055
X36830Y60960
X44450Y64770
X52070Y59690
X49530Y57785
X46101Y55245
M30