G75*
%MOIN*%
%OFA0B0*%
%FSLAX25Y25*%
%IPPOS*%
%LPD*%
%AMOC8*
5,1,8,0,0,1.08239X$1,22.5*
%
%ADD10C,0.00600*%
%ADD11C,0.00000*%
%ADD12R,0.03937X0.04331*%
%ADD13R,0.08661X0.02362*%
D10*
X0001300Y0001300D02*
X0001300Y0350001D01*
X0360001Y0350001D01*
X0360001Y0001300D01*
X0001300Y0001300D01*
D11*
X0057363Y0073583D02*
X0057365Y0073708D01*
X0057371Y0073833D01*
X0057381Y0073957D01*
X0057395Y0074081D01*
X0057412Y0074205D01*
X0057434Y0074328D01*
X0057460Y0074450D01*
X0057489Y0074572D01*
X0057522Y0074692D01*
X0057560Y0074811D01*
X0057600Y0074930D01*
X0057645Y0075046D01*
X0057693Y0075161D01*
X0057745Y0075275D01*
X0057801Y0075387D01*
X0057860Y0075497D01*
X0057922Y0075605D01*
X0057988Y0075712D01*
X0058057Y0075816D01*
X0058130Y0075917D01*
X0058205Y0076017D01*
X0058284Y0076114D01*
X0058366Y0076208D01*
X0058451Y0076300D01*
X0058538Y0076389D01*
X0058629Y0076475D01*
X0058722Y0076558D01*
X0058818Y0076639D01*
X0058916Y0076716D01*
X0059016Y0076790D01*
X0059119Y0076861D01*
X0059224Y0076928D01*
X0059332Y0076993D01*
X0059441Y0077053D01*
X0059552Y0077111D01*
X0059665Y0077164D01*
X0059779Y0077214D01*
X0059895Y0077261D01*
X0060012Y0077303D01*
X0060131Y0077342D01*
X0060251Y0077378D01*
X0060372Y0077409D01*
X0060494Y0077437D01*
X0060616Y0077460D01*
X0060740Y0077480D01*
X0060864Y0077496D01*
X0060988Y0077508D01*
X0061113Y0077516D01*
X0061238Y0077520D01*
X0061362Y0077520D01*
X0061487Y0077516D01*
X0061612Y0077508D01*
X0061736Y0077496D01*
X0061860Y0077480D01*
X0061984Y0077460D01*
X0062106Y0077437D01*
X0062228Y0077409D01*
X0062349Y0077378D01*
X0062469Y0077342D01*
X0062588Y0077303D01*
X0062705Y0077261D01*
X0062821Y0077214D01*
X0062935Y0077164D01*
X0063048Y0077111D01*
X0063159Y0077053D01*
X0063269Y0076993D01*
X0063376Y0076928D01*
X0063481Y0076861D01*
X0063584Y0076790D01*
X0063684Y0076716D01*
X0063782Y0076639D01*
X0063878Y0076558D01*
X0063971Y0076475D01*
X0064062Y0076389D01*
X0064149Y0076300D01*
X0064234Y0076208D01*
X0064316Y0076114D01*
X0064395Y0076017D01*
X0064470Y0075917D01*
X0064543Y0075816D01*
X0064612Y0075712D01*
X0064678Y0075605D01*
X0064740Y0075497D01*
X0064799Y0075387D01*
X0064855Y0075275D01*
X0064907Y0075161D01*
X0064955Y0075046D01*
X0065000Y0074930D01*
X0065040Y0074811D01*
X0065078Y0074692D01*
X0065111Y0074572D01*
X0065140Y0074450D01*
X0065166Y0074328D01*
X0065188Y0074205D01*
X0065205Y0074081D01*
X0065219Y0073957D01*
X0065229Y0073833D01*
X0065235Y0073708D01*
X0065237Y0073583D01*
X0065235Y0073458D01*
X0065229Y0073333D01*
X0065219Y0073209D01*
X0065205Y0073085D01*
X0065188Y0072961D01*
X0065166Y0072838D01*
X0065140Y0072716D01*
X0065111Y0072594D01*
X0065078Y0072474D01*
X0065040Y0072355D01*
X0065000Y0072236D01*
X0064955Y0072120D01*
X0064907Y0072005D01*
X0064855Y0071891D01*
X0064799Y0071779D01*
X0064740Y0071669D01*
X0064678Y0071561D01*
X0064612Y0071454D01*
X0064543Y0071350D01*
X0064470Y0071249D01*
X0064395Y0071149D01*
X0064316Y0071052D01*
X0064234Y0070958D01*
X0064149Y0070866D01*
X0064062Y0070777D01*
X0063971Y0070691D01*
X0063878Y0070608D01*
X0063782Y0070527D01*
X0063684Y0070450D01*
X0063584Y0070376D01*
X0063481Y0070305D01*
X0063376Y0070238D01*
X0063268Y0070173D01*
X0063159Y0070113D01*
X0063048Y0070055D01*
X0062935Y0070002D01*
X0062821Y0069952D01*
X0062705Y0069905D01*
X0062588Y0069863D01*
X0062469Y0069824D01*
X0062349Y0069788D01*
X0062228Y0069757D01*
X0062106Y0069729D01*
X0061984Y0069706D01*
X0061860Y0069686D01*
X0061736Y0069670D01*
X0061612Y0069658D01*
X0061487Y0069650D01*
X0061362Y0069646D01*
X0061238Y0069646D01*
X0061113Y0069650D01*
X0060988Y0069658D01*
X0060864Y0069670D01*
X0060740Y0069686D01*
X0060616Y0069706D01*
X0060494Y0069729D01*
X0060372Y0069757D01*
X0060251Y0069788D01*
X0060131Y0069824D01*
X0060012Y0069863D01*
X0059895Y0069905D01*
X0059779Y0069952D01*
X0059665Y0070002D01*
X0059552Y0070055D01*
X0059441Y0070113D01*
X0059331Y0070173D01*
X0059224Y0070238D01*
X0059119Y0070305D01*
X0059016Y0070376D01*
X0058916Y0070450D01*
X0058818Y0070527D01*
X0058722Y0070608D01*
X0058629Y0070691D01*
X0058538Y0070777D01*
X0058451Y0070866D01*
X0058366Y0070958D01*
X0058284Y0071052D01*
X0058205Y0071149D01*
X0058130Y0071249D01*
X0058057Y0071350D01*
X0057988Y0071454D01*
X0057922Y0071561D01*
X0057860Y0071669D01*
X0057801Y0071779D01*
X0057745Y0071891D01*
X0057693Y0072005D01*
X0057645Y0072120D01*
X0057600Y0072236D01*
X0057560Y0072355D01*
X0057522Y0072474D01*
X0057489Y0072594D01*
X0057460Y0072716D01*
X0057434Y0072838D01*
X0057412Y0072961D01*
X0057395Y0073085D01*
X0057381Y0073209D01*
X0057371Y0073333D01*
X0057365Y0073458D01*
X0057363Y0073583D01*
X0057363Y0109017D02*
X0057365Y0109142D01*
X0057371Y0109267D01*
X0057381Y0109391D01*
X0057395Y0109515D01*
X0057412Y0109639D01*
X0057434Y0109762D01*
X0057460Y0109884D01*
X0057489Y0110006D01*
X0057522Y0110126D01*
X0057560Y0110245D01*
X0057600Y0110364D01*
X0057645Y0110480D01*
X0057693Y0110595D01*
X0057745Y0110709D01*
X0057801Y0110821D01*
X0057860Y0110931D01*
X0057922Y0111039D01*
X0057988Y0111146D01*
X0058057Y0111250D01*
X0058130Y0111351D01*
X0058205Y0111451D01*
X0058284Y0111548D01*
X0058366Y0111642D01*
X0058451Y0111734D01*
X0058538Y0111823D01*
X0058629Y0111909D01*
X0058722Y0111992D01*
X0058818Y0112073D01*
X0058916Y0112150D01*
X0059016Y0112224D01*
X0059119Y0112295D01*
X0059224Y0112362D01*
X0059332Y0112427D01*
X0059441Y0112487D01*
X0059552Y0112545D01*
X0059665Y0112598D01*
X0059779Y0112648D01*
X0059895Y0112695D01*
X0060012Y0112737D01*
X0060131Y0112776D01*
X0060251Y0112812D01*
X0060372Y0112843D01*
X0060494Y0112871D01*
X0060616Y0112894D01*
X0060740Y0112914D01*
X0060864Y0112930D01*
X0060988Y0112942D01*
X0061113Y0112950D01*
X0061238Y0112954D01*
X0061362Y0112954D01*
X0061487Y0112950D01*
X0061612Y0112942D01*
X0061736Y0112930D01*
X0061860Y0112914D01*
X0061984Y0112894D01*
X0062106Y0112871D01*
X0062228Y0112843D01*
X0062349Y0112812D01*
X0062469Y0112776D01*
X0062588Y0112737D01*
X0062705Y0112695D01*
X0062821Y0112648D01*
X0062935Y0112598D01*
X0063048Y0112545D01*
X0063159Y0112487D01*
X0063269Y0112427D01*
X0063376Y0112362D01*
X0063481Y0112295D01*
X0063584Y0112224D01*
X0063684Y0112150D01*
X0063782Y0112073D01*
X0063878Y0111992D01*
X0063971Y0111909D01*
X0064062Y0111823D01*
X0064149Y0111734D01*
X0064234Y0111642D01*
X0064316Y0111548D01*
X0064395Y0111451D01*
X0064470Y0111351D01*
X0064543Y0111250D01*
X0064612Y0111146D01*
X0064678Y0111039D01*
X0064740Y0110931D01*
X0064799Y0110821D01*
X0064855Y0110709D01*
X0064907Y0110595D01*
X0064955Y0110480D01*
X0065000Y0110364D01*
X0065040Y0110245D01*
X0065078Y0110126D01*
X0065111Y0110006D01*
X0065140Y0109884D01*
X0065166Y0109762D01*
X0065188Y0109639D01*
X0065205Y0109515D01*
X0065219Y0109391D01*
X0065229Y0109267D01*
X0065235Y0109142D01*
X0065237Y0109017D01*
X0065235Y0108892D01*
X0065229Y0108767D01*
X0065219Y0108643D01*
X0065205Y0108519D01*
X0065188Y0108395D01*
X0065166Y0108272D01*
X0065140Y0108150D01*
X0065111Y0108028D01*
X0065078Y0107908D01*
X0065040Y0107789D01*
X0065000Y0107670D01*
X0064955Y0107554D01*
X0064907Y0107439D01*
X0064855Y0107325D01*
X0064799Y0107213D01*
X0064740Y0107103D01*
X0064678Y0106995D01*
X0064612Y0106888D01*
X0064543Y0106784D01*
X0064470Y0106683D01*
X0064395Y0106583D01*
X0064316Y0106486D01*
X0064234Y0106392D01*
X0064149Y0106300D01*
X0064062Y0106211D01*
X0063971Y0106125D01*
X0063878Y0106042D01*
X0063782Y0105961D01*
X0063684Y0105884D01*
X0063584Y0105810D01*
X0063481Y0105739D01*
X0063376Y0105672D01*
X0063268Y0105607D01*
X0063159Y0105547D01*
X0063048Y0105489D01*
X0062935Y0105436D01*
X0062821Y0105386D01*
X0062705Y0105339D01*
X0062588Y0105297D01*
X0062469Y0105258D01*
X0062349Y0105222D01*
X0062228Y0105191D01*
X0062106Y0105163D01*
X0061984Y0105140D01*
X0061860Y0105120D01*
X0061736Y0105104D01*
X0061612Y0105092D01*
X0061487Y0105084D01*
X0061362Y0105080D01*
X0061238Y0105080D01*
X0061113Y0105084D01*
X0060988Y0105092D01*
X0060864Y0105104D01*
X0060740Y0105120D01*
X0060616Y0105140D01*
X0060494Y0105163D01*
X0060372Y0105191D01*
X0060251Y0105222D01*
X0060131Y0105258D01*
X0060012Y0105297D01*
X0059895Y0105339D01*
X0059779Y0105386D01*
X0059665Y0105436D01*
X0059552Y0105489D01*
X0059441Y0105547D01*
X0059331Y0105607D01*
X0059224Y0105672D01*
X0059119Y0105739D01*
X0059016Y0105810D01*
X0058916Y0105884D01*
X0058818Y0105961D01*
X0058722Y0106042D01*
X0058629Y0106125D01*
X0058538Y0106211D01*
X0058451Y0106300D01*
X0058366Y0106392D01*
X0058284Y0106486D01*
X0058205Y0106583D01*
X0058130Y0106683D01*
X0058057Y0106784D01*
X0057988Y0106888D01*
X0057922Y0106995D01*
X0057860Y0107103D01*
X0057801Y0107213D01*
X0057745Y0107325D01*
X0057693Y0107439D01*
X0057645Y0107554D01*
X0057600Y0107670D01*
X0057560Y0107789D01*
X0057522Y0107908D01*
X0057489Y0108028D01*
X0057460Y0108150D01*
X0057434Y0108272D01*
X0057412Y0108395D01*
X0057395Y0108519D01*
X0057381Y0108643D01*
X0057371Y0108767D01*
X0057365Y0108892D01*
X0057363Y0109017D01*
X0287363Y0109017D02*
X0287365Y0109142D01*
X0287371Y0109267D01*
X0287381Y0109391D01*
X0287395Y0109515D01*
X0287412Y0109639D01*
X0287434Y0109762D01*
X0287460Y0109884D01*
X0287489Y0110006D01*
X0287522Y0110126D01*
X0287560Y0110245D01*
X0287600Y0110364D01*
X0287645Y0110480D01*
X0287693Y0110595D01*
X0287745Y0110709D01*
X0287801Y0110821D01*
X0287860Y0110931D01*
X0287922Y0111039D01*
X0287988Y0111146D01*
X0288057Y0111250D01*
X0288130Y0111351D01*
X0288205Y0111451D01*
X0288284Y0111548D01*
X0288366Y0111642D01*
X0288451Y0111734D01*
X0288538Y0111823D01*
X0288629Y0111909D01*
X0288722Y0111992D01*
X0288818Y0112073D01*
X0288916Y0112150D01*
X0289016Y0112224D01*
X0289119Y0112295D01*
X0289224Y0112362D01*
X0289332Y0112427D01*
X0289441Y0112487D01*
X0289552Y0112545D01*
X0289665Y0112598D01*
X0289779Y0112648D01*
X0289895Y0112695D01*
X0290012Y0112737D01*
X0290131Y0112776D01*
X0290251Y0112812D01*
X0290372Y0112843D01*
X0290494Y0112871D01*
X0290616Y0112894D01*
X0290740Y0112914D01*
X0290864Y0112930D01*
X0290988Y0112942D01*
X0291113Y0112950D01*
X0291238Y0112954D01*
X0291362Y0112954D01*
X0291487Y0112950D01*
X0291612Y0112942D01*
X0291736Y0112930D01*
X0291860Y0112914D01*
X0291984Y0112894D01*
X0292106Y0112871D01*
X0292228Y0112843D01*
X0292349Y0112812D01*
X0292469Y0112776D01*
X0292588Y0112737D01*
X0292705Y0112695D01*
X0292821Y0112648D01*
X0292935Y0112598D01*
X0293048Y0112545D01*
X0293159Y0112487D01*
X0293269Y0112427D01*
X0293376Y0112362D01*
X0293481Y0112295D01*
X0293584Y0112224D01*
X0293684Y0112150D01*
X0293782Y0112073D01*
X0293878Y0111992D01*
X0293971Y0111909D01*
X0294062Y0111823D01*
X0294149Y0111734D01*
X0294234Y0111642D01*
X0294316Y0111548D01*
X0294395Y0111451D01*
X0294470Y0111351D01*
X0294543Y0111250D01*
X0294612Y0111146D01*
X0294678Y0111039D01*
X0294740Y0110931D01*
X0294799Y0110821D01*
X0294855Y0110709D01*
X0294907Y0110595D01*
X0294955Y0110480D01*
X0295000Y0110364D01*
X0295040Y0110245D01*
X0295078Y0110126D01*
X0295111Y0110006D01*
X0295140Y0109884D01*
X0295166Y0109762D01*
X0295188Y0109639D01*
X0295205Y0109515D01*
X0295219Y0109391D01*
X0295229Y0109267D01*
X0295235Y0109142D01*
X0295237Y0109017D01*
X0295235Y0108892D01*
X0295229Y0108767D01*
X0295219Y0108643D01*
X0295205Y0108519D01*
X0295188Y0108395D01*
X0295166Y0108272D01*
X0295140Y0108150D01*
X0295111Y0108028D01*
X0295078Y0107908D01*
X0295040Y0107789D01*
X0295000Y0107670D01*
X0294955Y0107554D01*
X0294907Y0107439D01*
X0294855Y0107325D01*
X0294799Y0107213D01*
X0294740Y0107103D01*
X0294678Y0106995D01*
X0294612Y0106888D01*
X0294543Y0106784D01*
X0294470Y0106683D01*
X0294395Y0106583D01*
X0294316Y0106486D01*
X0294234Y0106392D01*
X0294149Y0106300D01*
X0294062Y0106211D01*
X0293971Y0106125D01*
X0293878Y0106042D01*
X0293782Y0105961D01*
X0293684Y0105884D01*
X0293584Y0105810D01*
X0293481Y0105739D01*
X0293376Y0105672D01*
X0293268Y0105607D01*
X0293159Y0105547D01*
X0293048Y0105489D01*
X0292935Y0105436D01*
X0292821Y0105386D01*
X0292705Y0105339D01*
X0292588Y0105297D01*
X0292469Y0105258D01*
X0292349Y0105222D01*
X0292228Y0105191D01*
X0292106Y0105163D01*
X0291984Y0105140D01*
X0291860Y0105120D01*
X0291736Y0105104D01*
X0291612Y0105092D01*
X0291487Y0105084D01*
X0291362Y0105080D01*
X0291238Y0105080D01*
X0291113Y0105084D01*
X0290988Y0105092D01*
X0290864Y0105104D01*
X0290740Y0105120D01*
X0290616Y0105140D01*
X0290494Y0105163D01*
X0290372Y0105191D01*
X0290251Y0105222D01*
X0290131Y0105258D01*
X0290012Y0105297D01*
X0289895Y0105339D01*
X0289779Y0105386D01*
X0289665Y0105436D01*
X0289552Y0105489D01*
X0289441Y0105547D01*
X0289331Y0105607D01*
X0289224Y0105672D01*
X0289119Y0105739D01*
X0289016Y0105810D01*
X0288916Y0105884D01*
X0288818Y0105961D01*
X0288722Y0106042D01*
X0288629Y0106125D01*
X0288538Y0106211D01*
X0288451Y0106300D01*
X0288366Y0106392D01*
X0288284Y0106486D01*
X0288205Y0106583D01*
X0288130Y0106683D01*
X0288057Y0106784D01*
X0287988Y0106888D01*
X0287922Y0106995D01*
X0287860Y0107103D01*
X0287801Y0107213D01*
X0287745Y0107325D01*
X0287693Y0107439D01*
X0287645Y0107554D01*
X0287600Y0107670D01*
X0287560Y0107789D01*
X0287522Y0107908D01*
X0287489Y0108028D01*
X0287460Y0108150D01*
X0287434Y0108272D01*
X0287412Y0108395D01*
X0287395Y0108519D01*
X0287381Y0108643D01*
X0287371Y0108767D01*
X0287365Y0108892D01*
X0287363Y0109017D01*
X0287363Y0073583D02*
X0287365Y0073708D01*
X0287371Y0073833D01*
X0287381Y0073957D01*
X0287395Y0074081D01*
X0287412Y0074205D01*
X0287434Y0074328D01*
X0287460Y0074450D01*
X0287489Y0074572D01*
X0287522Y0074692D01*
X0287560Y0074811D01*
X0287600Y0074930D01*
X0287645Y0075046D01*
X0287693Y0075161D01*
X0287745Y0075275D01*
X0287801Y0075387D01*
X0287860Y0075497D01*
X0287922Y0075605D01*
X0287988Y0075712D01*
X0288057Y0075816D01*
X0288130Y0075917D01*
X0288205Y0076017D01*
X0288284Y0076114D01*
X0288366Y0076208D01*
X0288451Y0076300D01*
X0288538Y0076389D01*
X0288629Y0076475D01*
X0288722Y0076558D01*
X0288818Y0076639D01*
X0288916Y0076716D01*
X0289016Y0076790D01*
X0289119Y0076861D01*
X0289224Y0076928D01*
X0289332Y0076993D01*
X0289441Y0077053D01*
X0289552Y0077111D01*
X0289665Y0077164D01*
X0289779Y0077214D01*
X0289895Y0077261D01*
X0290012Y0077303D01*
X0290131Y0077342D01*
X0290251Y0077378D01*
X0290372Y0077409D01*
X0290494Y0077437D01*
X0290616Y0077460D01*
X0290740Y0077480D01*
X0290864Y0077496D01*
X0290988Y0077508D01*
X0291113Y0077516D01*
X0291238Y0077520D01*
X0291362Y0077520D01*
X0291487Y0077516D01*
X0291612Y0077508D01*
X0291736Y0077496D01*
X0291860Y0077480D01*
X0291984Y0077460D01*
X0292106Y0077437D01*
X0292228Y0077409D01*
X0292349Y0077378D01*
X0292469Y0077342D01*
X0292588Y0077303D01*
X0292705Y0077261D01*
X0292821Y0077214D01*
X0292935Y0077164D01*
X0293048Y0077111D01*
X0293159Y0077053D01*
X0293269Y0076993D01*
X0293376Y0076928D01*
X0293481Y0076861D01*
X0293584Y0076790D01*
X0293684Y0076716D01*
X0293782Y0076639D01*
X0293878Y0076558D01*
X0293971Y0076475D01*
X0294062Y0076389D01*
X0294149Y0076300D01*
X0294234Y0076208D01*
X0294316Y0076114D01*
X0294395Y0076017D01*
X0294470Y0075917D01*
X0294543Y0075816D01*
X0294612Y0075712D01*
X0294678Y0075605D01*
X0294740Y0075497D01*
X0294799Y0075387D01*
X0294855Y0075275D01*
X0294907Y0075161D01*
X0294955Y0075046D01*
X0295000Y0074930D01*
X0295040Y0074811D01*
X0295078Y0074692D01*
X0295111Y0074572D01*
X0295140Y0074450D01*
X0295166Y0074328D01*
X0295188Y0074205D01*
X0295205Y0074081D01*
X0295219Y0073957D01*
X0295229Y0073833D01*
X0295235Y0073708D01*
X0295237Y0073583D01*
X0295235Y0073458D01*
X0295229Y0073333D01*
X0295219Y0073209D01*
X0295205Y0073085D01*
X0295188Y0072961D01*
X0295166Y0072838D01*
X0295140Y0072716D01*
X0295111Y0072594D01*
X0295078Y0072474D01*
X0295040Y0072355D01*
X0295000Y0072236D01*
X0294955Y0072120D01*
X0294907Y0072005D01*
X0294855Y0071891D01*
X0294799Y0071779D01*
X0294740Y0071669D01*
X0294678Y0071561D01*
X0294612Y0071454D01*
X0294543Y0071350D01*
X0294470Y0071249D01*
X0294395Y0071149D01*
X0294316Y0071052D01*
X0294234Y0070958D01*
X0294149Y0070866D01*
X0294062Y0070777D01*
X0293971Y0070691D01*
X0293878Y0070608D01*
X0293782Y0070527D01*
X0293684Y0070450D01*
X0293584Y0070376D01*
X0293481Y0070305D01*
X0293376Y0070238D01*
X0293268Y0070173D01*
X0293159Y0070113D01*
X0293048Y0070055D01*
X0292935Y0070002D01*
X0292821Y0069952D01*
X0292705Y0069905D01*
X0292588Y0069863D01*
X0292469Y0069824D01*
X0292349Y0069788D01*
X0292228Y0069757D01*
X0292106Y0069729D01*
X0291984Y0069706D01*
X0291860Y0069686D01*
X0291736Y0069670D01*
X0291612Y0069658D01*
X0291487Y0069650D01*
X0291362Y0069646D01*
X0291238Y0069646D01*
X0291113Y0069650D01*
X0290988Y0069658D01*
X0290864Y0069670D01*
X0290740Y0069686D01*
X0290616Y0069706D01*
X0290494Y0069729D01*
X0290372Y0069757D01*
X0290251Y0069788D01*
X0290131Y0069824D01*
X0290012Y0069863D01*
X0289895Y0069905D01*
X0289779Y0069952D01*
X0289665Y0070002D01*
X0289552Y0070055D01*
X0289441Y0070113D01*
X0289331Y0070173D01*
X0289224Y0070238D01*
X0289119Y0070305D01*
X0289016Y0070376D01*
X0288916Y0070450D01*
X0288818Y0070527D01*
X0288722Y0070608D01*
X0288629Y0070691D01*
X0288538Y0070777D01*
X0288451Y0070866D01*
X0288366Y0070958D01*
X0288284Y0071052D01*
X0288205Y0071149D01*
X0288130Y0071249D01*
X0288057Y0071350D01*
X0287988Y0071454D01*
X0287922Y0071561D01*
X0287860Y0071669D01*
X0287801Y0071779D01*
X0287745Y0071891D01*
X0287693Y0072005D01*
X0287645Y0072120D01*
X0287600Y0072236D01*
X0287560Y0072355D01*
X0287522Y0072474D01*
X0287489Y0072594D01*
X0287460Y0072716D01*
X0287434Y0072838D01*
X0287412Y0072961D01*
X0287395Y0073085D01*
X0287381Y0073209D01*
X0287371Y0073333D01*
X0287365Y0073458D01*
X0287363Y0073583D01*
D12*
X0209646Y0181300D03*
X0202954Y0181300D03*
X0202954Y0191300D03*
X0209646Y0191300D03*
X0209646Y0201300D03*
X0202954Y0201300D03*
X0202954Y0211300D03*
X0209646Y0211300D03*
X0144646Y0211300D03*
X0137954Y0211300D03*
X0137954Y0201300D03*
X0144646Y0201300D03*
X0144646Y0191300D03*
X0137954Y0191300D03*
X0137954Y0181300D03*
X0144646Y0181300D03*
D13*
X0166064Y0188800D03*
X0166064Y0193800D03*
X0166064Y0198800D03*
X0166064Y0203800D03*
X0186536Y0203800D03*
X0186536Y0198800D03*
X0186536Y0193800D03*
X0186536Y0188800D03*
M02*
