%
M48
M72
T01C0.01378
T02C0.03200
T03C0.04000
T04C0.05118
T05C0.07874
%
T01
X166143Y81457
X186457Y81457
X203300Y174300
X186300Y216300
X176300Y216300
X202800Y218800
T02
X61300Y286300
X71300Y286300
X91300Y286300
X101300Y286300
X101300Y316300
X91300Y316300
X71300Y316300
X61300Y316300
X251300Y316300
X261300Y316300
X281300Y316300
X291300Y316300
X291300Y286300
X281300Y286300
X261300Y286300
X251300Y286300
T03
X156300Y31300
X166300Y31300
X176300Y31300
X186300Y31300
X196300Y31300
T04
X36694Y81457
X36694Y101143
X85906Y101143
X85906Y81457
X176300Y69213
X176300Y147954
X266694Y101143
X266694Y81457
X315906Y81457
X315906Y101143
T05
X61300Y73583
X61300Y109017
X291300Y109017
X291300Y73583
M30
