G04 EAGLE Gerber X2 export*
%TF.Part,Single*%
%TF.FileFunction,Legend,Bot,1*%
%TF.FilePolarity,Positive*%
%TF.GenerationSoftware,Autodesk,EAGLE,8.7.0*%
%TF.CreationDate,2018-04-26T15:22:56Z*%
G75*
%MOMM*%
%FSLAX34Y34*%
%LPD*%
%AMOC8*
5,1,8,0,0,1.08239X$1,22.5*%
G01*
%ADD10C,0.304800*%
%ADD11C,0.152400*%
%ADD12C,0.000000*%
%ADD13C,0.203200*%

G36*
X562422Y173096D02*
X562422Y173096D01*
X562488Y173101D01*
X562506Y173112D01*
X562527Y173117D01*
X562612Y173177D01*
X562636Y173191D01*
X562639Y173196D01*
X562644Y173200D01*
X564844Y175500D01*
X564852Y175513D01*
X564865Y175523D01*
X564896Y175587D01*
X564932Y175649D01*
X564933Y175665D01*
X564940Y175679D01*
X564939Y175750D01*
X564945Y175821D01*
X564939Y175836D01*
X564938Y175852D01*
X564881Y175977D01*
X564879Y175981D01*
X564879Y175982D01*
X563011Y178597D01*
X563013Y178608D01*
X563022Y178621D01*
X563033Y178679D01*
X563042Y178700D01*
X563042Y178722D01*
X563048Y178755D01*
X563049Y178760D01*
X563049Y178761D01*
X563049Y178762D01*
X563049Y178772D01*
X563082Y178837D01*
X563138Y178894D01*
X563149Y178912D01*
X563161Y178921D01*
X563169Y178940D01*
X563209Y178992D01*
X563282Y179137D01*
X563338Y179194D01*
X563378Y179258D01*
X563422Y179321D01*
X563424Y179333D01*
X563429Y179341D01*
X563433Y179376D01*
X563449Y179462D01*
X563449Y179511D01*
X563478Y179558D01*
X563522Y179621D01*
X563524Y179633D01*
X563529Y179641D01*
X563533Y179676D01*
X563549Y179762D01*
X563549Y179872D01*
X563582Y179937D01*
X563638Y179994D01*
X563678Y180058D01*
X563722Y180121D01*
X563724Y180133D01*
X563729Y180141D01*
X563733Y180176D01*
X563739Y180209D01*
X563742Y180217D01*
X563742Y180225D01*
X563749Y180262D01*
X563749Y180311D01*
X563778Y180358D01*
X563822Y180421D01*
X563824Y180433D01*
X563829Y180441D01*
X563833Y180476D01*
X563849Y180562D01*
X563849Y180672D01*
X563878Y180730D01*
X567134Y181288D01*
X567152Y181295D01*
X567171Y181296D01*
X567231Y181329D01*
X567293Y181355D01*
X567306Y181370D01*
X567323Y181379D01*
X567362Y181435D01*
X567406Y181486D01*
X567411Y181505D01*
X567422Y181521D01*
X567444Y181632D01*
X567449Y181654D01*
X567448Y181658D01*
X567449Y181662D01*
X567449Y184862D01*
X567445Y184881D01*
X567447Y184900D01*
X567436Y184934D01*
X567435Y184941D01*
X567430Y184951D01*
X567425Y184964D01*
X567410Y185030D01*
X567397Y185045D01*
X567391Y185063D01*
X567343Y185111D01*
X567300Y185164D01*
X567282Y185171D01*
X567268Y185185D01*
X567162Y185225D01*
X567142Y185234D01*
X567138Y185234D01*
X567134Y185236D01*
X563922Y185786D01*
X563911Y185825D01*
X563910Y185830D01*
X563909Y185831D01*
X563849Y185951D01*
X563849Y185962D01*
X563846Y185977D01*
X563848Y185993D01*
X563828Y186063D01*
X563828Y186078D01*
X563820Y186092D01*
X563811Y186125D01*
X563810Y186130D01*
X563809Y186131D01*
X563749Y186251D01*
X563749Y186262D01*
X563746Y186277D01*
X563748Y186293D01*
X563711Y186425D01*
X563710Y186430D01*
X563709Y186431D01*
X563549Y186751D01*
X563549Y186762D01*
X563546Y186777D01*
X563548Y186793D01*
X563511Y186925D01*
X563510Y186930D01*
X563509Y186931D01*
X563409Y187131D01*
X563386Y187159D01*
X563349Y187213D01*
X563349Y187262D01*
X563332Y187336D01*
X563318Y187411D01*
X563312Y187421D01*
X563310Y187430D01*
X563287Y187458D01*
X563238Y187530D01*
X563182Y187586D01*
X563109Y187731D01*
X563086Y187759D01*
X563049Y187813D01*
X563049Y187862D01*
X563032Y187936D01*
X563028Y187958D01*
X564882Y190646D01*
X564888Y190662D01*
X564900Y190675D01*
X564920Y190742D01*
X564945Y190807D01*
X564944Y190825D01*
X564949Y190841D01*
X564936Y190910D01*
X564930Y190980D01*
X564921Y190994D01*
X564918Y191011D01*
X564847Y191117D01*
X564840Y191128D01*
X564839Y191128D01*
X564838Y191130D01*
X562638Y193330D01*
X562624Y193339D01*
X562613Y193353D01*
X562551Y193384D01*
X562491Y193421D01*
X562474Y193423D01*
X562459Y193430D01*
X562389Y193431D01*
X562319Y193437D01*
X562303Y193431D01*
X562286Y193431D01*
X562168Y193380D01*
X562157Y193376D01*
X562156Y193375D01*
X562155Y193374D01*
X559456Y191512D01*
X559438Y191530D01*
X559373Y191570D01*
X559311Y191614D01*
X559299Y191616D01*
X559291Y191621D01*
X559256Y191624D01*
X559170Y191641D01*
X559120Y191641D01*
X559108Y191649D01*
X559040Y191701D01*
X558895Y191773D01*
X558838Y191830D01*
X558773Y191870D01*
X558711Y191914D01*
X558699Y191916D01*
X558691Y191921D01*
X558656Y191924D01*
X558570Y191941D01*
X558520Y191941D01*
X558508Y191949D01*
X558440Y192001D01*
X558240Y192101D01*
X558224Y192105D01*
X558211Y192114D01*
X558077Y192140D01*
X558071Y192141D01*
X558070Y192141D01*
X558060Y192141D01*
X557940Y192201D01*
X557924Y192205D01*
X557911Y192214D01*
X557777Y192240D01*
X557771Y192241D01*
X557770Y192241D01*
X557720Y192241D01*
X557673Y192270D01*
X557611Y192314D01*
X557599Y192316D01*
X557591Y192321D01*
X557556Y192324D01*
X557470Y192341D01*
X557360Y192341D01*
X557302Y192370D01*
X556744Y195626D01*
X556736Y195644D01*
X556735Y195663D01*
X556703Y195722D01*
X556676Y195785D01*
X556662Y195798D01*
X556652Y195815D01*
X556597Y195854D01*
X556545Y195898D01*
X556526Y195903D01*
X556511Y195914D01*
X556400Y195935D01*
X556378Y195941D01*
X556374Y195940D01*
X556370Y195941D01*
X553170Y195941D01*
X553151Y195937D01*
X553132Y195939D01*
X553068Y195917D01*
X553002Y195901D01*
X552987Y195889D01*
X552968Y195883D01*
X552921Y195835D01*
X552868Y195791D01*
X552860Y195774D01*
X552847Y195760D01*
X552807Y195654D01*
X552798Y195633D01*
X552798Y195630D01*
X552796Y195626D01*
X552246Y192414D01*
X552207Y192403D01*
X552202Y192401D01*
X552201Y192401D01*
X552200Y192401D01*
X552080Y192341D01*
X552070Y192341D01*
X552054Y192337D01*
X552038Y192340D01*
X551907Y192303D01*
X551902Y192301D01*
X551901Y192301D01*
X551900Y192301D01*
X551780Y192241D01*
X551770Y192241D01*
X551754Y192237D01*
X551738Y192240D01*
X551607Y192203D01*
X551602Y192201D01*
X551601Y192201D01*
X551600Y192201D01*
X551480Y192141D01*
X551370Y192141D01*
X551296Y192124D01*
X551220Y192110D01*
X551211Y192104D01*
X551202Y192101D01*
X551174Y192079D01*
X551102Y192030D01*
X551045Y191973D01*
X550980Y191941D01*
X550970Y191941D01*
X550954Y191937D01*
X550938Y191940D01*
X550807Y191903D01*
X550802Y191901D01*
X550801Y191901D01*
X550800Y191901D01*
X550600Y191801D01*
X550573Y191778D01*
X550502Y191730D01*
X550445Y191673D01*
X550380Y191641D01*
X550370Y191641D01*
X550354Y191637D01*
X550338Y191640D01*
X550207Y191603D01*
X550202Y191601D01*
X550201Y191601D01*
X550200Y191601D01*
X550059Y191530D01*
X547385Y193374D01*
X547373Y193379D01*
X547364Y193388D01*
X547293Y193410D01*
X547224Y193437D01*
X547211Y193436D01*
X547199Y193440D01*
X547126Y193428D01*
X547052Y193422D01*
X547041Y193415D01*
X547028Y193413D01*
X546908Y193336D01*
X544608Y191136D01*
X544594Y191114D01*
X544574Y191098D01*
X544547Y191042D01*
X544513Y190991D01*
X544510Y190965D01*
X544499Y190942D01*
X544500Y190880D01*
X544493Y190819D01*
X544502Y190795D01*
X544502Y190769D01*
X544540Y190689D01*
X544551Y190656D01*
X544558Y190650D01*
X544563Y190639D01*
X546498Y187966D01*
X546458Y187886D01*
X546402Y187830D01*
X546362Y187765D01*
X546318Y187702D01*
X546316Y187691D01*
X546311Y187683D01*
X546307Y187648D01*
X546291Y187562D01*
X546291Y187512D01*
X546283Y187499D01*
X546231Y187431D01*
X546158Y187286D01*
X546102Y187230D01*
X546062Y187165D01*
X546018Y187102D01*
X546016Y187091D01*
X546011Y187083D01*
X546007Y187048D01*
X545991Y186962D01*
X545991Y186912D01*
X545962Y186865D01*
X545918Y186802D01*
X545916Y186791D01*
X545911Y186783D01*
X545907Y186748D01*
X545891Y186662D01*
X545891Y186551D01*
X545858Y186486D01*
X545802Y186430D01*
X545762Y186365D01*
X545718Y186302D01*
X545716Y186291D01*
X545711Y186283D01*
X545707Y186248D01*
X545691Y186162D01*
X545691Y186112D01*
X545662Y186065D01*
X545618Y186002D01*
X545616Y185991D01*
X545611Y185983D01*
X545607Y185948D01*
X545591Y185862D01*
X545591Y185783D01*
X542308Y185236D01*
X542289Y185228D01*
X542269Y185227D01*
X542210Y185195D01*
X542148Y185169D01*
X542135Y185154D01*
X542117Y185144D01*
X542079Y185089D01*
X542035Y185039D01*
X542029Y185019D01*
X542018Y185002D01*
X542002Y184921D01*
X541998Y184911D01*
X541998Y184900D01*
X541997Y184896D01*
X541991Y184871D01*
X541992Y184867D01*
X541991Y184862D01*
X541991Y181662D01*
X541995Y181643D01*
X541993Y181624D01*
X542015Y181559D01*
X542030Y181493D01*
X542043Y181478D01*
X542049Y181460D01*
X542097Y181412D01*
X542140Y181360D01*
X542158Y181352D01*
X542172Y181338D01*
X542278Y181298D01*
X542298Y181289D01*
X542302Y181289D01*
X542306Y181288D01*
X545594Y180724D01*
X545629Y180599D01*
X545630Y180593D01*
X545631Y180593D01*
X545631Y180592D01*
X545691Y180472D01*
X545691Y180462D01*
X545694Y180446D01*
X545692Y180430D01*
X545729Y180299D01*
X545730Y180293D01*
X545731Y180293D01*
X545731Y180292D01*
X545791Y180172D01*
X545791Y180162D01*
X545794Y180146D01*
X545792Y180130D01*
X545829Y179999D01*
X545830Y179993D01*
X545831Y179993D01*
X545831Y179992D01*
X545991Y179672D01*
X545991Y179662D01*
X545994Y179646D01*
X545992Y179630D01*
X546029Y179499D01*
X546030Y179493D01*
X546031Y179493D01*
X546031Y179492D01*
X546131Y179292D01*
X546154Y179264D01*
X546202Y179194D01*
X546258Y179137D01*
X546291Y179072D01*
X546291Y179062D01*
X546294Y179046D01*
X546292Y179030D01*
X546329Y178899D01*
X546330Y178893D01*
X546331Y178893D01*
X546331Y178892D01*
X546431Y178692D01*
X546454Y178664D01*
X546502Y178594D01*
X546512Y178583D01*
X544567Y175989D01*
X544557Y175967D01*
X544540Y175948D01*
X544522Y175888D01*
X544497Y175831D01*
X544498Y175806D01*
X544491Y175782D01*
X544502Y175721D01*
X544505Y175658D01*
X544517Y175636D01*
X544522Y175612D01*
X544573Y175537D01*
X544589Y175507D01*
X544596Y175502D01*
X544602Y175494D01*
X546902Y173194D01*
X546916Y173185D01*
X546927Y173171D01*
X546989Y173139D01*
X547049Y173102D01*
X547066Y173101D01*
X547081Y173093D01*
X547152Y173093D01*
X547221Y173086D01*
X547237Y173092D01*
X547254Y173092D01*
X547372Y173144D01*
X547383Y173148D01*
X547384Y173149D01*
X547385Y173149D01*
X550084Y175011D01*
X550102Y174994D01*
X550167Y174953D01*
X550229Y174909D01*
X550241Y174907D01*
X550249Y174902D01*
X550284Y174899D01*
X550299Y174896D01*
X550302Y174894D01*
X550367Y174853D01*
X550429Y174809D01*
X550441Y174807D01*
X550449Y174802D01*
X550484Y174799D01*
X550570Y174782D01*
X550620Y174782D01*
X550667Y174753D01*
X550729Y174709D01*
X550741Y174707D01*
X550749Y174702D01*
X550784Y174699D01*
X550799Y174696D01*
X550802Y174694D01*
X550867Y174653D01*
X550929Y174609D01*
X550941Y174607D01*
X550949Y174602D01*
X550984Y174599D01*
X550999Y174596D01*
X551002Y174594D01*
X551067Y174553D01*
X551129Y174509D01*
X551141Y174507D01*
X551149Y174502D01*
X551184Y174499D01*
X551213Y174493D01*
X551240Y174460D01*
X551259Y174452D01*
X551274Y174437D01*
X551337Y174417D01*
X551398Y174389D01*
X551419Y174390D01*
X551438Y174384D01*
X551504Y174394D01*
X551571Y174396D01*
X551589Y174406D01*
X551609Y174409D01*
X551664Y174447D01*
X551723Y174479D01*
X551735Y174496D01*
X551751Y174508D01*
X551808Y174600D01*
X551822Y174621D01*
X551823Y174626D01*
X551826Y174630D01*
X553826Y180030D01*
X553830Y180061D01*
X553842Y180089D01*
X553840Y180145D01*
X553847Y180202D01*
X553837Y180231D01*
X553836Y180262D01*
X553809Y180312D01*
X553790Y180365D01*
X553768Y180387D01*
X553753Y180414D01*
X553693Y180460D01*
X553666Y180486D01*
X553653Y180490D01*
X553640Y180501D01*
X553095Y180773D01*
X552938Y180930D01*
X552908Y180949D01*
X552840Y181001D01*
X552695Y181073D01*
X552382Y181386D01*
X552309Y181531D01*
X552286Y181559D01*
X552238Y181630D01*
X552082Y181786D01*
X552021Y181907D01*
X551930Y182182D01*
X551918Y182201D01*
X551909Y182231D01*
X551849Y182351D01*
X551849Y182462D01*
X551841Y182497D01*
X551830Y182582D01*
X551749Y182823D01*
X551749Y183600D01*
X551830Y183842D01*
X551833Y183878D01*
X551849Y183962D01*
X551849Y184147D01*
X551986Y184351D01*
X551999Y184386D01*
X552030Y184442D01*
X552114Y184694D01*
X552465Y185220D01*
X552812Y185567D01*
X553338Y185918D01*
X553590Y186002D01*
X553608Y186013D01*
X553622Y186016D01*
X553635Y186027D01*
X553680Y186046D01*
X553885Y186182D01*
X554070Y186182D01*
X554105Y186191D01*
X554190Y186202D01*
X554432Y186282D01*
X555023Y186282D01*
X555378Y186194D01*
X555414Y186193D01*
X555470Y186182D01*
X555655Y186182D01*
X555860Y186046D01*
X555895Y186033D01*
X555944Y186005D01*
X555946Y186004D01*
X555947Y186004D01*
X555950Y186002D01*
X556202Y185918D01*
X556429Y185767D01*
X556602Y185594D01*
X556628Y185577D01*
X556660Y185546D01*
X556929Y185367D01*
X557075Y185220D01*
X557426Y184694D01*
X557791Y183600D01*
X557791Y183123D01*
X557710Y182882D01*
X557707Y182846D01*
X557691Y182762D01*
X557691Y182551D01*
X557531Y182231D01*
X557525Y182209D01*
X557510Y182182D01*
X557419Y181907D01*
X557258Y181586D01*
X557102Y181430D01*
X557083Y181399D01*
X557031Y181331D01*
X556958Y181186D01*
X556845Y181073D01*
X556700Y181001D01*
X556673Y180978D01*
X556602Y180930D01*
X556445Y180773D01*
X556124Y180613D01*
X555850Y180521D01*
X555801Y180491D01*
X555748Y180469D01*
X555728Y180447D01*
X555703Y180431D01*
X555672Y180382D01*
X555635Y180339D01*
X555627Y180310D01*
X555611Y180284D01*
X555605Y180227D01*
X555591Y180171D01*
X555597Y180137D01*
X555594Y180112D01*
X555606Y180080D01*
X555614Y180030D01*
X557614Y174630D01*
X557640Y174592D01*
X557656Y174549D01*
X557687Y174521D01*
X557710Y174486D01*
X557750Y174463D01*
X557783Y174432D01*
X557823Y174420D01*
X557860Y174399D01*
X557905Y174396D01*
X557949Y174383D01*
X557990Y174390D01*
X558032Y174388D01*
X558075Y174405D01*
X558120Y174413D01*
X558161Y174441D01*
X558192Y174454D01*
X558209Y174474D01*
X558222Y174482D01*
X558270Y174482D01*
X558344Y174500D01*
X558420Y174513D01*
X558429Y174520D01*
X558438Y174522D01*
X558466Y174545D01*
X558538Y174594D01*
X558545Y174600D01*
X558620Y174613D01*
X558629Y174620D01*
X558638Y174622D01*
X558666Y174645D01*
X558738Y174694D01*
X558745Y174700D01*
X558820Y174713D01*
X558829Y174720D01*
X558838Y174722D01*
X558866Y174745D01*
X558938Y174794D01*
X558945Y174800D01*
X559020Y174813D01*
X559029Y174820D01*
X559038Y174822D01*
X559066Y174845D01*
X559138Y174894D01*
X559145Y174900D01*
X559220Y174913D01*
X559229Y174920D01*
X559238Y174922D01*
X559266Y174945D01*
X559338Y174994D01*
X559345Y175000D01*
X559420Y175013D01*
X559429Y175020D01*
X559438Y175022D01*
X559439Y175022D01*
X562155Y173149D01*
X562175Y173142D01*
X562191Y173128D01*
X562254Y173110D01*
X562316Y173086D01*
X562337Y173088D01*
X562358Y173083D01*
X562422Y173096D01*
G37*
D10*
X615394Y789841D02*
X619122Y793569D01*
X626580Y793569D01*
X630308Y789841D01*
X630308Y774927D01*
X626580Y771198D01*
X619122Y771198D01*
X615394Y774927D01*
X615394Y782384D01*
X622851Y782384D01*
X606920Y793569D02*
X603192Y793569D01*
X603192Y771198D01*
X606920Y771198D02*
X599463Y771198D01*
X587600Y771198D02*
X580143Y771198D01*
X587600Y771198D02*
X591328Y774927D01*
X591328Y782384D01*
X587600Y786112D01*
X580143Y786112D01*
X576414Y782384D01*
X576414Y778655D01*
X591328Y778655D01*
X567940Y771198D02*
X567940Y786112D01*
X556755Y786112D01*
X553026Y782384D01*
X553026Y771198D01*
X521164Y771198D02*
X521164Y793569D01*
X521164Y771198D02*
X506250Y771198D01*
X494048Y786112D02*
X486591Y786112D01*
X482862Y782384D01*
X482862Y771198D01*
X494048Y771198D01*
X497776Y774927D01*
X494048Y778655D01*
X482862Y778655D01*
X474388Y771198D02*
X474388Y793569D01*
X474388Y778655D02*
X463203Y771198D01*
X474388Y778655D02*
X463203Y786112D01*
X451170Y771198D02*
X443713Y771198D01*
X451170Y771198D02*
X454898Y774927D01*
X454898Y782384D01*
X451170Y786112D01*
X443713Y786112D01*
X439984Y782384D01*
X439984Y778655D01*
X454898Y778655D01*
X396937Y771198D02*
X396937Y793569D01*
X408122Y782384D01*
X393208Y782384D01*
X381006Y789841D02*
X381006Y774927D01*
X377277Y771198D01*
X377277Y786112D02*
X384734Y786112D01*
X369142Y793569D02*
X369142Y771198D01*
X369142Y782384D02*
X365414Y786112D01*
X357957Y786112D01*
X354228Y782384D01*
X354228Y771198D01*
X311181Y793569D02*
X307452Y789841D01*
X311181Y793569D02*
X318638Y793569D01*
X322366Y789841D01*
X322366Y774927D01*
X318638Y771198D01*
X311181Y771198D01*
X307452Y774927D01*
X307452Y782384D01*
X314909Y782384D01*
X298978Y786112D02*
X298978Y771198D01*
X298978Y778655D02*
X291521Y786112D01*
X287793Y786112D01*
X275760Y786112D02*
X268303Y786112D01*
X264574Y782384D01*
X264574Y771198D01*
X275760Y771198D01*
X279489Y774927D01*
X275760Y778655D01*
X264574Y778655D01*
X241186Y771198D02*
X241186Y793569D01*
X241186Y771198D02*
X252372Y771198D01*
X256101Y774927D01*
X256101Y782384D01*
X252372Y786112D01*
X241186Y786112D01*
X228984Y771198D02*
X221527Y771198D01*
X228984Y771198D02*
X232713Y774927D01*
X232713Y782384D01*
X228984Y786112D01*
X221527Y786112D01*
X217799Y782384D01*
X217799Y778655D01*
X232713Y778655D01*
X628568Y735321D02*
X628568Y712950D01*
X613654Y712950D01*
X601452Y712950D02*
X593995Y712950D01*
X601452Y712950D02*
X605180Y716679D01*
X605180Y724136D01*
X601452Y727864D01*
X593995Y727864D01*
X590266Y724136D01*
X590266Y720407D01*
X605180Y720407D01*
X578064Y727864D02*
X570607Y727864D01*
X566878Y724136D01*
X566878Y712950D01*
X578064Y712950D01*
X581792Y716679D01*
X578064Y720407D01*
X566878Y720407D01*
X558404Y712950D02*
X558404Y727864D01*
X558404Y720407D02*
X550947Y727864D01*
X547219Y727864D01*
X538914Y727864D02*
X538914Y712950D01*
X538914Y727864D02*
X527729Y727864D01*
X524000Y724136D01*
X524000Y712950D01*
X484681Y712950D02*
X484681Y735321D01*
X492138Y735321D02*
X477224Y735321D01*
X465022Y712950D02*
X457565Y712950D01*
X453836Y716679D01*
X453836Y724136D01*
X457565Y727864D01*
X465022Y727864D01*
X468750Y724136D01*
X468750Y716679D01*
X465022Y712950D01*
X410789Y735321D02*
X407060Y731593D01*
X410789Y735321D02*
X418246Y735321D01*
X421974Y731593D01*
X421974Y727864D01*
X418246Y724136D01*
X410789Y724136D01*
X407060Y720407D01*
X407060Y716679D01*
X410789Y712950D01*
X418246Y712950D01*
X421974Y716679D01*
X394858Y712950D02*
X387401Y712950D01*
X383672Y716679D01*
X383672Y724136D01*
X387401Y727864D01*
X394858Y727864D01*
X398586Y724136D01*
X398586Y716679D01*
X394858Y712950D01*
X375198Y735321D02*
X371470Y735321D01*
X371470Y712950D01*
X375198Y712950D02*
X367741Y712950D01*
X344692Y712950D02*
X344692Y735321D01*
X344692Y712950D02*
X355878Y712950D01*
X359606Y716679D01*
X359606Y724136D01*
X355878Y727864D01*
X344692Y727864D01*
X332490Y712950D02*
X325033Y712950D01*
X332490Y712950D02*
X336218Y716679D01*
X336218Y724136D01*
X332490Y727864D01*
X325033Y727864D01*
X321304Y724136D01*
X321304Y720407D01*
X336218Y720407D01*
X312830Y712950D02*
X312830Y727864D01*
X312830Y720407D02*
X305373Y727864D01*
X301645Y727864D01*
X269953Y735321D02*
X269953Y712950D01*
X269953Y720407D02*
X255038Y735321D01*
X266224Y724136D02*
X255038Y712950D01*
X246565Y727864D02*
X242836Y727864D01*
X242836Y712950D01*
X239108Y712950D02*
X246565Y712950D01*
X242836Y735321D02*
X242836Y739050D01*
X227244Y731593D02*
X227244Y716679D01*
X223516Y712950D01*
X223516Y727864D02*
X230973Y727864D01*
X453916Y806634D02*
X468830Y806634D01*
X453916Y821548D01*
X453916Y825277D01*
X457644Y829005D01*
X465102Y829005D01*
X468830Y825277D01*
X445442Y825277D02*
X445442Y810363D01*
X445442Y825277D02*
X441714Y829005D01*
X434257Y829005D01*
X430528Y825277D01*
X430528Y810363D01*
X434257Y806634D01*
X441714Y806634D01*
X445442Y810363D01*
X430528Y825277D01*
X422054Y821548D02*
X414597Y829005D01*
X414597Y806634D01*
X422054Y806634D02*
X407140Y806634D01*
X398666Y825277D02*
X394938Y829005D01*
X387481Y829005D01*
X383752Y825277D01*
X383752Y821548D01*
X387481Y817820D01*
X383752Y814091D01*
X383752Y810363D01*
X387481Y806634D01*
X394938Y806634D01*
X398666Y810363D01*
X398666Y814091D01*
X394938Y817820D01*
X398666Y821548D01*
X398666Y825277D01*
X394938Y817820D02*
X387481Y817820D01*
D11*
X629066Y416992D02*
X629066Y405806D01*
X629066Y416992D02*
X621609Y416992D01*
X625338Y411399D02*
X629066Y411399D01*
X615508Y405806D02*
X611779Y405806D01*
X609915Y407670D01*
X609915Y411399D01*
X611779Y413263D01*
X615508Y413263D01*
X617372Y411399D01*
X617372Y407670D01*
X615508Y405806D01*
X605678Y405806D02*
X605678Y413263D01*
X605678Y409535D02*
X601950Y413263D01*
X600085Y413263D01*
X584239Y413263D02*
X584239Y405806D01*
X584239Y413263D02*
X582375Y413263D01*
X580511Y411399D01*
X580511Y405806D01*
X580511Y411399D02*
X578646Y413263D01*
X576782Y411399D01*
X576782Y405806D01*
X570681Y405806D02*
X566952Y405806D01*
X565088Y407670D01*
X565088Y411399D01*
X566952Y413263D01*
X570681Y413263D01*
X572545Y411399D01*
X572545Y407670D01*
X570681Y405806D01*
X560851Y405806D02*
X560851Y413263D01*
X560851Y409535D02*
X557123Y413263D01*
X555258Y413263D01*
X549242Y405806D02*
X545513Y405806D01*
X549242Y405806D02*
X551106Y407670D01*
X551106Y411399D01*
X549242Y413263D01*
X545513Y413263D01*
X543649Y411399D01*
X543649Y409535D01*
X551106Y409535D01*
X527718Y413263D02*
X525854Y413263D01*
X525854Y405806D01*
X527718Y405806D02*
X523990Y405806D01*
X525854Y416992D02*
X525854Y418856D01*
X519922Y413263D02*
X519922Y405806D01*
X519922Y413263D02*
X514330Y413263D01*
X512465Y411399D01*
X512465Y405806D01*
X506364Y405806D02*
X506364Y415127D01*
X504500Y416992D01*
X504500Y411399D02*
X508228Y411399D01*
X498568Y405806D02*
X494840Y405806D01*
X492975Y407670D01*
X492975Y411399D01*
X494840Y413263D01*
X498568Y413263D01*
X500432Y411399D01*
X500432Y407670D01*
X498568Y405806D01*
X488738Y405806D02*
X488738Y413263D01*
X488738Y409535D02*
X485010Y413263D01*
X483146Y413263D01*
X478993Y413263D02*
X478993Y405806D01*
X478993Y413263D02*
X477129Y413263D01*
X475265Y411399D01*
X475265Y405806D01*
X475265Y411399D02*
X473401Y413263D01*
X471536Y411399D01*
X471536Y405806D01*
X465435Y413263D02*
X461707Y413263D01*
X459842Y411399D01*
X459842Y405806D01*
X465435Y405806D01*
X467299Y407670D01*
X465435Y409535D01*
X459842Y409535D01*
X453741Y407670D02*
X453741Y415127D01*
X453741Y407670D02*
X451877Y405806D01*
X451877Y413263D02*
X455606Y413263D01*
X447810Y413263D02*
X445945Y413263D01*
X445945Y405806D01*
X444081Y405806D02*
X447810Y405806D01*
X445945Y416992D02*
X445945Y418856D01*
X438149Y405806D02*
X434421Y405806D01*
X432557Y407670D01*
X432557Y411399D01*
X434421Y413263D01*
X438149Y413263D01*
X440014Y411399D01*
X440014Y407670D01*
X438149Y405806D01*
X428320Y405806D02*
X428320Y413263D01*
X422727Y413263D01*
X420863Y411399D01*
X420863Y405806D01*
X401203Y402078D02*
X399339Y402078D01*
X397475Y403942D01*
X397475Y413263D01*
X403067Y413263D01*
X404932Y411399D01*
X404932Y407670D01*
X403067Y405806D01*
X397475Y405806D01*
X391373Y405806D02*
X387645Y405806D01*
X385781Y407670D01*
X385781Y411399D01*
X387645Y413263D01*
X391373Y413263D01*
X393238Y411399D01*
X393238Y407670D01*
X391373Y405806D01*
X367986Y407670D02*
X367986Y415127D01*
X367986Y407670D02*
X366121Y405806D01*
X366121Y413263D02*
X369850Y413263D01*
X360190Y405806D02*
X356461Y405806D01*
X354597Y407670D01*
X354597Y411399D01*
X356461Y413263D01*
X360190Y413263D01*
X362054Y411399D01*
X362054Y407670D01*
X360190Y405806D01*
X350360Y413263D02*
X348496Y413263D01*
X348496Y411399D01*
X350360Y411399D01*
X350360Y413263D01*
X350360Y407670D02*
X348496Y407670D01*
X348496Y405806D01*
X350360Y405806D01*
X350360Y407670D01*
X649971Y673572D02*
X649971Y684758D01*
X649971Y673572D02*
X644378Y673572D01*
X642514Y675436D01*
X642514Y682893D01*
X644378Y684758D01*
X649971Y684758D01*
X636413Y673572D02*
X632684Y673572D01*
X636413Y673572D02*
X638277Y675436D01*
X638277Y679165D01*
X636413Y681029D01*
X632684Y681029D01*
X630820Y679165D01*
X630820Y677301D01*
X638277Y677301D01*
X626583Y673572D02*
X620990Y673572D01*
X619126Y675436D01*
X620990Y677301D01*
X624719Y677301D01*
X626583Y679165D01*
X624719Y681029D01*
X619126Y681029D01*
X614889Y681029D02*
X613025Y681029D01*
X613025Y673572D01*
X614889Y673572D02*
X611161Y673572D01*
X613025Y684758D02*
X613025Y686622D01*
X607093Y681029D02*
X607093Y673572D01*
X607093Y681029D02*
X601500Y681029D01*
X599636Y679165D01*
X599636Y673572D01*
X591671Y669844D02*
X589806Y669844D01*
X587942Y671708D01*
X587942Y681029D01*
X593535Y681029D01*
X595399Y679165D01*
X595399Y675436D01*
X593535Y673572D01*
X587942Y673572D01*
X581841Y673572D02*
X578112Y673572D01*
X581841Y673572D02*
X583705Y675436D01*
X583705Y679165D01*
X581841Y681029D01*
X578112Y681029D01*
X576248Y679165D01*
X576248Y677301D01*
X583705Y677301D01*
X564554Y673572D02*
X564554Y684758D01*
X564554Y673572D02*
X570147Y673572D01*
X572011Y675436D01*
X572011Y679165D01*
X570147Y681029D01*
X564554Y681029D01*
X548623Y684758D02*
X548623Y673572D01*
X543030Y673572D01*
X541166Y675436D01*
X541166Y679165D01*
X543030Y681029D01*
X548623Y681029D01*
X536929Y681029D02*
X536929Y675436D01*
X535065Y673572D01*
X529472Y673572D01*
X529472Y671708D02*
X529472Y681029D01*
X529472Y671708D02*
X531336Y669844D01*
X533201Y669844D01*
X525235Y681029D02*
X523371Y681029D01*
X523371Y679165D01*
X525235Y679165D01*
X525235Y681029D01*
X525235Y675436D02*
X523371Y675436D01*
X523371Y673572D01*
X525235Y673572D01*
X525235Y675436D01*
X507694Y673572D02*
X507694Y684758D01*
X502102Y684758D01*
X500237Y682893D01*
X500237Y681029D01*
X502102Y679165D01*
X500237Y677301D01*
X500237Y675436D01*
X502102Y673572D01*
X507694Y673572D01*
X507694Y679165D02*
X502102Y679165D01*
X496000Y681029D02*
X496000Y673572D01*
X496000Y677301D02*
X492272Y681029D01*
X490408Y681029D01*
X486255Y681029D02*
X484391Y681029D01*
X484391Y673572D01*
X486255Y673572D02*
X482527Y673572D01*
X484391Y684758D02*
X484391Y686622D01*
X476595Y681029D02*
X472867Y681029D01*
X471002Y679165D01*
X471002Y673572D01*
X476595Y673572D01*
X478459Y675436D01*
X476595Y677301D01*
X471002Y677301D01*
X466765Y681029D02*
X466765Y673572D01*
X466765Y681029D02*
X461173Y681029D01*
X459308Y679165D01*
X459308Y673572D01*
X437785Y684758D02*
X435920Y682893D01*
X437785Y684758D02*
X441513Y684758D01*
X443378Y682893D01*
X443378Y681029D01*
X441513Y679165D01*
X437785Y679165D01*
X435920Y677301D01*
X435920Y675436D01*
X437785Y673572D01*
X441513Y673572D01*
X443378Y675436D01*
X429819Y681029D02*
X424227Y681029D01*
X429819Y681029D02*
X431684Y679165D01*
X431684Y675436D01*
X429819Y673572D01*
X424227Y673572D01*
X419990Y673572D02*
X419990Y684758D01*
X418125Y681029D02*
X419990Y679165D01*
X418125Y681029D02*
X414397Y681029D01*
X412533Y679165D01*
X412533Y673572D01*
X408296Y673572D02*
X408296Y681029D01*
X406431Y681029D01*
X404567Y679165D01*
X404567Y673572D01*
X404567Y679165D02*
X402703Y681029D01*
X400839Y679165D01*
X400839Y673572D01*
X394737Y681029D02*
X391009Y681029D01*
X389145Y679165D01*
X389145Y673572D01*
X394737Y673572D01*
X396602Y675436D01*
X394737Y677301D01*
X389145Y677301D01*
X384908Y684758D02*
X383043Y684758D01*
X383043Y673572D01*
X381179Y673572D02*
X384908Y673572D01*
X377112Y681029D02*
X369655Y681029D01*
X377112Y673572D01*
X369655Y673572D01*
X622685Y665708D02*
X622685Y654522D01*
X617092Y654522D01*
X615228Y656386D01*
X615228Y660115D01*
X617092Y661979D01*
X622685Y661979D01*
X610991Y661979D02*
X610991Y654522D01*
X610991Y658251D02*
X607262Y661979D01*
X605398Y661979D01*
X601246Y661979D02*
X599382Y661979D01*
X599382Y654522D01*
X601246Y654522D02*
X597518Y654522D01*
X599382Y665708D02*
X599382Y667572D01*
X591586Y661979D02*
X587857Y661979D01*
X585993Y660115D01*
X585993Y654522D01*
X591586Y654522D01*
X593450Y656386D01*
X591586Y658251D01*
X585993Y658251D01*
X581756Y661979D02*
X581756Y654522D01*
X581756Y661979D02*
X576163Y661979D01*
X574299Y660115D01*
X574299Y654522D01*
X564469Y654522D02*
X562605Y656386D01*
X564469Y654522D02*
X568198Y654522D01*
X570062Y656386D01*
X570062Y663843D01*
X568198Y665708D01*
X564469Y665708D01*
X562605Y663843D01*
X562605Y660115D01*
X564469Y658251D01*
X568198Y658251D01*
X568198Y661979D01*
X564469Y661979D01*
X564469Y658251D01*
X558368Y654522D02*
X552775Y654522D01*
X550911Y656386D01*
X552775Y658251D01*
X556504Y658251D01*
X558368Y660115D01*
X556504Y661979D01*
X550911Y661979D01*
X544810Y661979D02*
X539217Y661979D01*
X544810Y661979D02*
X546674Y660115D01*
X546674Y656386D01*
X544810Y654522D01*
X539217Y654522D01*
X534980Y654522D02*
X534980Y665708D01*
X533116Y661979D02*
X534980Y660115D01*
X533116Y661979D02*
X529387Y661979D01*
X527523Y660115D01*
X527523Y654522D01*
X523286Y654522D02*
X523286Y661979D01*
X521422Y661979D01*
X519558Y660115D01*
X519558Y654522D01*
X519558Y660115D02*
X517693Y661979D01*
X515829Y660115D01*
X515829Y654522D01*
X509728Y661979D02*
X506000Y661979D01*
X504135Y660115D01*
X504135Y654522D01*
X509728Y654522D01*
X511592Y656386D01*
X509728Y658251D01*
X504135Y658251D01*
X499898Y665708D02*
X498034Y665708D01*
X498034Y654522D01*
X499898Y654522D02*
X496170Y654522D01*
X492102Y661979D02*
X484645Y661979D01*
X492102Y654522D01*
X484645Y654522D01*
X480408Y654522D02*
X480408Y665708D01*
X478544Y661979D02*
X480408Y660115D01*
X478544Y661979D02*
X474816Y661979D01*
X472951Y660115D01*
X472951Y654522D01*
X466850Y661979D02*
X463122Y661979D01*
X461257Y660115D01*
X461257Y654522D01*
X466850Y654522D01*
X468714Y656386D01*
X466850Y658251D01*
X461257Y658251D01*
X457020Y656386D02*
X457020Y661979D01*
X457020Y656386D02*
X455156Y654522D01*
X449563Y654522D01*
X449563Y661979D01*
X445326Y654522D02*
X439734Y654522D01*
X437869Y656386D01*
X439734Y658251D01*
X443462Y658251D01*
X445326Y660115D01*
X443462Y661979D01*
X437869Y661979D01*
X433632Y656386D02*
X433632Y654522D01*
X433632Y656386D02*
X431768Y656386D01*
X431768Y654522D01*
X433632Y654522D01*
X425921Y661979D02*
X420328Y661979D01*
X425921Y661979D02*
X427786Y660115D01*
X427786Y656386D01*
X425921Y654522D01*
X420328Y654522D01*
X414227Y654522D02*
X410499Y654522D01*
X408635Y656386D01*
X408635Y660115D01*
X410499Y661979D01*
X414227Y661979D01*
X416092Y660115D01*
X416092Y656386D01*
X414227Y654522D01*
X404398Y654522D02*
X404398Y661979D01*
X402533Y661979D01*
X400669Y660115D01*
X400669Y654522D01*
X400669Y660115D02*
X398805Y661979D01*
X396941Y660115D01*
X396941Y654522D01*
X436785Y166432D02*
X434921Y164567D01*
X436785Y166432D02*
X440514Y166432D01*
X442378Y164567D01*
X442378Y162703D01*
X440514Y160839D01*
X436785Y160839D01*
X434921Y158975D01*
X434921Y157110D01*
X436785Y155246D01*
X440514Y155246D01*
X442378Y157110D01*
X428820Y162703D02*
X423227Y162703D01*
X428820Y162703D02*
X430684Y160839D01*
X430684Y157110D01*
X428820Y155246D01*
X423227Y155246D01*
X418990Y155246D02*
X418990Y166432D01*
X417126Y162703D02*
X418990Y160839D01*
X417126Y162703D02*
X413397Y162703D01*
X411533Y160839D01*
X411533Y155246D01*
X407296Y155246D02*
X407296Y162703D01*
X405432Y162703D01*
X403568Y160839D01*
X403568Y155246D01*
X403568Y160839D02*
X401703Y162703D01*
X399839Y160839D01*
X399839Y155246D01*
X393738Y162703D02*
X390009Y162703D01*
X388145Y160839D01*
X388145Y155246D01*
X393738Y155246D01*
X395602Y157110D01*
X393738Y158975D01*
X388145Y158975D01*
X383908Y166432D02*
X382044Y166432D01*
X382044Y155246D01*
X383908Y155246D02*
X380180Y155246D01*
X376112Y162703D02*
X368655Y162703D01*
X376112Y155246D01*
X368655Y155246D01*
X364418Y155246D02*
X364418Y166432D01*
X364418Y160839D02*
X356961Y160839D01*
X356961Y166432D02*
X356961Y155246D01*
X350860Y162703D02*
X347132Y162703D01*
X345267Y160839D01*
X345267Y155246D01*
X350860Y155246D01*
X352724Y157110D01*
X350860Y158975D01*
X345267Y158975D01*
X341030Y157110D02*
X341030Y162703D01*
X341030Y157110D02*
X339166Y155246D01*
X333573Y155246D01*
X333573Y162703D01*
X329336Y155246D02*
X323744Y155246D01*
X321879Y157110D01*
X323744Y158975D01*
X327472Y158975D01*
X329336Y160839D01*
X327472Y162703D01*
X321879Y162703D01*
X305948Y166432D02*
X305948Y155246D01*
X298491Y155246D01*
X294254Y155246D02*
X294254Y166432D01*
X294254Y155246D02*
X286797Y155246D01*
X276968Y166432D02*
X275103Y164567D01*
X276968Y166432D02*
X280696Y166432D01*
X282560Y164567D01*
X282560Y157110D01*
X280696Y155246D01*
X276968Y155246D01*
X275103Y157110D01*
X853111Y323869D02*
X860568Y323869D01*
X848874Y329462D02*
X848874Y318276D01*
X841417Y318276D01*
X837180Y329462D02*
X829723Y329462D01*
X837180Y329462D02*
X837180Y318276D01*
X829723Y318276D01*
X833452Y323869D02*
X837180Y323869D01*
X825486Y329462D02*
X825486Y318276D01*
X819893Y318276D01*
X818029Y320140D01*
X818029Y327597D01*
X819893Y329462D01*
X825486Y329462D01*
X813792Y318276D02*
X808199Y318276D01*
X806335Y320140D01*
X808199Y322005D01*
X811928Y322005D01*
X813792Y323869D01*
X811928Y325733D01*
X806335Y325733D01*
X802098Y325733D02*
X800234Y325733D01*
X800234Y323869D01*
X802098Y323869D01*
X802098Y325733D01*
X802098Y320140D02*
X800234Y320140D01*
X800234Y318276D01*
X802098Y318276D01*
X802098Y320140D01*
X784557Y318276D02*
X784557Y329462D01*
X784557Y318276D02*
X777100Y318276D01*
X770999Y318276D02*
X767271Y318276D01*
X765406Y320140D01*
X765406Y323869D01*
X767271Y325733D01*
X770999Y325733D01*
X772863Y323869D01*
X772863Y320140D01*
X770999Y318276D01*
X761169Y318276D02*
X761169Y325733D01*
X755577Y325733D01*
X753712Y323869D01*
X753712Y318276D01*
X745747Y314548D02*
X743883Y314548D01*
X742018Y316412D01*
X742018Y325733D01*
X747611Y325733D01*
X749475Y323869D01*
X749475Y320140D01*
X747611Y318276D01*
X742018Y318276D01*
X726087Y320140D02*
X726087Y325733D01*
X726087Y320140D02*
X724223Y318276D01*
X722359Y320140D01*
X720495Y318276D01*
X718630Y320140D01*
X718630Y325733D01*
X714393Y325733D02*
X712529Y325733D01*
X712529Y318276D01*
X714393Y318276D02*
X710665Y318276D01*
X712529Y329462D02*
X712529Y331326D01*
X706597Y325733D02*
X706597Y318276D01*
X706597Y322005D02*
X702869Y325733D01*
X701005Y325733D01*
X694988Y318276D02*
X691260Y318276D01*
X694988Y318276D02*
X696852Y320140D01*
X696852Y323869D01*
X694988Y325733D01*
X691260Y325733D01*
X689395Y323869D01*
X689395Y322005D01*
X696852Y322005D01*
X669736Y314548D02*
X667872Y314548D01*
X666008Y316412D01*
X666008Y325733D01*
X671600Y325733D01*
X673465Y323869D01*
X673465Y320140D01*
X671600Y318276D01*
X666008Y318276D01*
X659906Y318276D02*
X656178Y318276D01*
X654314Y320140D01*
X654314Y323869D01*
X656178Y325733D01*
X659906Y325733D01*
X661771Y323869D01*
X661771Y320140D01*
X659906Y318276D01*
X648212Y318276D02*
X644484Y318276D01*
X648212Y318276D02*
X650077Y320140D01*
X650077Y323869D01*
X648212Y325733D01*
X644484Y325733D01*
X642620Y323869D01*
X642620Y322005D01*
X650077Y322005D01*
X638383Y318276D02*
X632790Y318276D01*
X630926Y320140D01*
X632790Y322005D01*
X636518Y322005D01*
X638383Y323869D01*
X636518Y325733D01*
X630926Y325733D01*
X614995Y325733D02*
X613130Y325733D01*
X613130Y318276D01*
X611266Y318276D02*
X614995Y318276D01*
X613130Y329462D02*
X613130Y331326D01*
X607199Y325733D02*
X607199Y318276D01*
X607199Y325733D02*
X601606Y325733D01*
X599742Y323869D01*
X599742Y318276D01*
X583811Y318276D02*
X578218Y318276D01*
X576354Y320140D01*
X578218Y322005D01*
X581947Y322005D01*
X583811Y323869D01*
X581947Y325733D01*
X576354Y325733D01*
X564660Y325733D02*
X564660Y314548D01*
X564660Y325733D02*
X570253Y325733D01*
X572117Y323869D01*
X572117Y320140D01*
X570253Y318276D01*
X564660Y318276D01*
X560423Y320140D02*
X560423Y325733D01*
X560423Y320140D02*
X558559Y318276D01*
X552966Y318276D01*
X552966Y325733D01*
X546865Y325733D02*
X543136Y325733D01*
X541272Y323869D01*
X541272Y318276D01*
X546865Y318276D01*
X548729Y320140D01*
X546865Y322005D01*
X541272Y322005D01*
X537035Y325733D02*
X537035Y318276D01*
X537035Y322005D02*
X533306Y325733D01*
X531442Y325733D01*
X525426Y318276D02*
X521697Y318276D01*
X525426Y318276D02*
X527290Y320140D01*
X527290Y323869D01*
X525426Y325733D01*
X521697Y325733D01*
X519833Y323869D01*
X519833Y322005D01*
X527290Y322005D01*
X503902Y318276D02*
X503902Y329462D01*
X502038Y325733D02*
X503902Y323869D01*
X502038Y325733D02*
X498309Y325733D01*
X496445Y323869D01*
X496445Y318276D01*
X490344Y318276D02*
X486615Y318276D01*
X484751Y320140D01*
X484751Y323869D01*
X486615Y325733D01*
X490344Y325733D01*
X492208Y323869D01*
X492208Y320140D01*
X490344Y318276D01*
X480514Y329462D02*
X478650Y329462D01*
X478650Y318276D01*
X480514Y318276D02*
X476786Y318276D01*
X470854Y318276D02*
X467125Y318276D01*
X470854Y318276D02*
X472718Y320140D01*
X472718Y323869D01*
X470854Y325733D01*
X467125Y325733D01*
X465261Y323869D01*
X465261Y322005D01*
X472718Y322005D01*
X753130Y385414D02*
X753130Y396600D01*
X751266Y392871D02*
X753130Y391007D01*
X751266Y392871D02*
X747537Y392871D01*
X745673Y391007D01*
X745673Y385414D01*
X739572Y387278D02*
X739572Y394735D01*
X739572Y387278D02*
X737708Y385414D01*
X737708Y392871D02*
X741436Y392871D01*
X731776Y394735D02*
X731776Y387278D01*
X729912Y385414D01*
X729912Y392871D02*
X733640Y392871D01*
X725844Y392871D02*
X725844Y381686D01*
X725844Y392871D02*
X720251Y392871D01*
X718387Y391007D01*
X718387Y387278D01*
X720251Y385414D01*
X725844Y385414D01*
X714150Y385414D02*
X708557Y385414D01*
X706693Y387278D01*
X708557Y389143D01*
X712286Y389143D01*
X714150Y391007D01*
X712286Y392871D01*
X706693Y392871D01*
X702456Y392871D02*
X700592Y392871D01*
X700592Y391007D01*
X702456Y391007D01*
X702456Y392871D01*
X702456Y387278D02*
X700592Y387278D01*
X700592Y385414D01*
X702456Y385414D01*
X702456Y387278D01*
X696609Y385414D02*
X689152Y396600D01*
X677458Y396600D02*
X684915Y385414D01*
X669493Y381686D02*
X667629Y381686D01*
X665764Y383550D01*
X665764Y392871D01*
X671357Y392871D01*
X673221Y391007D01*
X673221Y387278D01*
X671357Y385414D01*
X665764Y385414D01*
X661527Y392871D02*
X659663Y392871D01*
X659663Y385414D01*
X661527Y385414D02*
X657799Y385414D01*
X659663Y396600D02*
X659663Y398464D01*
X651867Y394735D02*
X651867Y387278D01*
X650003Y385414D01*
X650003Y392871D02*
X653731Y392871D01*
X645935Y396600D02*
X645935Y385414D01*
X645935Y391007D02*
X644071Y392871D01*
X640343Y392871D01*
X638478Y391007D01*
X638478Y385414D01*
X634241Y387278D02*
X634241Y392871D01*
X634241Y387278D02*
X632377Y385414D01*
X626784Y385414D01*
X626784Y392871D01*
X622547Y396600D02*
X622547Y385414D01*
X616955Y385414D01*
X615090Y387278D01*
X615090Y391007D01*
X616955Y392871D01*
X622547Y392871D01*
X610853Y387278D02*
X610853Y385414D01*
X610853Y387278D02*
X608989Y387278D01*
X608989Y385414D01*
X610853Y385414D01*
X603142Y392871D02*
X597549Y392871D01*
X603142Y392871D02*
X605006Y391007D01*
X605006Y387278D01*
X603142Y385414D01*
X597549Y385414D01*
X591448Y385414D02*
X587720Y385414D01*
X585855Y387278D01*
X585855Y391007D01*
X587720Y392871D01*
X591448Y392871D01*
X593313Y391007D01*
X593313Y387278D01*
X591448Y385414D01*
X581619Y385414D02*
X581619Y392871D01*
X579754Y392871D01*
X577890Y391007D01*
X577890Y385414D01*
X577890Y391007D02*
X576026Y392871D01*
X574162Y391007D01*
X574162Y385414D01*
X569925Y385414D02*
X562468Y396600D01*
X552638Y396600D02*
X550774Y394735D01*
X552638Y396600D02*
X556366Y396600D01*
X558231Y394735D01*
X558231Y392871D01*
X556366Y391007D01*
X552638Y391007D01*
X550774Y389143D01*
X550774Y387278D01*
X552638Y385414D01*
X556366Y385414D01*
X558231Y387278D01*
X544672Y392871D02*
X539080Y392871D01*
X544672Y392871D02*
X546537Y391007D01*
X546537Y387278D01*
X544672Y385414D01*
X539080Y385414D01*
X534843Y385414D02*
X534843Y396600D01*
X532978Y392871D02*
X534843Y391007D01*
X532978Y392871D02*
X529250Y392871D01*
X527386Y391007D01*
X527386Y385414D01*
X523149Y385414D02*
X523149Y392871D01*
X521284Y392871D01*
X519420Y391007D01*
X519420Y385414D01*
X519420Y391007D02*
X517556Y392871D01*
X515692Y391007D01*
X515692Y385414D01*
X509590Y392871D02*
X505862Y392871D01*
X503998Y391007D01*
X503998Y385414D01*
X509590Y385414D01*
X511455Y387278D01*
X509590Y389143D01*
X503998Y389143D01*
X499761Y396600D02*
X497897Y396600D01*
X497897Y385414D01*
X499761Y385414D02*
X496032Y385414D01*
X491965Y392871D02*
X484508Y392871D01*
X491965Y385414D01*
X484508Y385414D01*
X480271Y385414D02*
X480271Y396600D01*
X480271Y391007D02*
X472814Y391007D01*
X472814Y396600D02*
X472814Y385414D01*
X466713Y392871D02*
X462984Y392871D01*
X461120Y391007D01*
X461120Y385414D01*
X466713Y385414D01*
X468577Y387278D01*
X466713Y389143D01*
X461120Y389143D01*
X456883Y387278D02*
X456883Y392871D01*
X456883Y387278D02*
X455019Y385414D01*
X449426Y385414D01*
X449426Y392871D01*
X445189Y385414D02*
X439596Y385414D01*
X437732Y387278D01*
X439596Y389143D01*
X443325Y389143D01*
X445189Y391007D01*
X443325Y392871D01*
X437732Y392871D01*
X433495Y385414D02*
X426038Y396600D01*
X421801Y396600D02*
X421801Y385414D01*
X414344Y385414D01*
X408243Y385414D02*
X404514Y385414D01*
X408243Y385414D02*
X410107Y387278D01*
X410107Y391007D01*
X408243Y392871D01*
X404514Y392871D01*
X402650Y391007D01*
X402650Y389143D01*
X410107Y389143D01*
X396549Y392871D02*
X392820Y392871D01*
X390956Y391007D01*
X390956Y385414D01*
X396549Y385414D01*
X398413Y387278D01*
X396549Y389143D01*
X390956Y389143D01*
X386719Y392871D02*
X386719Y385414D01*
X386719Y389143D02*
X382991Y392871D01*
X381126Y392871D01*
X376974Y392871D02*
X376974Y385414D01*
X376974Y392871D02*
X371381Y392871D01*
X369517Y391007D01*
X369517Y385414D01*
X361552Y385414D02*
X361552Y396600D01*
X365280Y396600D02*
X357823Y396600D01*
X351722Y385414D02*
X347993Y385414D01*
X346129Y387278D01*
X346129Y391007D01*
X347993Y392871D01*
X351722Y392871D01*
X353586Y391007D01*
X353586Y387278D01*
X351722Y385414D01*
X336299Y396600D02*
X334435Y394735D01*
X336299Y396600D02*
X340028Y396600D01*
X341892Y394735D01*
X341892Y392871D01*
X340028Y391007D01*
X336299Y391007D01*
X334435Y389143D01*
X334435Y387278D01*
X336299Y385414D01*
X340028Y385414D01*
X341892Y387278D01*
X328334Y385414D02*
X324605Y385414D01*
X322741Y387278D01*
X322741Y391007D01*
X324605Y392871D01*
X328334Y392871D01*
X330198Y391007D01*
X330198Y387278D01*
X328334Y385414D01*
X318504Y396600D02*
X316640Y396600D01*
X316640Y385414D01*
X318504Y385414D02*
X314776Y385414D01*
X303251Y385414D02*
X303251Y396600D01*
X303251Y385414D02*
X308844Y385414D01*
X310708Y387278D01*
X310708Y391007D01*
X308844Y392871D01*
X303251Y392871D01*
X297150Y385414D02*
X293422Y385414D01*
X297150Y385414D02*
X299014Y387278D01*
X299014Y391007D01*
X297150Y392871D01*
X293422Y392871D01*
X291557Y391007D01*
X291557Y389143D01*
X299014Y389143D01*
X287320Y392871D02*
X287320Y385414D01*
X287320Y389143D02*
X283592Y392871D01*
X281728Y392871D01*
X277575Y385414D02*
X270118Y385414D01*
X277575Y385414D02*
X270118Y392871D01*
X270118Y394735D01*
X271983Y396600D01*
X275711Y396600D01*
X277575Y394735D01*
X265881Y394735D02*
X265881Y387278D01*
X265881Y394735D02*
X264017Y396600D01*
X260289Y396600D01*
X258424Y394735D01*
X258424Y387278D01*
X260289Y385414D01*
X264017Y385414D01*
X265881Y387278D01*
X258424Y394735D01*
X254187Y392871D02*
X250459Y396600D01*
X250459Y385414D01*
X254187Y385414D02*
X246730Y385414D01*
X242493Y394735D02*
X240629Y396600D01*
X236901Y396600D01*
X235036Y394735D01*
X235036Y392871D01*
X236901Y391007D01*
X235036Y389143D01*
X235036Y387278D01*
X236901Y385414D01*
X240629Y385414D01*
X242493Y387278D01*
X242493Y389143D01*
X240629Y391007D01*
X242493Y392871D01*
X242493Y394735D01*
X240629Y391007D02*
X236901Y391007D01*
D12*
X482854Y195326D02*
X486410Y167640D01*
X494030Y135890D01*
X502920Y111760D01*
X509270Y95250D01*
X518160Y72390D01*
X525780Y54610D01*
X537210Y36830D01*
X547370Y24130D01*
X557530Y16510D01*
X568960Y10160D01*
X577850Y6350D01*
X582930Y5080D01*
X586740Y4572D01*
X594106Y4572D01*
X601472Y5334D01*
X607060Y6604D01*
X612140Y8382D01*
X619760Y11176D01*
X622808Y12954D01*
X624586Y13970D01*
X625094Y14478D01*
X627380Y15748D01*
X629666Y17272D01*
X633222Y20066D01*
X643128Y29972D01*
X647700Y36068D01*
X648970Y38100D01*
X650240Y40386D01*
X651510Y44196D01*
X652780Y50292D01*
X654304Y58166D01*
X654812Y64262D01*
X654812Y69850D01*
X654558Y78486D01*
X653796Y85090D01*
X652526Y94742D01*
X651510Y101600D01*
X651002Y105156D01*
X650240Y109220D01*
X649224Y112014D01*
X648208Y115824D01*
X646938Y123444D01*
X645922Y128270D01*
X645160Y130302D01*
X643890Y136144D01*
X642620Y141732D01*
X640334Y148844D01*
X638048Y155194D01*
X635000Y163830D01*
X633476Y170434D01*
X633222Y173482D01*
X630936Y181102D01*
X628904Y186182D01*
X626872Y192024D01*
X626842Y192140D01*
X626816Y192256D01*
X626794Y192374D01*
X626776Y192492D01*
X626762Y192611D01*
X626752Y192730D01*
X626746Y192849D01*
X626743Y192969D01*
X626744Y193088D01*
X626750Y193208D01*
X626759Y193327D01*
X626772Y193446D01*
X626789Y193564D01*
X626810Y193682D01*
X626835Y193799D01*
X626863Y193915D01*
X626896Y194030D01*
X626932Y194144D01*
X626971Y194256D01*
X627015Y194368D01*
X627062Y194478D01*
X627113Y194586D01*
X627167Y194693D01*
X627224Y194797D01*
X627285Y194900D01*
X627350Y195001D01*
X627417Y195099D01*
X627488Y195196D01*
X627562Y195290D01*
X627639Y195381D01*
X627719Y195470D01*
X627801Y195556D01*
X627887Y195640D01*
X627975Y195721D01*
X628066Y195798D01*
X628159Y195873D01*
X628255Y195945D01*
X628353Y196013D01*
X628453Y196078D01*
X628555Y196140D01*
X628660Y196199D01*
X628766Y196254D01*
X628874Y196306D01*
X628983Y196354D01*
X629094Y196398D01*
X629206Y196439D01*
X629320Y196476D01*
X629435Y196509D01*
X629551Y196539D01*
X629667Y196565D01*
X629785Y196587D01*
X629903Y196605D01*
X630022Y196619D01*
X630141Y196629D01*
X630260Y196635D01*
X630380Y196638D01*
X630499Y196637D01*
X630619Y196631D01*
X630738Y196622D01*
X630857Y196609D01*
X630975Y196592D01*
X631093Y196571D01*
X631210Y196546D01*
X631326Y196518D01*
X631441Y196485D01*
X631555Y196449D01*
X631667Y196410D01*
X631779Y196366D01*
X631889Y196319D01*
X631997Y196268D01*
X632104Y196214D01*
X632208Y196157D01*
X632311Y196096D01*
X632412Y196031D01*
X632510Y195964D01*
X632607Y195893D01*
X632701Y195819D01*
X632792Y195742D01*
X632881Y195662D01*
X632967Y195580D01*
X632968Y195580D02*
X633984Y194564D01*
X640080Y188214D01*
X647192Y179324D01*
X654558Y171958D01*
X664210Y161544D01*
X676656Y148844D01*
X689102Y137160D01*
X700278Y126492D01*
X708914Y118618D01*
X718058Y110998D01*
X726440Y104394D01*
X735838Y97790D01*
X746252Y91694D01*
X758952Y86360D01*
X769112Y82042D01*
X782574Y77724D01*
X790194Y76200D01*
X801116Y75946D01*
X812038Y76200D01*
X820420Y77724D01*
X828294Y80518D01*
X834898Y84582D01*
X842010Y90170D01*
X846328Y95504D01*
X848614Y101346D01*
X851662Y109474D01*
X853948Y116840D01*
X855726Y125730D01*
X857250Y134112D01*
X858266Y140970D01*
X857504Y147574D01*
X855472Y155194D01*
X854202Y160020D01*
X854186Y160149D01*
X854174Y160279D01*
X854165Y160409D01*
X854161Y160538D01*
X854160Y160668D01*
X854164Y160798D01*
X854171Y160928D01*
X854182Y161058D01*
X854198Y161187D01*
X854217Y161315D01*
X854240Y161443D01*
X854267Y161571D01*
X854298Y161697D01*
X854332Y161822D01*
X854371Y161946D01*
X854413Y162069D01*
X854459Y162191D01*
X854508Y162311D01*
X854561Y162430D01*
X854618Y162547D01*
X854678Y162662D01*
X854742Y162775D01*
X854809Y162887D01*
X854879Y162996D01*
X854953Y163103D01*
X855030Y163208D01*
X855110Y163310D01*
X855193Y163410D01*
X855280Y163507D01*
X855369Y163602D01*
X855461Y163694D01*
X855555Y163783D01*
X855653Y163869D01*
X855752Y163952D01*
X855855Y164033D01*
X855960Y164110D01*
X856067Y164183D01*
X856176Y164254D01*
X856287Y164321D01*
X856401Y164385D01*
X856516Y164445D01*
X856633Y164502D01*
X856751Y164555D01*
X856872Y164604D01*
X856993Y164650D01*
X857116Y164692D01*
X857240Y164731D01*
X857366Y164765D01*
X857492Y164796D01*
X857619Y164823D01*
X857747Y164846D01*
X857876Y164865D01*
X858005Y164881D01*
X858134Y164892D01*
X858264Y164899D01*
X858394Y164903D01*
X858524Y164902D01*
X858654Y164898D01*
X858784Y164889D01*
X858913Y164877D01*
X859042Y164861D01*
X859170Y164841D01*
X859298Y164817D01*
X859425Y164789D01*
X859551Y164757D01*
X859676Y164722D01*
X859800Y164682D01*
X859923Y164639D01*
X860044Y164592D01*
X861060Y164338D01*
X876300Y158750D01*
X890524Y154686D01*
X905002Y150622D01*
X911860Y149606D01*
X918972Y149098D01*
X924052Y149606D01*
X931418Y150622D01*
X939546Y153670D01*
X946150Y155956D01*
X951484Y160020D01*
X959104Y165608D01*
X967486Y173736D01*
X972566Y179578D01*
X976884Y189484D01*
X980186Y200406D01*
X981202Y212852D01*
X979424Y226822D01*
X977138Y237236D01*
X974852Y242824D01*
X970280Y248666D01*
X965708Y251968D01*
X958596Y255778D01*
X948944Y261112D01*
X940816Y265430D01*
X938784Y266446D01*
X938785Y266446D02*
X938708Y266493D01*
X938633Y266542D01*
X938561Y266595D01*
X938491Y266651D01*
X938424Y266710D01*
X938359Y266772D01*
X938297Y266837D01*
X938238Y266904D01*
X938182Y266974D01*
X938129Y267046D01*
X938080Y267121D01*
X938033Y267198D01*
X937990Y267276D01*
X937950Y267356D01*
X937914Y267438D01*
X937882Y267522D01*
X937853Y267607D01*
X937828Y267693D01*
X937807Y267780D01*
X937789Y267868D01*
X937776Y267956D01*
X937766Y268045D01*
X937760Y268134D01*
X937758Y268224D01*
X937760Y268314D01*
X937766Y268403D01*
X937776Y268492D01*
X937789Y268580D01*
X937807Y268668D01*
X937828Y268755D01*
X937853Y268841D01*
X937882Y268926D01*
X937914Y269010D01*
X937950Y269092D01*
X937990Y269172D01*
X938033Y269251D01*
X938080Y269327D01*
X938129Y269402D01*
X938182Y269474D01*
X938238Y269544D01*
X938297Y269611D01*
X938359Y269676D01*
X938424Y269738D01*
X938491Y269797D01*
X938561Y269853D01*
X938633Y269906D01*
X938708Y269955D01*
X938785Y270002D01*
X938784Y270002D02*
X942340Y271018D01*
X949198Y272796D01*
X953770Y274574D01*
X955802Y275844D01*
X961136Y279146D01*
X968248Y284226D01*
X970280Y286766D01*
X973836Y291846D01*
X976122Y295148D01*
X978154Y298196D01*
X979170Y300736D01*
X981202Y305054D01*
X983488Y309880D01*
X985012Y314452D01*
X986282Y319532D01*
X986790Y323850D01*
X987044Y328676D01*
X986536Y335534D01*
X985774Y344424D01*
X984758Y347218D01*
X982980Y355092D01*
X979932Y363982D01*
X978154Y368046D01*
X975614Y371348D01*
X967232Y379222D01*
X957834Y385318D01*
X949960Y389636D01*
X942340Y392938D01*
X933196Y395732D01*
X922020Y398526D01*
X912114Y400050D01*
X884174Y403860D01*
X853186Y406654D01*
X831342Y408178D01*
X820420Y410210D01*
X808990Y409956D01*
X786130Y409956D01*
X739394Y417576D01*
X714248Y421132D01*
X707136Y422910D01*
X703072Y423164D01*
X702976Y423144D01*
X702878Y423127D01*
X702780Y423115D01*
X702682Y423106D01*
X702583Y423101D01*
X702484Y423100D01*
X702386Y423103D01*
X702287Y423110D01*
X702189Y423120D01*
X702091Y423135D01*
X701994Y423153D01*
X701898Y423175D01*
X701802Y423201D01*
X701708Y423230D01*
X701615Y423263D01*
X701523Y423300D01*
X701433Y423340D01*
X701344Y423384D01*
X701257Y423431D01*
X701172Y423481D01*
X701089Y423535D01*
X701009Y423592D01*
X700930Y423652D01*
X700854Y423716D01*
X700781Y423782D01*
X700710Y423850D01*
X700642Y423922D01*
X700577Y423996D01*
X700514Y424073D01*
X700455Y424152D01*
X700399Y424233D01*
X700346Y424317D01*
X700296Y424402D01*
X700250Y424490D01*
X700207Y424579D01*
X700168Y424669D01*
X700132Y424761D01*
X700100Y424855D01*
X700072Y424950D01*
X700047Y425045D01*
X700026Y425142D01*
X700009Y425239D01*
X699996Y425337D01*
X699986Y425435D01*
X699981Y425534D01*
X699979Y425633D01*
X699981Y425732D01*
X699987Y425830D01*
X699997Y425929D01*
X700010Y426026D01*
X700028Y426124D01*
X700049Y426220D01*
X700074Y426316D01*
X700103Y426410D01*
X700135Y426504D01*
X700171Y426596D01*
X700211Y426686D01*
X700254Y426775D01*
X700300Y426862D01*
X700350Y426948D01*
X700403Y427031D01*
X700460Y427112D01*
X700519Y427191D01*
X700582Y427268D01*
X700647Y427342D01*
X700715Y427413D01*
X700787Y427482D01*
X700786Y427482D02*
X722122Y451866D01*
X737362Y471170D01*
X749554Y492760D01*
X756158Y507238D01*
X763270Y532384D01*
X767588Y560832D01*
X769366Y573532D01*
X770128Y578866D01*
X772668Y590042D01*
X774192Y601726D01*
X773684Y620268D01*
X771906Y643128D01*
X769620Y657606D01*
X765302Y674116D01*
X759206Y687832D01*
X751332Y702056D01*
X742696Y718312D01*
X733044Y731774D01*
X717550Y749554D01*
X704850Y762254D01*
X691896Y771906D01*
X682244Y778510D01*
X673608Y783336D01*
X664464Y787908D01*
X656336Y790956D01*
X644144Y795274D01*
X637032Y798068D01*
X636902Y798114D01*
X636774Y798163D01*
X636646Y798215D01*
X636521Y798272D01*
X636397Y798332D01*
X636275Y798395D01*
X636155Y798462D01*
X636036Y798532D01*
X635920Y798606D01*
X635806Y798683D01*
X635694Y798763D01*
X635584Y798846D01*
X635477Y798933D01*
X635373Y799022D01*
X635271Y799114D01*
X635171Y799210D01*
X635075Y799308D01*
X634981Y799409D01*
X634890Y799512D01*
X634802Y799618D01*
X634718Y799726D01*
X634636Y799837D01*
X634558Y799950D01*
X634482Y800066D01*
X634410Y800183D01*
X634342Y800302D01*
X634277Y800424D01*
X634215Y800547D01*
X634157Y800671D01*
X634103Y800798D01*
X634052Y800926D01*
X634005Y801055D01*
X633962Y801186D01*
X633922Y801317D01*
X633886Y801450D01*
X633854Y801584D01*
X633826Y801719D01*
X633801Y801854D01*
X633781Y801990D01*
X633764Y802127D01*
X633752Y802264D01*
X633743Y802401D01*
X633738Y802539D01*
X633737Y802677D01*
X633740Y802814D01*
X633747Y802952D01*
X633758Y803089D01*
X633773Y803226D01*
X633791Y803362D01*
X633814Y803498D01*
X633840Y803633D01*
X633871Y803767D01*
X633905Y803900D01*
X633943Y804033D01*
X633984Y804164D01*
X636778Y810260D01*
X638302Y819912D01*
X637032Y828040D01*
X635000Y834644D01*
X631190Y843026D01*
X626872Y849630D01*
X619760Y857250D01*
X612648Y861822D01*
X604266Y865124D01*
X595884Y867410D01*
X584962Y868426D01*
X574040Y868680D01*
X567182Y867918D01*
X562610Y866902D01*
X556006Y865124D01*
X542036Y858774D01*
X541932Y858711D01*
X541827Y858651D01*
X541719Y858594D01*
X541610Y858541D01*
X541499Y858491D01*
X541387Y858445D01*
X541273Y858402D01*
X541158Y858363D01*
X541042Y858328D01*
X540925Y858296D01*
X540807Y858269D01*
X540687Y858244D01*
X540568Y858224D01*
X540447Y858208D01*
X540327Y858195D01*
X540206Y858186D01*
X540084Y858181D01*
X539963Y858180D01*
X539841Y858183D01*
X539720Y858189D01*
X539599Y858200D01*
X539479Y858214D01*
X539358Y858232D01*
X539239Y858254D01*
X539120Y858280D01*
X539002Y858309D01*
X538886Y858342D01*
X538770Y858379D01*
X538655Y858419D01*
X538542Y858464D01*
X538431Y858511D01*
X538320Y858562D01*
X538212Y858617D01*
X538105Y858675D01*
X538001Y858737D01*
X537898Y858801D01*
X537797Y858869D01*
X537699Y858940D01*
X537603Y859014D01*
X537509Y859092D01*
X537418Y859172D01*
X537329Y859255D01*
X537243Y859340D01*
X537160Y859429D01*
X537079Y859520D01*
X537002Y859613D01*
X536927Y859709D01*
X536856Y859808D01*
X536788Y859908D01*
X536723Y860011D01*
X536661Y860115D01*
X536603Y860222D01*
X536548Y860330D01*
X536496Y860440D01*
X536448Y860552D01*
X535686Y862330D01*
X531622Y870712D01*
X528574Y877570D01*
X526288Y880618D01*
X520446Y887984D01*
X516128Y893318D01*
X509778Y900938D01*
X505460Y905764D01*
X500634Y910336D01*
X490728Y922020D01*
X481330Y931418D01*
X470916Y940308D01*
X462788Y945896D01*
X455422Y950214D01*
X450850Y952500D01*
X445516Y956564D01*
X435864Y961390D01*
X430276Y963676D01*
X405638Y972820D01*
X389382Y977138D01*
X383794Y978916D01*
X379222Y979170D01*
X374396Y980440D01*
X363220Y983234D01*
X352552Y983742D01*
X325374Y983996D01*
X320802Y983488D01*
X312166Y980694D01*
X303022Y977392D01*
X292100Y973582D01*
X283210Y969772D01*
X268224Y961136D01*
X257556Y954278D01*
X245110Y946404D01*
X233934Y939038D01*
X225298Y931164D01*
X214376Y920750D01*
X207518Y913384D01*
X206756Y911098D01*
X200406Y902208D01*
X192532Y888746D01*
X185928Y875284D01*
X180340Y863600D01*
X177292Y856488D01*
X174752Y850392D01*
X171958Y838708D01*
X169672Y828802D01*
X166878Y816610D01*
X166116Y804672D01*
X164338Y788416D01*
X164592Y767080D01*
X166878Y738632D01*
X170688Y725932D01*
X178816Y699262D01*
X185928Y680466D01*
X194056Y663702D01*
X199644Y654558D01*
X199704Y654480D01*
X199761Y654400D01*
X199815Y654318D01*
X199866Y654233D01*
X199913Y654147D01*
X199957Y654059D01*
X199997Y653969D01*
X200034Y653878D01*
X200067Y653786D01*
X200097Y653692D01*
X200123Y653597D01*
X200145Y653501D01*
X200164Y653405D01*
X200179Y653307D01*
X200190Y653210D01*
X200197Y653112D01*
X200201Y653013D01*
X200200Y652915D01*
X200196Y652817D01*
X200188Y652719D01*
X200176Y652621D01*
X200161Y652524D01*
X200142Y652428D01*
X200119Y652332D01*
X200092Y652237D01*
X200062Y652144D01*
X200028Y652051D01*
X199990Y651960D01*
X199949Y651871D01*
X199905Y651783D01*
X199857Y651697D01*
X199806Y651613D01*
X199751Y651531D01*
X199694Y651452D01*
X199633Y651374D01*
X199570Y651299D01*
X199504Y651226D01*
X199434Y651156D01*
X199363Y651089D01*
X199288Y651025D01*
X199212Y650963D01*
X199132Y650905D01*
X199051Y650849D01*
X198968Y650797D01*
X198882Y650748D01*
X194818Y647446D01*
X186944Y639064D01*
X183134Y633730D01*
X178562Y627888D01*
X173990Y618236D01*
X169926Y608838D01*
X166370Y595122D01*
X165608Y586994D01*
X165608Y570992D01*
X167894Y565912D01*
X170434Y560832D01*
X172974Y557530D01*
X176276Y553212D01*
X181102Y548640D01*
X184658Y546862D01*
X191008Y544068D01*
X196596Y541782D01*
X199898Y540766D01*
X201930Y540512D01*
X205740Y540766D01*
X212598Y541528D01*
X218948Y542290D01*
X224536Y543306D01*
X224790Y543306D01*
X224790Y543307D02*
X224902Y543323D01*
X225014Y543335D01*
X225126Y543343D01*
X225239Y543347D01*
X225351Y543348D01*
X225464Y543344D01*
X225576Y543337D01*
X225688Y543326D01*
X225800Y543311D01*
X225911Y543293D01*
X226021Y543270D01*
X226131Y543244D01*
X226239Y543214D01*
X226347Y543180D01*
X226453Y543143D01*
X226558Y543102D01*
X226662Y543058D01*
X226763Y543010D01*
X226864Y542958D01*
X226962Y542903D01*
X227058Y542845D01*
X227153Y542784D01*
X227245Y542719D01*
X227335Y542651D01*
X227423Y542580D01*
X227508Y542507D01*
X227590Y542430D01*
X227670Y542351D01*
X227747Y542269D01*
X227821Y542184D01*
X227893Y542097D01*
X227961Y542007D01*
X228026Y541915D01*
X228088Y541821D01*
X228147Y541725D01*
X228202Y541627D01*
X228254Y541527D01*
X228303Y541426D01*
X228348Y541323D01*
X228389Y541218D01*
X228427Y541112D01*
X228462Y541005D01*
X228492Y540896D01*
X228519Y540787D01*
X228542Y540677D01*
X228561Y540566D01*
X228577Y540454D01*
X228589Y540342D01*
X228596Y540230D01*
X228600Y540117D01*
X228601Y540004D01*
X228600Y540004D02*
X229108Y526034D01*
X228854Y510794D01*
X232410Y492506D01*
X237490Y475488D01*
X243332Y463550D01*
X250190Y445770D01*
X255778Y436372D01*
X258318Y430784D01*
X258370Y430636D01*
X258418Y430486D01*
X258463Y430335D01*
X258504Y430183D01*
X258541Y430030D01*
X258574Y429876D01*
X258604Y429722D01*
X258629Y429566D01*
X258651Y429410D01*
X258669Y429254D01*
X258683Y429097D01*
X258693Y428940D01*
X258699Y428783D01*
X258701Y428626D01*
X258699Y428468D01*
X258694Y428311D01*
X258684Y428154D01*
X258670Y427997D01*
X258653Y427841D01*
X258632Y427685D01*
X258606Y427529D01*
X258577Y427375D01*
X258544Y427221D01*
X258508Y427068D01*
X258467Y426915D01*
X258423Y426764D01*
X258375Y426615D01*
X258323Y426466D01*
X258267Y426319D01*
X258208Y426173D01*
X258145Y426028D01*
X258079Y425886D01*
X258009Y425745D01*
X257936Y425605D01*
X257859Y425468D01*
X257779Y425333D01*
X257695Y425199D01*
X257608Y425068D01*
X257518Y424939D01*
X257425Y424812D01*
X257328Y424688D01*
X257229Y424566D01*
X257126Y424446D01*
X257021Y424330D01*
X256913Y424215D01*
X256801Y424104D01*
X256687Y423995D01*
X256571Y423890D01*
X256452Y423787D01*
X256330Y423687D01*
X256206Y423590D01*
X256079Y423497D01*
X255950Y423406D01*
X255819Y423319D01*
X255686Y423235D01*
X255551Y423155D01*
X255414Y423077D01*
X255275Y423004D01*
X255134Y422933D01*
X254991Y422867D01*
X254847Y422804D01*
X254701Y422744D01*
X254554Y422688D01*
X254406Y422636D01*
X254256Y422588D01*
X254105Y422543D01*
X253953Y422502D01*
X253800Y422465D01*
X253646Y422432D01*
X253492Y422402D01*
X247142Y421386D01*
X234696Y420370D01*
X214630Y420370D01*
X175768Y420878D01*
X152146Y421640D01*
X127000Y421640D01*
X107442Y420878D01*
X100838Y420116D01*
X81280Y414274D01*
X67056Y410464D01*
X52832Y405130D01*
X46482Y401574D01*
X39878Y396494D01*
X33782Y390652D01*
X28448Y383032D01*
X23368Y376174D01*
X20320Y369316D01*
X18796Y361950D01*
X18542Y347726D01*
X19812Y335534D01*
X25654Y325120D01*
X31496Y320294D01*
X40640Y312166D01*
X45212Y309118D01*
X48514Y307340D01*
X48634Y307254D01*
X48752Y307165D01*
X48867Y307073D01*
X48979Y306978D01*
X49090Y306880D01*
X49197Y306779D01*
X49302Y306675D01*
X49403Y306568D01*
X49502Y306459D01*
X49598Y306346D01*
X49691Y306232D01*
X49781Y306115D01*
X49868Y305995D01*
X49951Y305874D01*
X50031Y305750D01*
X50108Y305624D01*
X50181Y305496D01*
X50251Y305366D01*
X50318Y305234D01*
X50380Y305101D01*
X50439Y304966D01*
X50495Y304829D01*
X50547Y304691D01*
X50595Y304551D01*
X50639Y304411D01*
X50680Y304269D01*
X50717Y304126D01*
X50750Y303982D01*
X50779Y303838D01*
X50804Y303692D01*
X50825Y303546D01*
X50842Y303400D01*
X50856Y303253D01*
X50865Y303106D01*
X50870Y302958D01*
X50872Y302811D01*
X50869Y302663D01*
X50863Y302516D01*
X50853Y302369D01*
X50838Y302222D01*
X50820Y302076D01*
X50798Y301930D01*
X50772Y301785D01*
X50742Y301640D01*
X50708Y301497D01*
X50670Y301354D01*
X50629Y301212D01*
X50583Y301072D01*
X50534Y300933D01*
X50482Y300795D01*
X50425Y300659D01*
X50365Y300524D01*
X50301Y300391D01*
X50234Y300260D01*
X50163Y300130D01*
X50089Y300003D01*
X50012Y299877D01*
X49931Y299754D01*
X49847Y299633D01*
X49759Y299514D01*
X49669Y299398D01*
X49575Y299284D01*
X49478Y299172D01*
X49379Y299063D01*
X49276Y298957D01*
X49276Y298958D02*
X38608Y287528D01*
X32258Y279908D01*
X31496Y278384D01*
X29464Y269494D01*
X27178Y255778D01*
X27432Y243840D01*
X29210Y237236D01*
X37592Y227076D01*
X44958Y219456D01*
X51054Y213868D01*
X60452Y208534D01*
X68072Y204724D01*
X81788Y200914D01*
X92456Y198120D01*
X98044Y197866D01*
X103886Y196596D01*
X111760Y196088D01*
X122682Y196850D01*
X133858Y198120D01*
X139954Y199390D01*
X140462Y199390D01*
X140462Y199391D02*
X140592Y199408D01*
X140722Y199421D01*
X140852Y199430D01*
X140983Y199436D01*
X141114Y199437D01*
X141245Y199434D01*
X141375Y199428D01*
X141506Y199417D01*
X141636Y199402D01*
X141765Y199384D01*
X141894Y199361D01*
X142023Y199335D01*
X142150Y199305D01*
X142276Y199271D01*
X142401Y199233D01*
X142525Y199191D01*
X142648Y199145D01*
X142769Y199096D01*
X142889Y199043D01*
X143007Y198987D01*
X143123Y198927D01*
X143238Y198863D01*
X143350Y198796D01*
X143461Y198726D01*
X143569Y198652D01*
X143674Y198575D01*
X143778Y198495D01*
X143879Y198411D01*
X143977Y198325D01*
X144073Y198236D01*
X144166Y198144D01*
X144256Y198049D01*
X144343Y197951D01*
X144427Y197851D01*
X144508Y197748D01*
X144586Y197643D01*
X144660Y197535D01*
X144732Y197426D01*
X144800Y197314D01*
X144864Y197200D01*
X144925Y197084D01*
X144983Y196967D01*
X145037Y196847D01*
X145087Y196726D01*
X145133Y196604D01*
X145176Y196480D01*
X145215Y196356D01*
X145250Y196229D01*
X145281Y196102D01*
X145309Y195974D01*
X145332Y195846D01*
X145352Y195716D01*
X145368Y195586D01*
X145379Y195456D01*
X145387Y195325D01*
X145391Y195195D01*
X145390Y195064D01*
X145386Y194933D01*
X145378Y194802D01*
X145366Y194672D01*
X145350Y194542D01*
X145329Y194413D01*
X145305Y194284D01*
X145277Y194156D01*
X145246Y194029D01*
X145210Y193904D01*
X145170Y193779D01*
X145127Y193655D01*
X145080Y193533D01*
X145030Y193412D01*
X144975Y193293D01*
X144917Y193176D01*
X144856Y193061D01*
X144791Y192947D01*
X144722Y192835D01*
X144651Y192726D01*
X144576Y192619D01*
X144497Y192514D01*
X144416Y192411D01*
X144331Y192312D01*
X144244Y192214D01*
X144153Y192120D01*
X144060Y192028D01*
X143964Y191939D01*
X143865Y191853D01*
X143764Y191770D01*
X138430Y185674D01*
X132080Y177546D01*
X129286Y174498D01*
X123444Y164338D01*
X121158Y156464D01*
X120650Y147320D01*
X121920Y137922D01*
X124460Y127000D01*
X129286Y118364D01*
X132842Y114554D01*
X136398Y110236D01*
X142240Y106680D01*
X149606Y103124D01*
X159004Y99822D01*
X165100Y97536D01*
X175006Y93980D01*
X180340Y91948D01*
X191516Y91440D01*
X209550Y91948D01*
X225552Y97282D01*
X241554Y105664D01*
X255270Y114300D01*
X267716Y123190D01*
X267812Y123273D01*
X267911Y123353D01*
X268012Y123430D01*
X268115Y123505D01*
X268221Y123575D01*
X268329Y123643D01*
X268439Y123707D01*
X268551Y123767D01*
X268665Y123824D01*
X268780Y123878D01*
X268897Y123928D01*
X269016Y123974D01*
X269136Y124017D01*
X269257Y124055D01*
X269380Y124090D01*
X269503Y124121D01*
X269627Y124149D01*
X269752Y124172D01*
X269878Y124191D01*
X270005Y124207D01*
X270131Y124218D01*
X270258Y124226D01*
X270386Y124230D01*
X270513Y124229D01*
X270640Y124225D01*
X270767Y124217D01*
X270894Y124205D01*
X271020Y124188D01*
X271146Y124168D01*
X271271Y124144D01*
X271395Y124117D01*
X271518Y124085D01*
X271640Y124049D01*
X271761Y124010D01*
X271881Y123967D01*
X272000Y123920D01*
X272116Y123870D01*
X272232Y123816D01*
X272345Y123758D01*
X272457Y123697D01*
X272566Y123632D01*
X272674Y123564D01*
X272779Y123493D01*
X272883Y123418D01*
X272983Y123341D01*
X273082Y123260D01*
X273177Y123176D01*
X273270Y123089D01*
X273361Y122999D01*
X273448Y122907D01*
X273533Y122812D01*
X273614Y122714D01*
X273693Y122614D01*
X273768Y122511D01*
X273840Y122406D01*
X273909Y122299D01*
X273975Y122190D01*
X274037Y122079D01*
X274095Y121966D01*
X274150Y121851D01*
X274201Y121735D01*
X274249Y121617D01*
X274293Y121497D01*
X274333Y121377D01*
X274370Y121255D01*
X274402Y121132D01*
X274431Y121008D01*
X274456Y120883D01*
X274477Y120757D01*
X274494Y120631D01*
X274507Y120504D01*
X274516Y120378D01*
X274522Y120250D01*
X274523Y120123D01*
X274520Y119996D01*
X274514Y119869D01*
X274503Y119742D01*
X274488Y119615D01*
X274470Y119490D01*
X274447Y119364D01*
X274421Y119240D01*
X274391Y119116D01*
X274357Y118993D01*
X274319Y118872D01*
X274320Y118872D02*
X271018Y107442D01*
X270002Y96266D01*
X270764Y85852D01*
X272542Y76200D01*
X275082Y68834D01*
X278892Y59182D01*
X286258Y51054D01*
X293624Y45212D01*
X302514Y38354D01*
X309626Y36576D01*
X314198Y35306D01*
X321056Y32766D01*
X329184Y31750D01*
X337566Y32004D01*
X350774Y33528D01*
X358394Y36830D01*
X368808Y42418D01*
X378714Y51308D01*
X388620Y58420D01*
X396748Y66802D01*
X402844Y74168D01*
X414274Y87630D01*
X422910Y100330D01*
X433324Y115316D01*
X445008Y133096D01*
X455676Y152146D01*
X462026Y164338D01*
X466344Y171958D01*
X471424Y180340D01*
X473710Y187960D01*
X476758Y193548D01*
X477266Y195580D01*
X477300Y195681D01*
X477338Y195781D01*
X477379Y195879D01*
X477424Y195976D01*
X477473Y196071D01*
X477525Y196164D01*
X477581Y196255D01*
X477639Y196344D01*
X477702Y196431D01*
X477767Y196516D01*
X477835Y196598D01*
X477906Y196677D01*
X477981Y196754D01*
X478058Y196828D01*
X478137Y196899D01*
X478219Y196967D01*
X478304Y197033D01*
X478391Y197094D01*
X478480Y197153D01*
X478572Y197208D01*
X478665Y197260D01*
X478760Y197309D01*
X478857Y197354D01*
X478956Y197395D01*
X479055Y197433D01*
X479157Y197466D01*
X479259Y197497D01*
X479363Y197523D01*
X479467Y197546D01*
X479572Y197564D01*
X479678Y197579D01*
X479784Y197590D01*
X479891Y197597D01*
X479997Y197600D01*
X480104Y197599D01*
X480211Y197594D01*
X480317Y197585D01*
X480423Y197573D01*
X480529Y197556D01*
X480634Y197536D01*
X480738Y197511D01*
X480841Y197483D01*
X480942Y197451D01*
X481043Y197416D01*
X481142Y197376D01*
X481240Y197333D01*
X481336Y197287D01*
X481430Y197237D01*
X481523Y197183D01*
X481613Y197126D01*
X481701Y197066D01*
X481787Y197003D01*
X481871Y196936D01*
X481952Y196867D01*
X482030Y196794D01*
X482106Y196719D01*
X482179Y196641D01*
X482249Y196560D01*
X482316Y196477D01*
X482380Y196391D01*
X482440Y196303D01*
X482498Y196213D01*
X482552Y196121D01*
X482602Y196027D01*
X482649Y195931D01*
X482693Y195834D01*
X482732Y195735D01*
X482769Y195634D01*
X482801Y195532D01*
X482830Y195430D01*
X482854Y195326D01*
D11*
X649280Y458180D02*
X649280Y469366D01*
X643688Y469366D01*
X641823Y467501D01*
X641823Y465637D01*
X643688Y463773D01*
X641823Y461909D01*
X641823Y460044D01*
X643688Y458180D01*
X649280Y458180D01*
X649280Y463773D02*
X643688Y463773D01*
X635722Y458180D02*
X631994Y458180D01*
X630129Y460044D01*
X630129Y463773D01*
X631994Y465637D01*
X635722Y465637D01*
X637586Y463773D01*
X637586Y460044D01*
X635722Y458180D01*
X624028Y465637D02*
X620300Y465637D01*
X618435Y463773D01*
X618435Y458180D01*
X624028Y458180D01*
X625892Y460044D01*
X624028Y461909D01*
X618435Y461909D01*
X614199Y465637D02*
X614199Y458180D01*
X614199Y461909D02*
X610470Y465637D01*
X608606Y465637D01*
X596997Y469366D02*
X596997Y458180D01*
X602589Y458180D01*
X604454Y460044D01*
X604454Y463773D01*
X602589Y465637D01*
X596997Y465637D01*
X579201Y465637D02*
X575473Y465637D01*
X573609Y463773D01*
X573609Y458180D01*
X579201Y458180D01*
X581066Y460044D01*
X579201Y461909D01*
X573609Y461909D01*
X569372Y465637D02*
X569372Y458180D01*
X569372Y461909D02*
X565643Y465637D01*
X563779Y465637D01*
X557762Y467501D02*
X557762Y460044D01*
X555898Y458180D01*
X555898Y465637D02*
X559627Y465637D01*
X551831Y465637D02*
X551831Y460044D01*
X549966Y458180D01*
X548102Y460044D01*
X546238Y458180D01*
X544374Y460044D01*
X544374Y465637D01*
X538272Y458180D02*
X534544Y458180D01*
X532680Y460044D01*
X532680Y463773D01*
X534544Y465637D01*
X538272Y465637D01*
X540137Y463773D01*
X540137Y460044D01*
X538272Y458180D01*
X528443Y458180D02*
X528443Y465637D01*
X528443Y461909D02*
X524714Y465637D01*
X522850Y465637D01*
X518698Y469366D02*
X518698Y458180D01*
X518698Y461909D02*
X513105Y458180D01*
X518698Y461909D02*
X513105Y465637D01*
X497259Y469366D02*
X497259Y458180D01*
X491666Y458180D01*
X489802Y460044D01*
X489802Y463773D01*
X491666Y465637D01*
X497259Y465637D01*
X485565Y465637D02*
X485565Y460044D01*
X483701Y458180D01*
X478108Y458180D01*
X478108Y456316D02*
X478108Y465637D01*
X478108Y456316D02*
X479972Y454452D01*
X481836Y454452D01*
X473871Y465637D02*
X472007Y465637D01*
X472007Y463773D01*
X473871Y463773D01*
X473871Y465637D01*
X473871Y460044D02*
X472007Y460044D01*
X472007Y458180D01*
X473871Y458180D01*
X473871Y460044D01*
X456330Y458180D02*
X456330Y469366D01*
X456330Y458180D02*
X450737Y458180D01*
X448873Y460044D01*
X448873Y467501D01*
X450737Y469366D01*
X456330Y469366D01*
X442772Y458180D02*
X439043Y458180D01*
X442772Y458180D02*
X444636Y460044D01*
X444636Y463773D01*
X442772Y465637D01*
X439043Y465637D01*
X437179Y463773D01*
X437179Y461909D01*
X444636Y461909D01*
X431078Y465637D02*
X427349Y465637D01*
X425485Y463773D01*
X425485Y458180D01*
X431078Y458180D01*
X432942Y460044D01*
X431078Y461909D01*
X425485Y461909D01*
X421248Y465637D02*
X421248Y458180D01*
X421248Y465637D02*
X415655Y465637D01*
X413791Y463773D01*
X413791Y458180D01*
X409554Y458180D02*
X409554Y465637D01*
X403961Y465637D01*
X402097Y463773D01*
X402097Y458180D01*
X395996Y465637D02*
X392267Y465637D01*
X390403Y463773D01*
X390403Y458180D01*
X395996Y458180D01*
X397860Y460044D01*
X395996Y461909D01*
X390403Y461909D01*
X368879Y469366D02*
X367015Y467501D01*
X368879Y469366D02*
X372608Y469366D01*
X374472Y467501D01*
X374472Y465637D01*
X372608Y463773D01*
X368879Y463773D01*
X367015Y461909D01*
X367015Y460044D01*
X368879Y458180D01*
X372608Y458180D01*
X374472Y460044D01*
X360914Y465637D02*
X355321Y465637D01*
X360914Y465637D02*
X362778Y463773D01*
X362778Y460044D01*
X360914Y458180D01*
X355321Y458180D01*
X351084Y458180D02*
X351084Y469366D01*
X349220Y465637D02*
X351084Y463773D01*
X349220Y465637D02*
X345492Y465637D01*
X343627Y463773D01*
X343627Y458180D01*
X339390Y458180D02*
X339390Y465637D01*
X337526Y465637D01*
X335662Y463773D01*
X335662Y458180D01*
X335662Y463773D02*
X333798Y465637D01*
X331933Y463773D01*
X331933Y458180D01*
X325832Y465637D02*
X322104Y465637D01*
X320239Y463773D01*
X320239Y458180D01*
X325832Y458180D01*
X327696Y460044D01*
X325832Y461909D01*
X320239Y461909D01*
X316002Y469366D02*
X314138Y469366D01*
X314138Y458180D01*
X316002Y458180D02*
X312274Y458180D01*
X308206Y465637D02*
X300749Y465637D01*
X308206Y458180D01*
X300749Y458180D01*
X589200Y450316D02*
X589200Y439130D01*
X594793Y439130D01*
X596657Y440994D01*
X596657Y444723D01*
X594793Y446587D01*
X589200Y446587D01*
X583099Y439130D02*
X579371Y439130D01*
X583099Y439130D02*
X584963Y440994D01*
X584963Y444723D01*
X583099Y446587D01*
X579371Y446587D01*
X577506Y444723D01*
X577506Y442859D01*
X584963Y442859D01*
X571405Y446587D02*
X567677Y446587D01*
X565812Y444723D01*
X565812Y439130D01*
X571405Y439130D01*
X573270Y440994D01*
X571405Y442859D01*
X565812Y442859D01*
X561576Y446587D02*
X561576Y439130D01*
X561576Y446587D02*
X555983Y446587D01*
X554119Y444723D01*
X554119Y439130D01*
X549882Y439130D02*
X549882Y446587D01*
X544289Y446587D01*
X542425Y444723D01*
X542425Y439130D01*
X536323Y446587D02*
X532595Y446587D01*
X530731Y444723D01*
X530731Y439130D01*
X536323Y439130D01*
X538188Y440994D01*
X536323Y442859D01*
X530731Y442859D01*
X520901Y439130D02*
X519037Y440994D01*
X520901Y439130D02*
X524629Y439130D01*
X526494Y440994D01*
X526494Y448451D01*
X524629Y450316D01*
X520901Y450316D01*
X519037Y448451D01*
X519037Y444723D01*
X520901Y442859D01*
X524629Y442859D01*
X524629Y446587D01*
X520901Y446587D01*
X520901Y442859D01*
X514800Y439130D02*
X509207Y439130D01*
X507343Y440994D01*
X509207Y442859D01*
X512935Y442859D01*
X514800Y444723D01*
X512935Y446587D01*
X507343Y446587D01*
X501241Y446587D02*
X495649Y446587D01*
X501241Y446587D02*
X503106Y444723D01*
X503106Y440994D01*
X501241Y439130D01*
X495649Y439130D01*
X491412Y439130D02*
X491412Y450316D01*
X489547Y446587D02*
X491412Y444723D01*
X489547Y446587D02*
X485819Y446587D01*
X483955Y444723D01*
X483955Y439130D01*
X479718Y439130D02*
X479718Y446587D01*
X477854Y446587D01*
X475989Y444723D01*
X475989Y439130D01*
X475989Y444723D02*
X474125Y446587D01*
X472261Y444723D01*
X472261Y439130D01*
X466160Y446587D02*
X462431Y446587D01*
X460567Y444723D01*
X460567Y439130D01*
X466160Y439130D01*
X468024Y440994D01*
X466160Y442859D01*
X460567Y442859D01*
X456330Y450316D02*
X454466Y450316D01*
X454466Y439130D01*
X456330Y439130D02*
X452601Y439130D01*
X448534Y446587D02*
X441077Y446587D01*
X448534Y439130D01*
X441077Y439130D01*
X436840Y439130D02*
X436840Y450316D01*
X434976Y446587D02*
X436840Y444723D01*
X434976Y446587D02*
X431247Y446587D01*
X429383Y444723D01*
X429383Y439130D01*
X423282Y446587D02*
X419553Y446587D01*
X417689Y444723D01*
X417689Y439130D01*
X423282Y439130D01*
X425146Y440994D01*
X423282Y442859D01*
X417689Y442859D01*
X413452Y440994D02*
X413452Y446587D01*
X413452Y440994D02*
X411588Y439130D01*
X405995Y439130D01*
X405995Y446587D01*
X401758Y439130D02*
X396165Y439130D01*
X394301Y440994D01*
X396165Y442859D01*
X399894Y442859D01*
X401758Y444723D01*
X399894Y446587D01*
X394301Y446587D01*
X390064Y440994D02*
X390064Y439130D01*
X390064Y440994D02*
X388200Y440994D01*
X388200Y439130D01*
X390064Y439130D01*
X382353Y446587D02*
X376760Y446587D01*
X382353Y446587D02*
X384217Y444723D01*
X384217Y440994D01*
X382353Y439130D01*
X376760Y439130D01*
X370659Y439130D02*
X366930Y439130D01*
X365066Y440994D01*
X365066Y444723D01*
X366930Y446587D01*
X370659Y446587D01*
X372523Y444723D01*
X372523Y440994D01*
X370659Y439130D01*
X360829Y439130D02*
X360829Y446587D01*
X358965Y446587D01*
X357101Y444723D01*
X357101Y439130D01*
X357101Y444723D02*
X355236Y446587D01*
X353372Y444723D01*
X353372Y439130D01*
X761844Y235990D02*
X761844Y224804D01*
X765572Y235990D02*
X758115Y235990D01*
X753878Y235990D02*
X753878Y224804D01*
X753878Y230397D02*
X752014Y232261D01*
X748285Y232261D01*
X746421Y230397D01*
X746421Y224804D01*
X742184Y232261D02*
X740320Y232261D01*
X740320Y224804D01*
X742184Y224804D02*
X738456Y224804D01*
X740320Y235990D02*
X740320Y237854D01*
X734388Y224804D02*
X728795Y224804D01*
X726931Y226668D01*
X728795Y228533D01*
X732524Y228533D01*
X734388Y230397D01*
X732524Y232261D01*
X726931Y232261D01*
X703543Y235990D02*
X703543Y224804D01*
X709136Y224804D01*
X711000Y226668D01*
X711000Y230397D01*
X709136Y232261D01*
X703543Y232261D01*
X697442Y224804D02*
X693713Y224804D01*
X697442Y224804D02*
X699306Y226668D01*
X699306Y230397D01*
X697442Y232261D01*
X693713Y232261D01*
X691849Y230397D01*
X691849Y228533D01*
X699306Y228533D01*
X687612Y224804D02*
X682019Y224804D01*
X680155Y226668D01*
X682019Y228533D01*
X685748Y228533D01*
X687612Y230397D01*
X685748Y232261D01*
X680155Y232261D01*
X675918Y232261D02*
X674054Y232261D01*
X674054Y224804D01*
X675918Y224804D02*
X672190Y224804D01*
X674054Y235990D02*
X674054Y237854D01*
X664394Y221076D02*
X662530Y221076D01*
X660665Y222940D01*
X660665Y232261D01*
X666258Y232261D01*
X668122Y230397D01*
X668122Y226668D01*
X666258Y224804D01*
X660665Y224804D01*
X656428Y224804D02*
X656428Y232261D01*
X650836Y232261D01*
X648971Y230397D01*
X648971Y224804D01*
X633040Y232261D02*
X631176Y232261D01*
X631176Y224804D01*
X633040Y224804D02*
X629312Y224804D01*
X631176Y235990D02*
X631176Y237854D01*
X625244Y224804D02*
X619652Y224804D01*
X617787Y226668D01*
X619652Y228533D01*
X623380Y228533D01*
X625244Y230397D01*
X623380Y232261D01*
X617787Y232261D01*
X599992Y234125D02*
X599992Y224804D01*
X599992Y234125D02*
X598128Y235990D01*
X598128Y230397D02*
X601856Y230397D01*
X594061Y232261D02*
X594061Y226668D01*
X592196Y224804D01*
X586603Y224804D01*
X586603Y232261D01*
X582367Y235990D02*
X580502Y235990D01*
X580502Y224804D01*
X578638Y224804D02*
X582367Y224804D01*
X574571Y235990D02*
X572706Y235990D01*
X572706Y224804D01*
X570842Y224804D02*
X574571Y224804D01*
X566775Y226668D02*
X566775Y232261D01*
X566775Y226668D02*
X564910Y224804D01*
X559318Y224804D01*
X559318Y222940D02*
X559318Y232261D01*
X559318Y222940D02*
X561182Y221076D01*
X563046Y221076D01*
X541522Y235990D02*
X537794Y235990D01*
X541522Y235990D02*
X543387Y234125D01*
X543387Y226668D01*
X541522Y224804D01*
X537794Y224804D01*
X535930Y226668D01*
X535930Y234125D01*
X537794Y235990D01*
X531693Y232261D02*
X531693Y221076D01*
X531693Y232261D02*
X526100Y232261D01*
X524236Y230397D01*
X524236Y226668D01*
X526100Y224804D01*
X531693Y224804D01*
X518134Y224804D02*
X514406Y224804D01*
X518134Y224804D02*
X519999Y226668D01*
X519999Y230397D01*
X518134Y232261D01*
X514406Y232261D01*
X512542Y230397D01*
X512542Y228533D01*
X519999Y228533D01*
X508305Y232261D02*
X508305Y224804D01*
X508305Y232261D02*
X502712Y232261D01*
X500848Y230397D01*
X500848Y224804D01*
X479324Y235990D02*
X477460Y234125D01*
X479324Y235990D02*
X483053Y235990D01*
X484917Y234125D01*
X484917Y232261D01*
X483053Y230397D01*
X479324Y230397D01*
X477460Y228533D01*
X477460Y226668D01*
X479324Y224804D01*
X483053Y224804D01*
X484917Y226668D01*
X471359Y224804D02*
X467630Y224804D01*
X465766Y226668D01*
X465766Y230397D01*
X467630Y232261D01*
X471359Y232261D01*
X473223Y230397D01*
X473223Y226668D01*
X471359Y224804D01*
X461529Y226668D02*
X461529Y232261D01*
X461529Y226668D02*
X459665Y224804D01*
X454072Y224804D01*
X454072Y232261D01*
X449835Y232261D02*
X449835Y224804D01*
X449835Y228533D02*
X446106Y232261D01*
X444242Y232261D01*
X438226Y232261D02*
X432633Y232261D01*
X438226Y232261D02*
X440090Y230397D01*
X440090Y226668D01*
X438226Y224804D01*
X432633Y224804D01*
X426532Y224804D02*
X422803Y224804D01*
X426532Y224804D02*
X428396Y226668D01*
X428396Y230397D01*
X426532Y232261D01*
X422803Y232261D01*
X420939Y230397D01*
X420939Y228533D01*
X428396Y228533D01*
X405008Y224804D02*
X405008Y235990D01*
X405008Y230397D02*
X397551Y230397D01*
X397551Y235990D02*
X397551Y224804D01*
X391450Y232261D02*
X387721Y232261D01*
X385857Y230397D01*
X385857Y224804D01*
X391450Y224804D01*
X393314Y226668D01*
X391450Y228533D01*
X385857Y228533D01*
X381620Y232261D02*
X381620Y224804D01*
X381620Y228533D02*
X377892Y232261D01*
X376027Y232261D01*
X364418Y235990D02*
X364418Y224804D01*
X370011Y224804D01*
X371875Y226668D01*
X371875Y230397D01*
X370011Y232261D01*
X364418Y232261D01*
X360181Y232261D02*
X360181Y226668D01*
X358317Y224804D01*
X356453Y226668D01*
X354588Y224804D01*
X352724Y226668D01*
X352724Y232261D01*
X346623Y232261D02*
X342894Y232261D01*
X341030Y230397D01*
X341030Y224804D01*
X346623Y224804D01*
X348487Y226668D01*
X346623Y228533D01*
X341030Y228533D01*
X336793Y232261D02*
X336793Y224804D01*
X336793Y228533D02*
X333065Y232261D01*
X331200Y232261D01*
X325184Y224804D02*
X321456Y224804D01*
X325184Y224804D02*
X327048Y226668D01*
X327048Y230397D01*
X325184Y232261D01*
X321456Y232261D01*
X319591Y230397D01*
X319591Y228533D01*
X327048Y228533D01*
X315354Y221076D02*
X311626Y224804D01*
X311626Y226668D01*
X313490Y226668D01*
X313490Y224804D01*
X311626Y224804D01*
X752014Y213211D02*
X753878Y213211D01*
X752014Y213211D02*
X752014Y205754D01*
X753878Y205754D02*
X750150Y205754D01*
X752014Y216940D02*
X752014Y218804D01*
X746082Y213211D02*
X746082Y205754D01*
X746082Y213211D02*
X740489Y213211D01*
X738625Y211347D01*
X738625Y205754D01*
X732524Y213211D02*
X726931Y213211D01*
X732524Y213211D02*
X734388Y211347D01*
X734388Y207618D01*
X732524Y205754D01*
X726931Y205754D01*
X722694Y216940D02*
X720830Y216940D01*
X720830Y205754D01*
X722694Y205754D02*
X718966Y205754D01*
X714898Y207618D02*
X714898Y213211D01*
X714898Y207618D02*
X713034Y205754D01*
X707441Y205754D01*
X707441Y213211D01*
X695747Y216940D02*
X695747Y205754D01*
X701340Y205754D01*
X703204Y207618D01*
X703204Y211347D01*
X701340Y213211D01*
X695747Y213211D01*
X691510Y213211D02*
X689646Y213211D01*
X689646Y205754D01*
X691510Y205754D02*
X687782Y205754D01*
X689646Y216940D02*
X689646Y218804D01*
X683714Y213211D02*
X683714Y205754D01*
X683714Y213211D02*
X678122Y213211D01*
X676257Y211347D01*
X676257Y205754D01*
X668292Y202026D02*
X666428Y202026D01*
X664563Y203890D01*
X664563Y213211D01*
X670156Y213211D01*
X672020Y211347D01*
X672020Y207618D01*
X670156Y205754D01*
X664563Y205754D01*
X648632Y205754D02*
X643040Y205754D01*
X641175Y207618D01*
X643040Y209483D01*
X646768Y209483D01*
X648632Y211347D01*
X646768Y213211D01*
X641175Y213211D01*
X635074Y205754D02*
X631346Y205754D01*
X629481Y207618D01*
X629481Y211347D01*
X631346Y213211D01*
X635074Y213211D01*
X636938Y211347D01*
X636938Y207618D01*
X635074Y205754D01*
X625244Y207618D02*
X625244Y213211D01*
X625244Y207618D02*
X623380Y205754D01*
X617787Y205754D01*
X617787Y213211D01*
X613550Y213211D02*
X613550Y205754D01*
X613550Y209483D02*
X609822Y213211D01*
X607958Y213211D01*
X601941Y213211D02*
X596348Y213211D01*
X601941Y213211D02*
X603805Y211347D01*
X603805Y207618D01*
X601941Y205754D01*
X596348Y205754D01*
X590247Y205754D02*
X586519Y205754D01*
X590247Y205754D02*
X592112Y207618D01*
X592112Y211347D01*
X590247Y213211D01*
X586519Y213211D01*
X584654Y211347D01*
X584654Y209483D01*
X592112Y209483D01*
X566859Y213211D02*
X561267Y213211D01*
X566859Y213211D02*
X568724Y211347D01*
X568724Y207618D01*
X566859Y205754D01*
X561267Y205754D01*
X555165Y205754D02*
X551437Y205754D01*
X549573Y207618D01*
X549573Y211347D01*
X551437Y213211D01*
X555165Y213211D01*
X557030Y211347D01*
X557030Y207618D01*
X555165Y205754D01*
X537879Y205754D02*
X537879Y216940D01*
X537879Y205754D02*
X543471Y205754D01*
X545336Y207618D01*
X545336Y211347D01*
X543471Y213211D01*
X537879Y213211D01*
X531777Y205754D02*
X528049Y205754D01*
X531777Y205754D02*
X533642Y207618D01*
X533642Y211347D01*
X531777Y213211D01*
X528049Y213211D01*
X526185Y211347D01*
X526185Y209483D01*
X533642Y209483D01*
X508389Y205754D02*
X508389Y215075D01*
X506525Y216940D01*
X506525Y211347D02*
X510254Y211347D01*
X500594Y205754D02*
X496865Y205754D01*
X495001Y207618D01*
X495001Y211347D01*
X496865Y213211D01*
X500594Y213211D01*
X502458Y211347D01*
X502458Y207618D01*
X500594Y205754D01*
X490764Y205754D02*
X490764Y213211D01*
X490764Y209483D02*
X487035Y213211D01*
X485171Y213211D01*
X469325Y216940D02*
X469325Y205754D01*
X469325Y216940D02*
X463732Y216940D01*
X461868Y215075D01*
X461868Y211347D01*
X463732Y209483D01*
X469325Y209483D01*
X457631Y205754D02*
X453902Y205754D01*
X455767Y205754D02*
X455767Y216940D01*
X457631Y216940D02*
X453902Y216940D01*
X444242Y216940D02*
X442378Y215075D01*
X444242Y216940D02*
X447971Y216940D01*
X449835Y215075D01*
X449835Y207618D01*
X447971Y205754D01*
X444242Y205754D01*
X442378Y207618D01*
X438141Y213211D02*
X434412Y216940D01*
X434412Y205754D01*
X430684Y205754D02*
X438141Y205754D01*
X426447Y205754D02*
X418990Y205754D01*
X426447Y205754D02*
X418990Y213211D01*
X418990Y215075D01*
X420854Y216940D01*
X424583Y216940D01*
X426447Y215075D01*
X414753Y216940D02*
X414753Y205754D01*
X414753Y216940D02*
X407296Y216940D01*
X411025Y211347D02*
X414753Y211347D01*
X403059Y213211D02*
X399331Y216940D01*
X399331Y205754D01*
X403059Y205754D02*
X395602Y205754D01*
X391365Y216940D02*
X383908Y216940D01*
X391365Y216940D02*
X391365Y211347D01*
X387637Y213211D01*
X385772Y213211D01*
X383908Y211347D01*
X383908Y207618D01*
X385772Y205754D01*
X389501Y205754D01*
X391365Y207618D01*
X379671Y216940D02*
X372214Y216940D01*
X372214Y215075D01*
X379671Y207618D01*
X379671Y205754D01*
X367977Y205754D02*
X360520Y205754D01*
X367977Y205754D02*
X360520Y213211D01*
X360520Y215075D01*
X362384Y216940D01*
X366113Y216940D01*
X367977Y215075D01*
X344589Y213211D02*
X344589Y202026D01*
X344589Y213211D02*
X338996Y213211D01*
X337132Y211347D01*
X337132Y207618D01*
X338996Y205754D01*
X344589Y205754D01*
X332895Y205754D02*
X332895Y213211D01*
X332895Y209483D02*
X329167Y213211D01*
X327302Y213211D01*
X321286Y205754D02*
X317558Y205754D01*
X315693Y207618D01*
X315693Y211347D01*
X317558Y213211D01*
X321286Y213211D01*
X323150Y211347D01*
X323150Y207618D01*
X321286Y205754D01*
X309592Y213211D02*
X303999Y213211D01*
X309592Y213211D02*
X311456Y211347D01*
X311456Y207618D01*
X309592Y205754D01*
X303999Y205754D01*
X297898Y205754D02*
X294170Y205754D01*
X297898Y205754D02*
X299762Y207618D01*
X299762Y211347D01*
X297898Y213211D01*
X294170Y213211D01*
X292305Y211347D01*
X292305Y209483D01*
X299762Y209483D01*
X288068Y205754D02*
X282476Y205754D01*
X280611Y207618D01*
X282476Y209483D01*
X286204Y209483D01*
X288068Y211347D01*
X286204Y213211D01*
X280611Y213211D01*
X276374Y205754D02*
X270782Y205754D01*
X268917Y207618D01*
X270782Y209483D01*
X274510Y209483D01*
X276374Y211347D01*
X274510Y213211D01*
X268917Y213211D01*
X262816Y205754D02*
X259088Y205754D01*
X257223Y207618D01*
X257223Y211347D01*
X259088Y213211D01*
X262816Y213211D01*
X264680Y211347D01*
X264680Y207618D01*
X262816Y205754D01*
X252986Y205754D02*
X252986Y213211D01*
X252986Y209483D02*
X249258Y213211D01*
X247394Y213211D01*
X866827Y346139D02*
X868691Y348004D01*
X872420Y348004D01*
X874284Y346139D01*
X874284Y338682D01*
X872420Y336818D01*
X868691Y336818D01*
X866827Y338682D01*
X860726Y336818D02*
X856997Y336818D01*
X855133Y338682D01*
X855133Y342411D01*
X856997Y344275D01*
X860726Y344275D01*
X862590Y342411D01*
X862590Y338682D01*
X860726Y336818D01*
X850896Y336818D02*
X850896Y344275D01*
X845303Y344275D01*
X843439Y342411D01*
X843439Y336818D01*
X839202Y336818D02*
X833609Y336818D01*
X831745Y338682D01*
X833609Y340547D01*
X837338Y340547D01*
X839202Y342411D01*
X837338Y344275D01*
X831745Y344275D01*
X825644Y346139D02*
X825644Y338682D01*
X823780Y336818D01*
X823780Y344275D02*
X827508Y344275D01*
X819712Y344275D02*
X819712Y336818D01*
X819712Y340547D02*
X815984Y344275D01*
X814119Y344275D01*
X809967Y344275D02*
X809967Y338682D01*
X808103Y336818D01*
X802510Y336818D01*
X802510Y344275D01*
X796409Y344275D02*
X790816Y344275D01*
X796409Y344275D02*
X798273Y342411D01*
X798273Y338682D01*
X796409Y336818D01*
X790816Y336818D01*
X784715Y338682D02*
X784715Y346139D01*
X784715Y338682D02*
X782851Y336818D01*
X782851Y344275D02*
X786579Y344275D01*
X778783Y344275D02*
X776919Y344275D01*
X776919Y336818D01*
X778783Y336818D02*
X775055Y336818D01*
X776919Y348004D02*
X776919Y349868D01*
X769123Y336818D02*
X765395Y336818D01*
X763530Y338682D01*
X763530Y342411D01*
X765395Y344275D01*
X769123Y344275D01*
X770987Y342411D01*
X770987Y338682D01*
X769123Y336818D01*
X759293Y336818D02*
X759293Y344275D01*
X753701Y344275D01*
X751836Y342411D01*
X751836Y336818D01*
X735905Y336818D02*
X735905Y348004D01*
X735905Y342411D02*
X728448Y342411D01*
X728448Y348004D02*
X728448Y336818D01*
X724211Y344275D02*
X722347Y344275D01*
X722347Y336818D01*
X724211Y336818D02*
X720483Y336818D01*
X722347Y348004D02*
X722347Y349868D01*
X716415Y344275D02*
X716415Y336818D01*
X716415Y344275D02*
X710823Y344275D01*
X708958Y342411D01*
X708958Y336818D01*
X702857Y338682D02*
X702857Y346139D01*
X702857Y338682D02*
X700993Y336818D01*
X700993Y344275D02*
X704722Y344275D01*
X696926Y336818D02*
X691333Y336818D01*
X689469Y338682D01*
X691333Y340547D01*
X695061Y340547D01*
X696926Y342411D01*
X695061Y344275D01*
X689469Y344275D01*
X685232Y344275D02*
X683367Y344275D01*
X683367Y342411D01*
X685232Y342411D01*
X685232Y344275D01*
X685232Y338682D02*
X683367Y338682D01*
X683367Y336818D01*
X685232Y336818D01*
X685232Y338682D01*
X441214Y342492D02*
X441214Y351814D01*
X441214Y342492D02*
X439350Y340628D01*
X435621Y340628D01*
X433757Y342492D01*
X433757Y351814D01*
X429520Y340628D02*
X423927Y340628D01*
X422063Y342492D01*
X423927Y344357D01*
X427656Y344357D01*
X429520Y346221D01*
X427656Y348085D01*
X422063Y348085D01*
X415962Y348085D02*
X412233Y348085D01*
X410369Y346221D01*
X410369Y340628D01*
X415962Y340628D01*
X417826Y342492D01*
X415962Y344357D01*
X410369Y344357D01*
X402404Y336900D02*
X400539Y336900D01*
X398675Y338764D01*
X398675Y348085D01*
X404268Y348085D01*
X406132Y346221D01*
X406132Y342492D01*
X404268Y340628D01*
X398675Y340628D01*
X392574Y340628D02*
X388845Y340628D01*
X392574Y340628D02*
X394438Y342492D01*
X394438Y346221D01*
X392574Y348085D01*
X388845Y348085D01*
X386981Y346221D01*
X386981Y344357D01*
X394438Y344357D01*
X371050Y340628D02*
X371050Y351814D01*
X371050Y346221D02*
X363593Y346221D01*
X363593Y351814D02*
X363593Y340628D01*
X359356Y348085D02*
X357492Y348085D01*
X357492Y340628D01*
X359356Y340628D02*
X355628Y340628D01*
X357492Y351814D02*
X357492Y353678D01*
X351560Y348085D02*
X351560Y340628D01*
X351560Y348085D02*
X345968Y348085D01*
X344103Y346221D01*
X344103Y340628D01*
X338002Y342492D02*
X338002Y349949D01*
X338002Y342492D02*
X336138Y340628D01*
X336138Y348085D02*
X339866Y348085D01*
X332070Y340628D02*
X326478Y340628D01*
X324613Y342492D01*
X326478Y344357D01*
X330206Y344357D01*
X332070Y346221D01*
X330206Y348085D01*
X324613Y348085D01*
X320376Y348085D02*
X318512Y348085D01*
X318512Y346221D01*
X320376Y346221D01*
X320376Y348085D01*
X320376Y342492D02*
X318512Y342492D01*
X318512Y340628D01*
X320376Y340628D01*
X320376Y342492D01*
X426137Y327425D02*
X433594Y327425D01*
X421900Y321832D02*
X421900Y333018D01*
X421900Y327425D02*
X414443Y327425D01*
X414443Y333018D02*
X414443Y321832D01*
X408342Y321832D02*
X404613Y321832D01*
X402749Y323696D01*
X402749Y327425D01*
X404613Y329289D01*
X408342Y329289D01*
X410206Y327425D01*
X410206Y323696D01*
X408342Y321832D01*
X398512Y333018D02*
X396648Y333018D01*
X396648Y321832D01*
X398512Y321832D02*
X394784Y321832D01*
X383259Y321832D02*
X383259Y333018D01*
X383259Y321832D02*
X388852Y321832D01*
X390716Y323696D01*
X390716Y327425D01*
X388852Y329289D01*
X383259Y329289D01*
X359871Y333018D02*
X359871Y321832D01*
X365464Y321832D01*
X367328Y323696D01*
X367328Y327425D01*
X365464Y329289D01*
X359871Y329289D01*
X353770Y321832D02*
X350041Y321832D01*
X348177Y323696D01*
X348177Y327425D01*
X350041Y329289D01*
X353770Y329289D01*
X355634Y327425D01*
X355634Y323696D01*
X353770Y321832D01*
X343940Y323696D02*
X343940Y329289D01*
X343940Y323696D02*
X342076Y321832D01*
X340212Y323696D01*
X338348Y321832D01*
X336483Y323696D01*
X336483Y329289D01*
X332246Y329289D02*
X332246Y321832D01*
X332246Y329289D02*
X326654Y329289D01*
X324789Y327425D01*
X324789Y321832D01*
X308858Y321832D02*
X308858Y333018D01*
X308858Y321832D02*
X303266Y321832D01*
X301401Y323696D01*
X301401Y327425D01*
X303266Y329289D01*
X308858Y329289D01*
X297164Y329289D02*
X297164Y323696D01*
X295300Y321832D01*
X289707Y321832D01*
X289707Y329289D01*
X283606Y331153D02*
X283606Y323696D01*
X281742Y321832D01*
X281742Y329289D02*
X285470Y329289D01*
X275810Y331153D02*
X275810Y323696D01*
X273946Y321832D01*
X273946Y329289D02*
X277674Y329289D01*
X268014Y321832D02*
X264286Y321832D01*
X262421Y323696D01*
X262421Y327425D01*
X264286Y329289D01*
X268014Y329289D01*
X269878Y327425D01*
X269878Y323696D01*
X268014Y321832D01*
X258185Y321832D02*
X258185Y329289D01*
X252592Y329289D01*
X250727Y327425D01*
X250727Y321832D01*
X246491Y321832D02*
X240898Y321832D01*
X239034Y323696D01*
X240898Y325561D01*
X244626Y325561D01*
X246491Y327425D01*
X244626Y329289D01*
X239034Y329289D01*
X221238Y331153D02*
X221238Y321832D01*
X221238Y331153D02*
X219374Y333018D01*
X219374Y327425D02*
X223103Y327425D01*
X213442Y321832D02*
X209714Y321832D01*
X207850Y323696D01*
X207850Y327425D01*
X209714Y329289D01*
X213442Y329289D01*
X215307Y327425D01*
X215307Y323696D01*
X213442Y321832D01*
X203613Y321832D02*
X203613Y329289D01*
X203613Y325561D02*
X199884Y329289D01*
X198020Y329289D01*
X182174Y333018D02*
X180309Y333018D01*
X180309Y321832D01*
X178445Y321832D02*
X182174Y321832D01*
X172514Y321832D02*
X168785Y321832D01*
X166921Y323696D01*
X166921Y327425D01*
X168785Y329289D01*
X172514Y329289D01*
X174378Y327425D01*
X174378Y323696D01*
X172514Y321832D01*
X162684Y321832D02*
X162684Y329289D01*
X157091Y329289D01*
X155227Y327425D01*
X155227Y321832D01*
X147261Y318104D02*
X145397Y318104D01*
X143533Y319968D01*
X143533Y329289D01*
X149126Y329289D01*
X150990Y327425D01*
X150990Y323696D01*
X149126Y321832D01*
X143533Y321832D01*
X127602Y318104D02*
X127602Y329289D01*
X122009Y329289D01*
X120145Y327425D01*
X120145Y323696D01*
X122009Y321832D01*
X127602Y321832D01*
X114044Y321832D02*
X110315Y321832D01*
X114044Y321832D02*
X115908Y323696D01*
X115908Y327425D01*
X114044Y329289D01*
X110315Y329289D01*
X108451Y327425D01*
X108451Y325561D01*
X115908Y325561D01*
X104214Y329289D02*
X104214Y321832D01*
X104214Y325561D02*
X100485Y329289D01*
X98621Y329289D01*
X94469Y329289D02*
X92605Y329289D01*
X92605Y321832D01*
X94469Y321832D02*
X90740Y321832D01*
X92605Y333018D02*
X92605Y334882D01*
X84809Y321832D02*
X81080Y321832D01*
X79216Y323696D01*
X79216Y327425D01*
X81080Y329289D01*
X84809Y329289D01*
X86673Y327425D01*
X86673Y323696D01*
X84809Y321832D01*
X67522Y321832D02*
X67522Y333018D01*
X67522Y321832D02*
X73115Y321832D01*
X74979Y323696D01*
X74979Y327425D01*
X73115Y329289D01*
X67522Y329289D01*
X63285Y321832D02*
X57692Y321832D01*
X55828Y323696D01*
X57692Y325561D01*
X61421Y325561D01*
X63285Y327425D01*
X61421Y329289D01*
X55828Y329289D01*
X426137Y308375D02*
X433594Y308375D01*
X418172Y302782D02*
X418172Y313968D01*
X421900Y313968D02*
X414443Y313968D01*
X410206Y310239D02*
X410206Y302782D01*
X410206Y306511D02*
X406478Y310239D01*
X404613Y310239D01*
X400461Y310239D02*
X400461Y304646D01*
X398597Y302782D01*
X393004Y302782D01*
X393004Y300918D02*
X393004Y310239D01*
X393004Y300918D02*
X394868Y299054D01*
X396733Y299054D01*
X377073Y299054D02*
X377073Y310239D01*
X371480Y310239D01*
X369616Y308375D01*
X369616Y304646D01*
X371480Y302782D01*
X377073Y302782D01*
X365379Y302782D02*
X365379Y310239D01*
X365379Y306511D02*
X361651Y310239D01*
X359786Y310239D01*
X353770Y302782D02*
X350041Y302782D01*
X353770Y302782D02*
X355634Y304646D01*
X355634Y308375D01*
X353770Y310239D01*
X350041Y310239D01*
X348177Y308375D01*
X348177Y306511D01*
X355634Y306511D01*
X343940Y302782D02*
X338348Y302782D01*
X336483Y304646D01*
X338348Y306511D01*
X342076Y306511D01*
X343940Y308375D01*
X342076Y310239D01*
X336483Y310239D01*
X332246Y302782D02*
X326654Y302782D01*
X324789Y304646D01*
X326654Y306511D01*
X330382Y306511D01*
X332246Y308375D01*
X330382Y310239D01*
X324789Y310239D01*
X320552Y310239D02*
X318688Y310239D01*
X318688Y302782D01*
X320552Y302782D02*
X316824Y302782D01*
X318688Y313968D02*
X318688Y315832D01*
X312756Y310239D02*
X312756Y302782D01*
X312756Y310239D02*
X307164Y310239D01*
X305299Y308375D01*
X305299Y302782D01*
X297334Y299054D02*
X295470Y299054D01*
X293605Y300918D01*
X293605Y310239D01*
X299198Y310239D01*
X301062Y308375D01*
X301062Y304646D01*
X299198Y302782D01*
X293605Y302782D01*
X275810Y302782D02*
X272082Y302782D01*
X270217Y304646D01*
X270217Y308375D01*
X272082Y310239D01*
X275810Y310239D01*
X277674Y308375D01*
X277674Y304646D01*
X275810Y302782D01*
X265980Y302782D02*
X265980Y310239D01*
X260388Y310239D01*
X258523Y308375D01*
X258523Y302782D01*
X252422Y302782D02*
X248694Y302782D01*
X252422Y302782D02*
X254287Y304646D01*
X254287Y308375D01*
X252422Y310239D01*
X248694Y310239D01*
X246829Y308375D01*
X246829Y306511D01*
X254287Y306511D01*
X229034Y302782D02*
X225306Y302782D01*
X223442Y304646D01*
X223442Y308375D01*
X225306Y310239D01*
X229034Y310239D01*
X230899Y308375D01*
X230899Y304646D01*
X229034Y302782D01*
X219205Y302782D02*
X219205Y310239D01*
X219205Y306511D02*
X215476Y310239D01*
X213612Y310239D01*
X195901Y302782D02*
X192173Y302782D01*
X190309Y304646D01*
X190309Y308375D01*
X192173Y310239D01*
X195901Y310239D01*
X197766Y308375D01*
X197766Y304646D01*
X195901Y302782D01*
X184207Y304646D02*
X184207Y312103D01*
X184207Y304646D02*
X182343Y302782D01*
X182343Y310239D02*
X186072Y310239D01*
X178276Y313968D02*
X178276Y302782D01*
X178276Y308375D02*
X176411Y310239D01*
X172683Y310239D01*
X170819Y308375D01*
X170819Y302782D01*
X164718Y302782D02*
X160989Y302782D01*
X164718Y302782D02*
X166582Y304646D01*
X166582Y308375D01*
X164718Y310239D01*
X160989Y310239D01*
X159125Y308375D01*
X159125Y306511D01*
X166582Y306511D01*
X154888Y310239D02*
X154888Y302782D01*
X154888Y306511D02*
X151159Y310239D01*
X149295Y310239D01*
X133449Y310239D02*
X133449Y302782D01*
X133449Y306511D02*
X129720Y310239D01*
X127856Y310239D01*
X121840Y310239D02*
X118111Y310239D01*
X116247Y308375D01*
X116247Y302782D01*
X121840Y302782D01*
X123704Y304646D01*
X121840Y306511D01*
X116247Y306511D01*
X112010Y310239D02*
X112010Y299054D01*
X112010Y310239D02*
X106417Y310239D01*
X104553Y308375D01*
X104553Y304646D01*
X106417Y302782D01*
X112010Y302782D01*
X100316Y310239D02*
X98452Y310239D01*
X98452Y302782D01*
X100316Y302782D02*
X96587Y302782D01*
X98452Y313968D02*
X98452Y315832D01*
X85063Y313968D02*
X85063Y302782D01*
X90656Y302782D01*
X92520Y304646D01*
X92520Y308375D01*
X90656Y310239D01*
X85063Y310239D01*
X80826Y313968D02*
X78962Y313968D01*
X78962Y302782D01*
X80826Y302782D02*
X77098Y302782D01*
X73030Y304646D02*
X73030Y310239D01*
X73030Y304646D02*
X71166Y302782D01*
X65573Y302782D01*
X65573Y300918D02*
X65573Y310239D01*
X65573Y300918D02*
X67437Y299054D01*
X69302Y299054D01*
D10*
X261076Y842010D02*
X261078Y842129D01*
X261084Y842249D01*
X261094Y842368D01*
X261108Y842486D01*
X261126Y842604D01*
X261147Y842722D01*
X261173Y842838D01*
X261202Y842954D01*
X261236Y843069D01*
X261273Y843182D01*
X261314Y843294D01*
X261358Y843405D01*
X261406Y843515D01*
X261458Y843622D01*
X261513Y843728D01*
X261572Y843832D01*
X261635Y843934D01*
X261700Y844033D01*
X261769Y844131D01*
X261841Y844226D01*
X261916Y844319D01*
X261995Y844409D01*
X262076Y844497D01*
X262160Y844581D01*
X262247Y844663D01*
X262336Y844742D01*
X262428Y844818D01*
X262523Y844891D01*
X262620Y844961D01*
X262719Y845027D01*
X262821Y845090D01*
X262924Y845150D01*
X263029Y845206D01*
X263136Y845259D01*
X263245Y845308D01*
X263356Y845354D01*
X263468Y845395D01*
X263581Y845433D01*
X263695Y845468D01*
X263811Y845498D01*
X263927Y845525D01*
X264044Y845547D01*
X264162Y845566D01*
X264281Y845581D01*
X264400Y845592D01*
X264519Y845599D01*
X264638Y845602D01*
X264758Y845601D01*
X264877Y845596D01*
X264996Y845587D01*
X265115Y845574D01*
X265233Y845557D01*
X265350Y845537D01*
X265467Y845512D01*
X265583Y845483D01*
X265698Y845451D01*
X265812Y845415D01*
X265925Y845375D01*
X266036Y845331D01*
X266145Y845284D01*
X266253Y845233D01*
X266360Y845179D01*
X266464Y845121D01*
X266566Y845059D01*
X266667Y844995D01*
X266765Y844926D01*
X266861Y844855D01*
X266954Y844781D01*
X267045Y844703D01*
X267133Y844623D01*
X267218Y844539D01*
X267301Y844453D01*
X267381Y844364D01*
X267458Y844273D01*
X267531Y844179D01*
X267602Y844082D01*
X267669Y843984D01*
X267733Y843883D01*
X267794Y843780D01*
X267851Y843675D01*
X267904Y843569D01*
X267954Y843460D01*
X268001Y843350D01*
X268043Y843239D01*
X268082Y843126D01*
X268118Y843012D01*
X268149Y842896D01*
X268176Y842780D01*
X268200Y842663D01*
X268220Y842545D01*
X268236Y842427D01*
X268248Y842308D01*
X268256Y842189D01*
X268260Y842070D01*
X268260Y841950D01*
X268256Y841831D01*
X268248Y841712D01*
X268236Y841593D01*
X268220Y841475D01*
X268200Y841357D01*
X268176Y841240D01*
X268149Y841124D01*
X268118Y841008D01*
X268082Y840894D01*
X268043Y840781D01*
X268001Y840670D01*
X267954Y840560D01*
X267904Y840451D01*
X267851Y840345D01*
X267794Y840240D01*
X267733Y840137D01*
X267669Y840036D01*
X267602Y839938D01*
X267531Y839841D01*
X267458Y839747D01*
X267381Y839656D01*
X267301Y839567D01*
X267218Y839481D01*
X267133Y839397D01*
X267045Y839317D01*
X266954Y839239D01*
X266861Y839165D01*
X266765Y839094D01*
X266667Y839025D01*
X266566Y838961D01*
X266464Y838899D01*
X266360Y838841D01*
X266253Y838787D01*
X266145Y838736D01*
X266036Y838689D01*
X265925Y838645D01*
X265812Y838605D01*
X265698Y838569D01*
X265583Y838537D01*
X265467Y838508D01*
X265350Y838483D01*
X265233Y838463D01*
X265115Y838446D01*
X264996Y838433D01*
X264877Y838424D01*
X264758Y838419D01*
X264638Y838418D01*
X264519Y838421D01*
X264400Y838428D01*
X264281Y838439D01*
X264162Y838454D01*
X264044Y838473D01*
X263927Y838495D01*
X263811Y838522D01*
X263695Y838552D01*
X263581Y838587D01*
X263468Y838625D01*
X263356Y838666D01*
X263245Y838712D01*
X263136Y838761D01*
X263029Y838814D01*
X262924Y838870D01*
X262821Y838930D01*
X262719Y838993D01*
X262620Y839059D01*
X262523Y839129D01*
X262428Y839202D01*
X262336Y839278D01*
X262247Y839357D01*
X262160Y839439D01*
X262076Y839523D01*
X261995Y839611D01*
X261916Y839701D01*
X261841Y839794D01*
X261769Y839889D01*
X261700Y839987D01*
X261635Y840086D01*
X261572Y840188D01*
X261513Y840292D01*
X261458Y840398D01*
X261406Y840505D01*
X261358Y840615D01*
X261314Y840726D01*
X261273Y840838D01*
X261236Y840951D01*
X261202Y841066D01*
X261173Y841182D01*
X261147Y841298D01*
X261126Y841416D01*
X261108Y841534D01*
X261094Y841652D01*
X261084Y841771D01*
X261078Y841891D01*
X261076Y842010D01*
D11*
X354690Y847891D02*
X357744Y850030D01*
X356217Y848960D02*
X349802Y858123D01*
X351329Y859192D02*
X348275Y857054D01*
X340361Y851513D02*
X339904Y848916D01*
X340361Y851513D02*
X343416Y853651D01*
X346012Y853194D01*
X350289Y847085D01*
X349831Y844489D01*
X346777Y842350D01*
X344181Y842808D01*
X330782Y844805D02*
X330324Y842209D01*
X330782Y844805D02*
X333836Y846944D01*
X336433Y846486D01*
X337502Y844959D01*
X337044Y842363D01*
X333990Y840224D01*
X333532Y837628D01*
X334602Y836100D01*
X337198Y835643D01*
X340252Y837781D01*
X340710Y840378D01*
X332200Y832143D02*
X325784Y841306D01*
X321203Y838098D01*
X320745Y835502D01*
X322884Y832447D01*
X325480Y831989D01*
X330062Y835197D01*
X449538Y699825D02*
X445809Y692368D01*
X442081Y699825D01*
X437844Y703554D02*
X430387Y703554D01*
X437844Y703554D02*
X437844Y697961D01*
X434116Y699825D01*
X432251Y699825D01*
X430387Y697961D01*
X430387Y694232D01*
X432251Y692368D01*
X435980Y692368D01*
X437844Y694232D01*
X853365Y302787D02*
X860822Y302787D01*
X849128Y297194D02*
X849128Y308380D01*
X843535Y308380D01*
X841671Y306515D01*
X841671Y304651D01*
X843535Y302787D01*
X841671Y300923D01*
X841671Y299058D01*
X843535Y297194D01*
X849128Y297194D01*
X849128Y302787D02*
X843535Y302787D01*
X835570Y297194D02*
X831841Y297194D01*
X835570Y297194D02*
X837434Y299058D01*
X837434Y302787D01*
X835570Y304651D01*
X831841Y304651D01*
X829977Y302787D01*
X829977Y300923D01*
X837434Y300923D01*
X814046Y297194D02*
X808453Y297194D01*
X806589Y299058D01*
X808453Y300923D01*
X812182Y300923D01*
X814046Y302787D01*
X812182Y304651D01*
X806589Y304651D01*
X802352Y304651D02*
X802352Y299058D01*
X800488Y297194D01*
X794895Y297194D01*
X794895Y304651D01*
X790658Y304651D02*
X790658Y297194D01*
X790658Y300923D02*
X786930Y304651D01*
X785065Y304651D01*
X779049Y297194D02*
X775320Y297194D01*
X779049Y297194D02*
X780913Y299058D01*
X780913Y302787D01*
X779049Y304651D01*
X775320Y304651D01*
X773456Y302787D01*
X773456Y300923D01*
X780913Y300923D01*
X755661Y299058D02*
X755661Y306515D01*
X755661Y299058D02*
X753797Y297194D01*
X753797Y304651D02*
X757525Y304651D01*
X747865Y297194D02*
X744137Y297194D01*
X742272Y299058D01*
X742272Y302787D01*
X744137Y304651D01*
X747865Y304651D01*
X749729Y302787D01*
X749729Y299058D01*
X747865Y297194D01*
X726341Y308380D02*
X724477Y308380D01*
X724477Y297194D01*
X726341Y297194D02*
X722613Y297194D01*
X718545Y304651D02*
X716681Y304651D01*
X716681Y297194D01*
X718545Y297194D02*
X714817Y297194D01*
X716681Y308380D02*
X716681Y310244D01*
X710749Y304651D02*
X710749Y297194D01*
X710749Y304651D02*
X705157Y304651D01*
X703292Y302787D01*
X703292Y297194D01*
X697191Y297194D02*
X693463Y297194D01*
X697191Y297194D02*
X699055Y299058D01*
X699055Y302787D01*
X697191Y304651D01*
X693463Y304651D01*
X691598Y302787D01*
X691598Y300923D01*
X699055Y300923D01*
X675668Y299058D02*
X675668Y304651D01*
X675668Y299058D02*
X673803Y297194D01*
X668211Y297194D01*
X668211Y304651D01*
X663974Y304651D02*
X663974Y293466D01*
X663974Y304651D02*
X658381Y304651D01*
X656517Y302787D01*
X656517Y299058D01*
X658381Y297194D01*
X663974Y297194D01*
X640586Y297194D02*
X640586Y308380D01*
X640586Y297194D02*
X634993Y297194D01*
X633129Y299058D01*
X633129Y302787D01*
X634993Y304651D01*
X640586Y304651D01*
X627027Y304651D02*
X623299Y304651D01*
X621435Y302787D01*
X621435Y297194D01*
X627027Y297194D01*
X628892Y299058D01*
X627027Y300923D01*
X621435Y300923D01*
X615333Y299058D02*
X615333Y306515D01*
X615333Y299058D02*
X613469Y297194D01*
X613469Y304651D02*
X617198Y304651D01*
X607537Y306515D02*
X607537Y299058D01*
X605673Y297194D01*
X605673Y304651D02*
X609402Y304651D01*
X599742Y297194D02*
X596013Y297194D01*
X599742Y297194D02*
X601606Y299058D01*
X601606Y302787D01*
X599742Y304651D01*
X596013Y304651D01*
X594149Y302787D01*
X594149Y300923D01*
X601606Y300923D01*
X589912Y304651D02*
X589912Y297194D01*
X589912Y300923D02*
X586183Y304651D01*
X584319Y304651D01*
X580167Y304651D02*
X580167Y299058D01*
X578303Y297194D01*
X572710Y297194D01*
X572710Y295330D02*
X572710Y304651D01*
X572710Y295330D02*
X574574Y293466D01*
X576438Y293466D01*
X556779Y297194D02*
X556779Y308380D01*
X554915Y304651D02*
X556779Y302787D01*
X554915Y304651D02*
X551186Y304651D01*
X549322Y302787D01*
X549322Y297194D01*
X543221Y297194D02*
X539492Y297194D01*
X537628Y299058D01*
X537628Y302787D01*
X539492Y304651D01*
X543221Y304651D01*
X545085Y302787D01*
X545085Y299058D01*
X543221Y297194D01*
X533391Y308380D02*
X531527Y308380D01*
X531527Y297194D01*
X533391Y297194D02*
X529662Y297194D01*
X518138Y297194D02*
X518138Y308380D01*
X518138Y297194D02*
X523731Y297194D01*
X525595Y299058D01*
X525595Y302787D01*
X523731Y304651D01*
X518138Y304651D01*
X512037Y297194D02*
X508308Y297194D01*
X512037Y297194D02*
X513901Y299058D01*
X513901Y302787D01*
X512037Y304651D01*
X508308Y304651D01*
X506444Y302787D01*
X506444Y300923D01*
X513901Y300923D01*
X502207Y304651D02*
X502207Y297194D01*
X502207Y300923D02*
X498479Y304651D01*
X496614Y304651D01*
X814046Y285601D02*
X814046Y280008D01*
X812182Y278144D01*
X810318Y280008D01*
X808453Y278144D01*
X806589Y280008D01*
X806589Y285601D01*
X802352Y285601D02*
X800488Y285601D01*
X800488Y278144D01*
X802352Y278144D02*
X798624Y278144D01*
X800488Y289330D02*
X800488Y291194D01*
X792692Y287465D02*
X792692Y280008D01*
X790828Y278144D01*
X790828Y285601D02*
X794556Y285601D01*
X786760Y289330D02*
X786760Y278144D01*
X786760Y283737D02*
X784896Y285601D01*
X781167Y285601D01*
X779303Y283737D01*
X779303Y278144D01*
X761508Y278144D02*
X757780Y278144D01*
X755915Y280008D01*
X755915Y283737D01*
X757780Y285601D01*
X761508Y285601D01*
X763372Y283737D01*
X763372Y280008D01*
X761508Y278144D01*
X751678Y280008D02*
X751678Y285601D01*
X751678Y280008D02*
X749814Y278144D01*
X744221Y278144D01*
X744221Y285601D01*
X738120Y287465D02*
X738120Y280008D01*
X736256Y278144D01*
X736256Y285601D02*
X739984Y285601D01*
X732188Y289330D02*
X730324Y289330D01*
X730324Y278144D01*
X732188Y278144D02*
X728460Y278144D01*
X724392Y285601D02*
X722528Y285601D01*
X722528Y278144D01*
X724392Y278144D02*
X720664Y278144D01*
X722528Y289330D02*
X722528Y291194D01*
X716596Y285601D02*
X716596Y278144D01*
X716596Y285601D02*
X711004Y285601D01*
X709139Y283737D01*
X709139Y278144D01*
X703038Y278144D02*
X699310Y278144D01*
X703038Y278144D02*
X704902Y280008D01*
X704902Y283737D01*
X703038Y285601D01*
X699310Y285601D01*
X697445Y283737D01*
X697445Y281873D01*
X704902Y281873D01*
X679650Y278144D02*
X675922Y278144D01*
X674058Y280008D01*
X674058Y283737D01*
X675922Y285601D01*
X679650Y285601D01*
X681515Y283737D01*
X681515Y280008D01*
X679650Y278144D01*
X669821Y278144D02*
X669821Y285601D01*
X664228Y285601D01*
X662364Y283737D01*
X662364Y278144D01*
X646433Y278144D02*
X646433Y289330D01*
X646433Y278144D02*
X640840Y278144D01*
X638976Y280008D01*
X638976Y283737D01*
X640840Y285601D01*
X646433Y285601D01*
X632874Y278144D02*
X629146Y278144D01*
X627282Y280008D01*
X627282Y283737D01*
X629146Y285601D01*
X632874Y285601D01*
X634739Y283737D01*
X634739Y280008D01*
X632874Y278144D01*
X621180Y285601D02*
X617452Y285601D01*
X615588Y283737D01*
X615588Y278144D01*
X621180Y278144D01*
X623045Y280008D01*
X621180Y281873D01*
X615588Y281873D01*
X611351Y285601D02*
X611351Y278144D01*
X611351Y281873D02*
X607622Y285601D01*
X605758Y285601D01*
X594149Y289330D02*
X594149Y278144D01*
X599742Y278144D01*
X601606Y280008D01*
X601606Y283737D01*
X599742Y285601D01*
X594149Y285601D01*
X853365Y264687D02*
X860822Y264687D01*
X849128Y259094D02*
X849128Y270280D01*
X843535Y270280D01*
X841671Y268415D01*
X841671Y266551D01*
X843535Y264687D01*
X841671Y262823D01*
X841671Y260958D01*
X843535Y259094D01*
X849128Y259094D01*
X849128Y264687D02*
X843535Y264687D01*
X835570Y266551D02*
X831841Y266551D01*
X829977Y264687D01*
X829977Y259094D01*
X835570Y259094D01*
X837434Y260958D01*
X835570Y262823D01*
X829977Y262823D01*
X823876Y260958D02*
X823876Y268415D01*
X823876Y260958D02*
X822012Y259094D01*
X822012Y266551D02*
X825740Y266551D01*
X816080Y268415D02*
X816080Y260958D01*
X814216Y259094D01*
X814216Y266551D02*
X817944Y266551D01*
X808284Y259094D02*
X804555Y259094D01*
X808284Y259094D02*
X810148Y260958D01*
X810148Y264687D01*
X808284Y266551D01*
X804555Y266551D01*
X802691Y264687D01*
X802691Y262823D01*
X810148Y262823D01*
X798454Y266551D02*
X798454Y259094D01*
X798454Y262823D02*
X794726Y266551D01*
X792861Y266551D01*
X788709Y266551D02*
X788709Y260958D01*
X786845Y259094D01*
X781252Y259094D01*
X781252Y257230D02*
X781252Y266551D01*
X781252Y257230D02*
X783116Y255366D01*
X784981Y255366D01*
X761593Y255366D02*
X759729Y255366D01*
X757864Y257230D01*
X757864Y266551D01*
X763457Y266551D01*
X765321Y264687D01*
X765321Y260958D01*
X763457Y259094D01*
X757864Y259094D01*
X751763Y259094D02*
X748035Y259094D01*
X746170Y260958D01*
X746170Y264687D01*
X748035Y266551D01*
X751763Y266551D01*
X753627Y264687D01*
X753627Y260958D01*
X751763Y259094D01*
X740069Y259094D02*
X736341Y259094D01*
X740069Y259094D02*
X741933Y260958D01*
X741933Y264687D01*
X740069Y266551D01*
X736341Y266551D01*
X734476Y264687D01*
X734476Y262823D01*
X741933Y262823D01*
X730239Y259094D02*
X724647Y259094D01*
X722782Y260958D01*
X724647Y262823D01*
X728375Y262823D01*
X730239Y264687D01*
X728375Y266551D01*
X722782Y266551D01*
X706851Y266551D02*
X704987Y266551D01*
X704987Y259094D01*
X706851Y259094D02*
X703123Y259094D01*
X704987Y270280D02*
X704987Y272144D01*
X699055Y266551D02*
X699055Y259094D01*
X699055Y266551D02*
X693463Y266551D01*
X691598Y264687D01*
X691598Y259094D01*
X675668Y260958D02*
X675668Y266551D01*
X675668Y260958D02*
X673803Y259094D01*
X671939Y260958D01*
X670075Y259094D01*
X668211Y260958D01*
X668211Y266551D01*
X663974Y266551D02*
X662109Y266551D01*
X662109Y259094D01*
X660245Y259094D02*
X663974Y259094D01*
X662109Y270280D02*
X662109Y272144D01*
X654313Y268415D02*
X654313Y260958D01*
X652449Y259094D01*
X652449Y266551D02*
X656178Y266551D01*
X648382Y270280D02*
X648382Y259094D01*
X648382Y264687D02*
X646517Y266551D01*
X642789Y266551D01*
X640925Y264687D01*
X640925Y259094D01*
X624994Y264687D02*
X617537Y264687D01*
X621265Y268415D02*
X621265Y260958D01*
X601606Y259094D02*
X596013Y259094D01*
X594149Y260958D01*
X596013Y262823D01*
X599742Y262823D01*
X601606Y264687D01*
X599742Y266551D01*
X594149Y266551D01*
X589912Y266551D02*
X588048Y266551D01*
X588048Y259094D01*
X589912Y259094D02*
X586183Y259094D01*
X588048Y270280D02*
X588048Y272144D01*
X574659Y270280D02*
X574659Y259094D01*
X580252Y259094D01*
X582116Y260958D01*
X582116Y264687D01*
X580252Y266551D01*
X574659Y266551D01*
X568558Y259094D02*
X564829Y259094D01*
X568558Y259094D02*
X570422Y260958D01*
X570422Y264687D01*
X568558Y266551D01*
X564829Y266551D01*
X562965Y264687D01*
X562965Y262823D01*
X570422Y262823D01*
X547034Y260958D02*
X547034Y266551D01*
X547034Y260958D02*
X545170Y259094D01*
X539577Y259094D01*
X539577Y266551D01*
X535340Y266551D02*
X535340Y255366D01*
X535340Y266551D02*
X529747Y266551D01*
X527883Y264687D01*
X527883Y260958D01*
X529747Y259094D01*
X535340Y259094D01*
X433848Y288563D02*
X426391Y288563D01*
X416561Y294156D02*
X414697Y292291D01*
X416561Y294156D02*
X420290Y294156D01*
X422154Y292291D01*
X422154Y290427D01*
X420290Y288563D01*
X416561Y288563D01*
X414697Y286699D01*
X414697Y284834D01*
X416561Y282970D01*
X420290Y282970D01*
X422154Y284834D01*
X408596Y282970D02*
X404867Y282970D01*
X408596Y282970D02*
X410460Y284834D01*
X410460Y288563D01*
X408596Y290427D01*
X404867Y290427D01*
X403003Y288563D01*
X403003Y286699D01*
X410460Y286699D01*
X396902Y282970D02*
X393173Y282970D01*
X396902Y282970D02*
X398766Y284834D01*
X398766Y288563D01*
X396902Y290427D01*
X393173Y290427D01*
X391309Y288563D01*
X391309Y286699D01*
X398766Y286699D01*
X375378Y290427D02*
X373514Y290427D01*
X373514Y282970D01*
X375378Y282970D02*
X371650Y282970D01*
X373514Y294156D02*
X373514Y296020D01*
X365718Y292291D02*
X365718Y282970D01*
X365718Y292291D02*
X363854Y294156D01*
X363854Y288563D02*
X367582Y288563D01*
X348092Y290427D02*
X348092Y284834D01*
X346228Y282970D01*
X340635Y282970D01*
X340635Y281106D02*
X340635Y290427D01*
X340635Y281106D02*
X342500Y279242D01*
X344364Y279242D01*
X334534Y282970D02*
X330806Y282970D01*
X328941Y284834D01*
X328941Y288563D01*
X330806Y290427D01*
X334534Y290427D01*
X336398Y288563D01*
X336398Y284834D01*
X334534Y282970D01*
X324704Y284834D02*
X324704Y290427D01*
X324704Y284834D02*
X322840Y282970D01*
X317247Y282970D01*
X317247Y290427D01*
X299452Y290427D02*
X293859Y290427D01*
X299452Y290427D02*
X301316Y288563D01*
X301316Y284834D01*
X299452Y282970D01*
X293859Y282970D01*
X287758Y290427D02*
X284030Y290427D01*
X282165Y288563D01*
X282165Y282970D01*
X287758Y282970D01*
X289622Y284834D01*
X287758Y286699D01*
X282165Y286699D01*
X277928Y290427D02*
X277928Y282970D01*
X277928Y290427D02*
X272336Y290427D01*
X270471Y288563D01*
X270471Y282970D01*
X252676Y282970D02*
X252676Y292291D01*
X250812Y294156D01*
X250812Y288563D02*
X254541Y288563D01*
X246745Y290427D02*
X244880Y290427D01*
X244880Y282970D01*
X243016Y282970D02*
X246745Y282970D01*
X244880Y294156D02*
X244880Y296020D01*
X238949Y290427D02*
X238949Y282970D01*
X238949Y290427D02*
X233356Y290427D01*
X231492Y288563D01*
X231492Y282970D01*
X219798Y282970D02*
X219798Y294156D01*
X219798Y282970D02*
X225390Y282970D01*
X227255Y284834D01*
X227255Y288563D01*
X225390Y290427D01*
X219798Y290427D01*
X202002Y292291D02*
X202002Y296020D01*
X202002Y292291D02*
X203867Y290427D01*
X198020Y294156D02*
X198020Y282970D01*
X192427Y282970D01*
X190563Y284834D01*
X190563Y288563D01*
X192427Y290427D01*
X198020Y290427D01*
X186326Y294156D02*
X184461Y294156D01*
X184461Y282970D01*
X182597Y282970D02*
X186326Y282970D01*
X178530Y290427D02*
X176666Y290427D01*
X176666Y282970D01*
X178530Y282970D02*
X174801Y282970D01*
X176666Y294156D02*
X176666Y296020D01*
X170734Y290427D02*
X170734Y282970D01*
X170734Y290427D02*
X165141Y290427D01*
X163277Y288563D01*
X163277Y282970D01*
X159040Y282970D02*
X159040Y294156D01*
X159040Y286699D02*
X153447Y282970D01*
X159040Y286699D02*
X153447Y290427D01*
X149295Y290427D02*
X147431Y290427D01*
X147431Y282970D01*
X149295Y282970D02*
X145566Y282970D01*
X147431Y294156D02*
X147431Y296020D01*
X141499Y290427D02*
X141499Y282970D01*
X141499Y290427D02*
X135906Y290427D01*
X134042Y288563D01*
X134042Y282970D01*
X126076Y279242D02*
X124212Y279242D01*
X122348Y281106D01*
X122348Y290427D01*
X127941Y290427D01*
X129805Y288563D01*
X129805Y284834D01*
X127941Y282970D01*
X122348Y282970D01*
X116247Y292291D02*
X116247Y296020D01*
X116247Y292291D02*
X118111Y290427D01*
X100570Y290427D02*
X100570Y282970D01*
X100570Y290427D02*
X98706Y290427D01*
X96842Y288563D01*
X96842Y282970D01*
X96842Y288563D02*
X94977Y290427D01*
X93113Y288563D01*
X93113Y282970D01*
X87012Y282970D02*
X83283Y282970D01*
X87012Y282970D02*
X88876Y284834D01*
X88876Y288563D01*
X87012Y290427D01*
X83283Y290427D01*
X81419Y288563D01*
X81419Y286699D01*
X88876Y286699D01*
X77182Y290427D02*
X77182Y282970D01*
X77182Y290427D02*
X71589Y290427D01*
X69725Y288563D01*
X69725Y282970D01*
X65488Y284834D02*
X65488Y290427D01*
X65488Y284834D02*
X63624Y282970D01*
X58031Y282970D01*
X58031Y290427D01*
D13*
X865378Y323342D02*
X904240Y313436D01*
X893826Y323850D01*
X904240Y313436D02*
X891032Y308864D01*
D11*
X570738Y586826D02*
X568874Y584962D01*
X567010Y584962D01*
X565145Y586826D01*
X565145Y596148D01*
X563281Y596148D02*
X567010Y596148D01*
X559044Y596148D02*
X559044Y584962D01*
X551587Y584962D01*
X541757Y596148D02*
X539893Y594283D01*
X541757Y596148D02*
X545486Y596148D01*
X547350Y594283D01*
X547350Y586826D01*
X545486Y584962D01*
X541757Y584962D01*
X539893Y586826D01*
X535656Y586826D02*
X533792Y584962D01*
X531928Y584962D01*
X530063Y586826D01*
X530063Y596148D01*
X528199Y596148D02*
X531928Y596148D01*
X523962Y596148D02*
X523962Y584962D01*
X516505Y584962D01*
X506675Y596148D02*
X504811Y594283D01*
X506675Y596148D02*
X510404Y596148D01*
X512268Y594283D01*
X512268Y586826D01*
X510404Y584962D01*
X506675Y584962D01*
X504811Y586826D01*
X500574Y586826D02*
X498710Y584962D01*
X496846Y584962D01*
X494981Y586826D01*
X494981Y596148D01*
X493117Y596148D02*
X496846Y596148D01*
X488880Y596148D02*
X488880Y584962D01*
X481423Y584962D01*
X471594Y596148D02*
X469729Y594283D01*
X471594Y596148D02*
X475322Y596148D01*
X477186Y594283D01*
X477186Y586826D01*
X475322Y584962D01*
X471594Y584962D01*
X469729Y586826D01*
X465492Y586826D02*
X463628Y584962D01*
X461764Y584962D01*
X459900Y586826D01*
X459900Y596148D01*
X461764Y596148D02*
X458035Y596148D01*
X453798Y596148D02*
X453798Y584962D01*
X446341Y584962D01*
X436512Y596148D02*
X434647Y594283D01*
X436512Y596148D02*
X440240Y596148D01*
X442104Y594283D01*
X442104Y586826D01*
X440240Y584962D01*
X436512Y584962D01*
X434647Y586826D01*
D12*
X625000Y578400D02*
X625003Y578645D01*
X625012Y578891D01*
X625027Y579136D01*
X625048Y579380D01*
X625075Y579624D01*
X625108Y579867D01*
X625147Y580110D01*
X625192Y580351D01*
X625243Y580591D01*
X625300Y580830D01*
X625362Y581067D01*
X625431Y581303D01*
X625505Y581537D01*
X625585Y581769D01*
X625670Y581999D01*
X625761Y582227D01*
X625858Y582452D01*
X625960Y582676D01*
X626068Y582896D01*
X626181Y583114D01*
X626299Y583329D01*
X626423Y583541D01*
X626551Y583750D01*
X626685Y583956D01*
X626824Y584158D01*
X626968Y584357D01*
X627117Y584552D01*
X627270Y584744D01*
X627428Y584932D01*
X627590Y585116D01*
X627758Y585295D01*
X627929Y585471D01*
X628105Y585642D01*
X628284Y585810D01*
X628468Y585972D01*
X628656Y586130D01*
X628848Y586283D01*
X629043Y586432D01*
X629242Y586576D01*
X629444Y586715D01*
X629650Y586849D01*
X629859Y586977D01*
X630071Y587101D01*
X630286Y587219D01*
X630504Y587332D01*
X630724Y587440D01*
X630948Y587542D01*
X631173Y587639D01*
X631401Y587730D01*
X631631Y587815D01*
X631863Y587895D01*
X632097Y587969D01*
X632333Y588038D01*
X632570Y588100D01*
X632809Y588157D01*
X633049Y588208D01*
X633290Y588253D01*
X633533Y588292D01*
X633776Y588325D01*
X634020Y588352D01*
X634264Y588373D01*
X634509Y588388D01*
X634755Y588397D01*
X635000Y588400D01*
X635245Y588397D01*
X635491Y588388D01*
X635736Y588373D01*
X635980Y588352D01*
X636224Y588325D01*
X636467Y588292D01*
X636710Y588253D01*
X636951Y588208D01*
X637191Y588157D01*
X637430Y588100D01*
X637667Y588038D01*
X637903Y587969D01*
X638137Y587895D01*
X638369Y587815D01*
X638599Y587730D01*
X638827Y587639D01*
X639052Y587542D01*
X639276Y587440D01*
X639496Y587332D01*
X639714Y587219D01*
X639929Y587101D01*
X640141Y586977D01*
X640350Y586849D01*
X640556Y586715D01*
X640758Y586576D01*
X640957Y586432D01*
X641152Y586283D01*
X641344Y586130D01*
X641532Y585972D01*
X641716Y585810D01*
X641895Y585642D01*
X642071Y585471D01*
X642242Y585295D01*
X642410Y585116D01*
X642572Y584932D01*
X642730Y584744D01*
X642883Y584552D01*
X643032Y584357D01*
X643176Y584158D01*
X643315Y583956D01*
X643449Y583750D01*
X643577Y583541D01*
X643701Y583329D01*
X643819Y583114D01*
X643932Y582896D01*
X644040Y582676D01*
X644142Y582452D01*
X644239Y582227D01*
X644330Y581999D01*
X644415Y581769D01*
X644495Y581537D01*
X644569Y581303D01*
X644638Y581067D01*
X644700Y580830D01*
X644757Y580591D01*
X644808Y580351D01*
X644853Y580110D01*
X644892Y579867D01*
X644925Y579624D01*
X644952Y579380D01*
X644973Y579136D01*
X644988Y578891D01*
X644997Y578645D01*
X645000Y578400D01*
X644997Y578155D01*
X644988Y577909D01*
X644973Y577664D01*
X644952Y577420D01*
X644925Y577176D01*
X644892Y576933D01*
X644853Y576690D01*
X644808Y576449D01*
X644757Y576209D01*
X644700Y575970D01*
X644638Y575733D01*
X644569Y575497D01*
X644495Y575263D01*
X644415Y575031D01*
X644330Y574801D01*
X644239Y574573D01*
X644142Y574348D01*
X644040Y574124D01*
X643932Y573904D01*
X643819Y573686D01*
X643701Y573471D01*
X643577Y573259D01*
X643449Y573050D01*
X643315Y572844D01*
X643176Y572642D01*
X643032Y572443D01*
X642883Y572248D01*
X642730Y572056D01*
X642572Y571868D01*
X642410Y571684D01*
X642242Y571505D01*
X642071Y571329D01*
X641895Y571158D01*
X641716Y570990D01*
X641532Y570828D01*
X641344Y570670D01*
X641152Y570517D01*
X640957Y570368D01*
X640758Y570224D01*
X640556Y570085D01*
X640350Y569951D01*
X640141Y569823D01*
X639929Y569699D01*
X639714Y569581D01*
X639496Y569468D01*
X639276Y569360D01*
X639052Y569258D01*
X638827Y569161D01*
X638599Y569070D01*
X638369Y568985D01*
X638137Y568905D01*
X637903Y568831D01*
X637667Y568762D01*
X637430Y568700D01*
X637191Y568643D01*
X636951Y568592D01*
X636710Y568547D01*
X636467Y568508D01*
X636224Y568475D01*
X635980Y568448D01*
X635736Y568427D01*
X635491Y568412D01*
X635245Y568403D01*
X635000Y568400D01*
X634755Y568403D01*
X634509Y568412D01*
X634264Y568427D01*
X634020Y568448D01*
X633776Y568475D01*
X633533Y568508D01*
X633290Y568547D01*
X633049Y568592D01*
X632809Y568643D01*
X632570Y568700D01*
X632333Y568762D01*
X632097Y568831D01*
X631863Y568905D01*
X631631Y568985D01*
X631401Y569070D01*
X631173Y569161D01*
X630948Y569258D01*
X630724Y569360D01*
X630504Y569468D01*
X630286Y569581D01*
X630071Y569699D01*
X629859Y569823D01*
X629650Y569951D01*
X629444Y570085D01*
X629242Y570224D01*
X629043Y570368D01*
X628848Y570517D01*
X628656Y570670D01*
X628468Y570828D01*
X628284Y570990D01*
X628105Y571158D01*
X627929Y571329D01*
X627758Y571505D01*
X627590Y571684D01*
X627428Y571868D01*
X627270Y572056D01*
X627117Y572248D01*
X626968Y572443D01*
X626824Y572642D01*
X626685Y572844D01*
X626551Y573050D01*
X626423Y573259D01*
X626299Y573471D01*
X626181Y573686D01*
X626068Y573904D01*
X625960Y574124D01*
X625858Y574348D01*
X625761Y574573D01*
X625670Y574801D01*
X625585Y575031D01*
X625505Y575263D01*
X625431Y575497D01*
X625362Y575733D01*
X625300Y575970D01*
X625243Y576209D01*
X625192Y576449D01*
X625147Y576690D01*
X625108Y576933D01*
X625075Y577176D01*
X625048Y577420D01*
X625027Y577664D01*
X625012Y577909D01*
X625003Y578155D01*
X625000Y578400D01*
X625000Y488400D02*
X625003Y488645D01*
X625012Y488891D01*
X625027Y489136D01*
X625048Y489380D01*
X625075Y489624D01*
X625108Y489867D01*
X625147Y490110D01*
X625192Y490351D01*
X625243Y490591D01*
X625300Y490830D01*
X625362Y491067D01*
X625431Y491303D01*
X625505Y491537D01*
X625585Y491769D01*
X625670Y491999D01*
X625761Y492227D01*
X625858Y492452D01*
X625960Y492676D01*
X626068Y492896D01*
X626181Y493114D01*
X626299Y493329D01*
X626423Y493541D01*
X626551Y493750D01*
X626685Y493956D01*
X626824Y494158D01*
X626968Y494357D01*
X627117Y494552D01*
X627270Y494744D01*
X627428Y494932D01*
X627590Y495116D01*
X627758Y495295D01*
X627929Y495471D01*
X628105Y495642D01*
X628284Y495810D01*
X628468Y495972D01*
X628656Y496130D01*
X628848Y496283D01*
X629043Y496432D01*
X629242Y496576D01*
X629444Y496715D01*
X629650Y496849D01*
X629859Y496977D01*
X630071Y497101D01*
X630286Y497219D01*
X630504Y497332D01*
X630724Y497440D01*
X630948Y497542D01*
X631173Y497639D01*
X631401Y497730D01*
X631631Y497815D01*
X631863Y497895D01*
X632097Y497969D01*
X632333Y498038D01*
X632570Y498100D01*
X632809Y498157D01*
X633049Y498208D01*
X633290Y498253D01*
X633533Y498292D01*
X633776Y498325D01*
X634020Y498352D01*
X634264Y498373D01*
X634509Y498388D01*
X634755Y498397D01*
X635000Y498400D01*
X635245Y498397D01*
X635491Y498388D01*
X635736Y498373D01*
X635980Y498352D01*
X636224Y498325D01*
X636467Y498292D01*
X636710Y498253D01*
X636951Y498208D01*
X637191Y498157D01*
X637430Y498100D01*
X637667Y498038D01*
X637903Y497969D01*
X638137Y497895D01*
X638369Y497815D01*
X638599Y497730D01*
X638827Y497639D01*
X639052Y497542D01*
X639276Y497440D01*
X639496Y497332D01*
X639714Y497219D01*
X639929Y497101D01*
X640141Y496977D01*
X640350Y496849D01*
X640556Y496715D01*
X640758Y496576D01*
X640957Y496432D01*
X641152Y496283D01*
X641344Y496130D01*
X641532Y495972D01*
X641716Y495810D01*
X641895Y495642D01*
X642071Y495471D01*
X642242Y495295D01*
X642410Y495116D01*
X642572Y494932D01*
X642730Y494744D01*
X642883Y494552D01*
X643032Y494357D01*
X643176Y494158D01*
X643315Y493956D01*
X643449Y493750D01*
X643577Y493541D01*
X643701Y493329D01*
X643819Y493114D01*
X643932Y492896D01*
X644040Y492676D01*
X644142Y492452D01*
X644239Y492227D01*
X644330Y491999D01*
X644415Y491769D01*
X644495Y491537D01*
X644569Y491303D01*
X644638Y491067D01*
X644700Y490830D01*
X644757Y490591D01*
X644808Y490351D01*
X644853Y490110D01*
X644892Y489867D01*
X644925Y489624D01*
X644952Y489380D01*
X644973Y489136D01*
X644988Y488891D01*
X644997Y488645D01*
X645000Y488400D01*
X644997Y488155D01*
X644988Y487909D01*
X644973Y487664D01*
X644952Y487420D01*
X644925Y487176D01*
X644892Y486933D01*
X644853Y486690D01*
X644808Y486449D01*
X644757Y486209D01*
X644700Y485970D01*
X644638Y485733D01*
X644569Y485497D01*
X644495Y485263D01*
X644415Y485031D01*
X644330Y484801D01*
X644239Y484573D01*
X644142Y484348D01*
X644040Y484124D01*
X643932Y483904D01*
X643819Y483686D01*
X643701Y483471D01*
X643577Y483259D01*
X643449Y483050D01*
X643315Y482844D01*
X643176Y482642D01*
X643032Y482443D01*
X642883Y482248D01*
X642730Y482056D01*
X642572Y481868D01*
X642410Y481684D01*
X642242Y481505D01*
X642071Y481329D01*
X641895Y481158D01*
X641716Y480990D01*
X641532Y480828D01*
X641344Y480670D01*
X641152Y480517D01*
X640957Y480368D01*
X640758Y480224D01*
X640556Y480085D01*
X640350Y479951D01*
X640141Y479823D01*
X639929Y479699D01*
X639714Y479581D01*
X639496Y479468D01*
X639276Y479360D01*
X639052Y479258D01*
X638827Y479161D01*
X638599Y479070D01*
X638369Y478985D01*
X638137Y478905D01*
X637903Y478831D01*
X637667Y478762D01*
X637430Y478700D01*
X637191Y478643D01*
X636951Y478592D01*
X636710Y478547D01*
X636467Y478508D01*
X636224Y478475D01*
X635980Y478448D01*
X635736Y478427D01*
X635491Y478412D01*
X635245Y478403D01*
X635000Y478400D01*
X634755Y478403D01*
X634509Y478412D01*
X634264Y478427D01*
X634020Y478448D01*
X633776Y478475D01*
X633533Y478508D01*
X633290Y478547D01*
X633049Y478592D01*
X632809Y478643D01*
X632570Y478700D01*
X632333Y478762D01*
X632097Y478831D01*
X631863Y478905D01*
X631631Y478985D01*
X631401Y479070D01*
X631173Y479161D01*
X630948Y479258D01*
X630724Y479360D01*
X630504Y479468D01*
X630286Y479581D01*
X630071Y479699D01*
X629859Y479823D01*
X629650Y479951D01*
X629444Y480085D01*
X629242Y480224D01*
X629043Y480368D01*
X628848Y480517D01*
X628656Y480670D01*
X628468Y480828D01*
X628284Y480990D01*
X628105Y481158D01*
X627929Y481329D01*
X627758Y481505D01*
X627590Y481684D01*
X627428Y481868D01*
X627270Y482056D01*
X627117Y482248D01*
X626968Y482443D01*
X626824Y482642D01*
X626685Y482844D01*
X626551Y483050D01*
X626423Y483259D01*
X626299Y483471D01*
X626181Y483686D01*
X626068Y483904D01*
X625960Y484124D01*
X625858Y484348D01*
X625761Y484573D01*
X625670Y484801D01*
X625585Y485031D01*
X625505Y485263D01*
X625431Y485497D01*
X625362Y485733D01*
X625300Y485970D01*
X625243Y486209D01*
X625192Y486449D01*
X625147Y486690D01*
X625108Y486933D01*
X625075Y487176D01*
X625048Y487420D01*
X625027Y487664D01*
X625012Y487909D01*
X625003Y488155D01*
X625000Y488400D01*
X371000Y578400D02*
X371003Y578645D01*
X371012Y578891D01*
X371027Y579136D01*
X371048Y579380D01*
X371075Y579624D01*
X371108Y579867D01*
X371147Y580110D01*
X371192Y580351D01*
X371243Y580591D01*
X371300Y580830D01*
X371362Y581067D01*
X371431Y581303D01*
X371505Y581537D01*
X371585Y581769D01*
X371670Y581999D01*
X371761Y582227D01*
X371858Y582452D01*
X371960Y582676D01*
X372068Y582896D01*
X372181Y583114D01*
X372299Y583329D01*
X372423Y583541D01*
X372551Y583750D01*
X372685Y583956D01*
X372824Y584158D01*
X372968Y584357D01*
X373117Y584552D01*
X373270Y584744D01*
X373428Y584932D01*
X373590Y585116D01*
X373758Y585295D01*
X373929Y585471D01*
X374105Y585642D01*
X374284Y585810D01*
X374468Y585972D01*
X374656Y586130D01*
X374848Y586283D01*
X375043Y586432D01*
X375242Y586576D01*
X375444Y586715D01*
X375650Y586849D01*
X375859Y586977D01*
X376071Y587101D01*
X376286Y587219D01*
X376504Y587332D01*
X376724Y587440D01*
X376948Y587542D01*
X377173Y587639D01*
X377401Y587730D01*
X377631Y587815D01*
X377863Y587895D01*
X378097Y587969D01*
X378333Y588038D01*
X378570Y588100D01*
X378809Y588157D01*
X379049Y588208D01*
X379290Y588253D01*
X379533Y588292D01*
X379776Y588325D01*
X380020Y588352D01*
X380264Y588373D01*
X380509Y588388D01*
X380755Y588397D01*
X381000Y588400D01*
X381245Y588397D01*
X381491Y588388D01*
X381736Y588373D01*
X381980Y588352D01*
X382224Y588325D01*
X382467Y588292D01*
X382710Y588253D01*
X382951Y588208D01*
X383191Y588157D01*
X383430Y588100D01*
X383667Y588038D01*
X383903Y587969D01*
X384137Y587895D01*
X384369Y587815D01*
X384599Y587730D01*
X384827Y587639D01*
X385052Y587542D01*
X385276Y587440D01*
X385496Y587332D01*
X385714Y587219D01*
X385929Y587101D01*
X386141Y586977D01*
X386350Y586849D01*
X386556Y586715D01*
X386758Y586576D01*
X386957Y586432D01*
X387152Y586283D01*
X387344Y586130D01*
X387532Y585972D01*
X387716Y585810D01*
X387895Y585642D01*
X388071Y585471D01*
X388242Y585295D01*
X388410Y585116D01*
X388572Y584932D01*
X388730Y584744D01*
X388883Y584552D01*
X389032Y584357D01*
X389176Y584158D01*
X389315Y583956D01*
X389449Y583750D01*
X389577Y583541D01*
X389701Y583329D01*
X389819Y583114D01*
X389932Y582896D01*
X390040Y582676D01*
X390142Y582452D01*
X390239Y582227D01*
X390330Y581999D01*
X390415Y581769D01*
X390495Y581537D01*
X390569Y581303D01*
X390638Y581067D01*
X390700Y580830D01*
X390757Y580591D01*
X390808Y580351D01*
X390853Y580110D01*
X390892Y579867D01*
X390925Y579624D01*
X390952Y579380D01*
X390973Y579136D01*
X390988Y578891D01*
X390997Y578645D01*
X391000Y578400D01*
X390997Y578155D01*
X390988Y577909D01*
X390973Y577664D01*
X390952Y577420D01*
X390925Y577176D01*
X390892Y576933D01*
X390853Y576690D01*
X390808Y576449D01*
X390757Y576209D01*
X390700Y575970D01*
X390638Y575733D01*
X390569Y575497D01*
X390495Y575263D01*
X390415Y575031D01*
X390330Y574801D01*
X390239Y574573D01*
X390142Y574348D01*
X390040Y574124D01*
X389932Y573904D01*
X389819Y573686D01*
X389701Y573471D01*
X389577Y573259D01*
X389449Y573050D01*
X389315Y572844D01*
X389176Y572642D01*
X389032Y572443D01*
X388883Y572248D01*
X388730Y572056D01*
X388572Y571868D01*
X388410Y571684D01*
X388242Y571505D01*
X388071Y571329D01*
X387895Y571158D01*
X387716Y570990D01*
X387532Y570828D01*
X387344Y570670D01*
X387152Y570517D01*
X386957Y570368D01*
X386758Y570224D01*
X386556Y570085D01*
X386350Y569951D01*
X386141Y569823D01*
X385929Y569699D01*
X385714Y569581D01*
X385496Y569468D01*
X385276Y569360D01*
X385052Y569258D01*
X384827Y569161D01*
X384599Y569070D01*
X384369Y568985D01*
X384137Y568905D01*
X383903Y568831D01*
X383667Y568762D01*
X383430Y568700D01*
X383191Y568643D01*
X382951Y568592D01*
X382710Y568547D01*
X382467Y568508D01*
X382224Y568475D01*
X381980Y568448D01*
X381736Y568427D01*
X381491Y568412D01*
X381245Y568403D01*
X381000Y568400D01*
X380755Y568403D01*
X380509Y568412D01*
X380264Y568427D01*
X380020Y568448D01*
X379776Y568475D01*
X379533Y568508D01*
X379290Y568547D01*
X379049Y568592D01*
X378809Y568643D01*
X378570Y568700D01*
X378333Y568762D01*
X378097Y568831D01*
X377863Y568905D01*
X377631Y568985D01*
X377401Y569070D01*
X377173Y569161D01*
X376948Y569258D01*
X376724Y569360D01*
X376504Y569468D01*
X376286Y569581D01*
X376071Y569699D01*
X375859Y569823D01*
X375650Y569951D01*
X375444Y570085D01*
X375242Y570224D01*
X375043Y570368D01*
X374848Y570517D01*
X374656Y570670D01*
X374468Y570828D01*
X374284Y570990D01*
X374105Y571158D01*
X373929Y571329D01*
X373758Y571505D01*
X373590Y571684D01*
X373428Y571868D01*
X373270Y572056D01*
X373117Y572248D01*
X372968Y572443D01*
X372824Y572642D01*
X372685Y572844D01*
X372551Y573050D01*
X372423Y573259D01*
X372299Y573471D01*
X372181Y573686D01*
X372068Y573904D01*
X371960Y574124D01*
X371858Y574348D01*
X371761Y574573D01*
X371670Y574801D01*
X371585Y575031D01*
X371505Y575263D01*
X371431Y575497D01*
X371362Y575733D01*
X371300Y575970D01*
X371243Y576209D01*
X371192Y576449D01*
X371147Y576690D01*
X371108Y576933D01*
X371075Y577176D01*
X371048Y577420D01*
X371027Y577664D01*
X371012Y577909D01*
X371003Y578155D01*
X371000Y578400D01*
X371000Y488400D02*
X371003Y488645D01*
X371012Y488891D01*
X371027Y489136D01*
X371048Y489380D01*
X371075Y489624D01*
X371108Y489867D01*
X371147Y490110D01*
X371192Y490351D01*
X371243Y490591D01*
X371300Y490830D01*
X371362Y491067D01*
X371431Y491303D01*
X371505Y491537D01*
X371585Y491769D01*
X371670Y491999D01*
X371761Y492227D01*
X371858Y492452D01*
X371960Y492676D01*
X372068Y492896D01*
X372181Y493114D01*
X372299Y493329D01*
X372423Y493541D01*
X372551Y493750D01*
X372685Y493956D01*
X372824Y494158D01*
X372968Y494357D01*
X373117Y494552D01*
X373270Y494744D01*
X373428Y494932D01*
X373590Y495116D01*
X373758Y495295D01*
X373929Y495471D01*
X374105Y495642D01*
X374284Y495810D01*
X374468Y495972D01*
X374656Y496130D01*
X374848Y496283D01*
X375043Y496432D01*
X375242Y496576D01*
X375444Y496715D01*
X375650Y496849D01*
X375859Y496977D01*
X376071Y497101D01*
X376286Y497219D01*
X376504Y497332D01*
X376724Y497440D01*
X376948Y497542D01*
X377173Y497639D01*
X377401Y497730D01*
X377631Y497815D01*
X377863Y497895D01*
X378097Y497969D01*
X378333Y498038D01*
X378570Y498100D01*
X378809Y498157D01*
X379049Y498208D01*
X379290Y498253D01*
X379533Y498292D01*
X379776Y498325D01*
X380020Y498352D01*
X380264Y498373D01*
X380509Y498388D01*
X380755Y498397D01*
X381000Y498400D01*
X381245Y498397D01*
X381491Y498388D01*
X381736Y498373D01*
X381980Y498352D01*
X382224Y498325D01*
X382467Y498292D01*
X382710Y498253D01*
X382951Y498208D01*
X383191Y498157D01*
X383430Y498100D01*
X383667Y498038D01*
X383903Y497969D01*
X384137Y497895D01*
X384369Y497815D01*
X384599Y497730D01*
X384827Y497639D01*
X385052Y497542D01*
X385276Y497440D01*
X385496Y497332D01*
X385714Y497219D01*
X385929Y497101D01*
X386141Y496977D01*
X386350Y496849D01*
X386556Y496715D01*
X386758Y496576D01*
X386957Y496432D01*
X387152Y496283D01*
X387344Y496130D01*
X387532Y495972D01*
X387716Y495810D01*
X387895Y495642D01*
X388071Y495471D01*
X388242Y495295D01*
X388410Y495116D01*
X388572Y494932D01*
X388730Y494744D01*
X388883Y494552D01*
X389032Y494357D01*
X389176Y494158D01*
X389315Y493956D01*
X389449Y493750D01*
X389577Y493541D01*
X389701Y493329D01*
X389819Y493114D01*
X389932Y492896D01*
X390040Y492676D01*
X390142Y492452D01*
X390239Y492227D01*
X390330Y491999D01*
X390415Y491769D01*
X390495Y491537D01*
X390569Y491303D01*
X390638Y491067D01*
X390700Y490830D01*
X390757Y490591D01*
X390808Y490351D01*
X390853Y490110D01*
X390892Y489867D01*
X390925Y489624D01*
X390952Y489380D01*
X390973Y489136D01*
X390988Y488891D01*
X390997Y488645D01*
X391000Y488400D01*
X390997Y488155D01*
X390988Y487909D01*
X390973Y487664D01*
X390952Y487420D01*
X390925Y487176D01*
X390892Y486933D01*
X390853Y486690D01*
X390808Y486449D01*
X390757Y486209D01*
X390700Y485970D01*
X390638Y485733D01*
X390569Y485497D01*
X390495Y485263D01*
X390415Y485031D01*
X390330Y484801D01*
X390239Y484573D01*
X390142Y484348D01*
X390040Y484124D01*
X389932Y483904D01*
X389819Y483686D01*
X389701Y483471D01*
X389577Y483259D01*
X389449Y483050D01*
X389315Y482844D01*
X389176Y482642D01*
X389032Y482443D01*
X388883Y482248D01*
X388730Y482056D01*
X388572Y481868D01*
X388410Y481684D01*
X388242Y481505D01*
X388071Y481329D01*
X387895Y481158D01*
X387716Y480990D01*
X387532Y480828D01*
X387344Y480670D01*
X387152Y480517D01*
X386957Y480368D01*
X386758Y480224D01*
X386556Y480085D01*
X386350Y479951D01*
X386141Y479823D01*
X385929Y479699D01*
X385714Y479581D01*
X385496Y479468D01*
X385276Y479360D01*
X385052Y479258D01*
X384827Y479161D01*
X384599Y479070D01*
X384369Y478985D01*
X384137Y478905D01*
X383903Y478831D01*
X383667Y478762D01*
X383430Y478700D01*
X383191Y478643D01*
X382951Y478592D01*
X382710Y478547D01*
X382467Y478508D01*
X382224Y478475D01*
X381980Y478448D01*
X381736Y478427D01*
X381491Y478412D01*
X381245Y478403D01*
X381000Y478400D01*
X380755Y478403D01*
X380509Y478412D01*
X380264Y478427D01*
X380020Y478448D01*
X379776Y478475D01*
X379533Y478508D01*
X379290Y478547D01*
X379049Y478592D01*
X378809Y478643D01*
X378570Y478700D01*
X378333Y478762D01*
X378097Y478831D01*
X377863Y478905D01*
X377631Y478985D01*
X377401Y479070D01*
X377173Y479161D01*
X376948Y479258D01*
X376724Y479360D01*
X376504Y479468D01*
X376286Y479581D01*
X376071Y479699D01*
X375859Y479823D01*
X375650Y479951D01*
X375444Y480085D01*
X375242Y480224D01*
X375043Y480368D01*
X374848Y480517D01*
X374656Y480670D01*
X374468Y480828D01*
X374284Y480990D01*
X374105Y481158D01*
X373929Y481329D01*
X373758Y481505D01*
X373590Y481684D01*
X373428Y481868D01*
X373270Y482056D01*
X373117Y482248D01*
X372968Y482443D01*
X372824Y482642D01*
X372685Y482844D01*
X372551Y483050D01*
X372423Y483259D01*
X372299Y483471D01*
X372181Y483686D01*
X372068Y483904D01*
X371960Y484124D01*
X371858Y484348D01*
X371761Y484573D01*
X371670Y484801D01*
X371585Y485031D01*
X371505Y485263D01*
X371431Y485497D01*
X371362Y485733D01*
X371300Y485970D01*
X371243Y486209D01*
X371192Y486449D01*
X371147Y486690D01*
X371108Y486933D01*
X371075Y487176D01*
X371048Y487420D01*
X371027Y487664D01*
X371012Y487909D01*
X371003Y488155D01*
X371000Y488400D01*
D13*
X376690Y187660D02*
X376690Y176230D01*
X376690Y187660D02*
X376690Y195280D01*
X352560Y195280D01*
X352560Y199090D01*
X351290Y199090D01*
X351290Y187660D01*
X351290Y176230D01*
X362720Y176230D01*
X376690Y176230D01*
X376690Y187660D02*
X370340Y194010D01*
X363990Y187660D01*
X351290Y187660D01*
X365260Y182580D02*
X365260Y177500D01*
X365260Y182580D02*
X362720Y182580D01*
X362720Y176230D01*
M02*
