M48
;GenerationSoftware,Autodesk,EAGLE,8.7.0*%
;CreationDate,2018-04-26T15:22:54Z*%
FMAT,2
ICI,OFF
METRIC,TZ,000.000
T5C0.406
T4C0.813
T3C1.016
T2C1.300
T1C2.000
%
G90
M71
T1
X38100Y57840
X63500Y57840
X63500Y48840
X38100Y48840
T2
X31850Y50840
X31850Y55840
X44350Y55840
X25298Y75355
X42618Y85355
X57250Y50840
X69750Y55840
X57250Y55840
X44350Y50840
X69750Y50840
T3
X37038Y89560
X32639Y87020
X30439Y85750
X28240Y84480
X34839Y88290
T4
X80137Y12065
X80137Y14605
X59563Y5080
X59563Y7620
X33147Y7874
X92710Y31242
X92710Y33782
X91821Y19685
X91821Y22225
X8382Y34671
X8382Y37211
X9906Y24130
X9906Y26670
X18796Y13462
X18796Y16002
X33147Y10414
X56211Y62108
X68817Y63656
X31655Y62090
X44260Y63638
T5
X51435Y36195
X50165Y36195
X51689Y37465
X49911Y37465
X45720Y34925
X45720Y36195
X55880Y34925
X55880Y36195
M30