G75*
%MOIN*%
%OFA0B0*%
%FSLAX25Y25*%
%IPPOS*%
%LPD*%
%AMOC8*
5,1,8,0,0,1.08239X$1,22.5*
%
%ADD10C,0.00800*%
%ADD11C,0.00600*%
%ADD12C,0.00500*%
%ADD13C,0.00700*%
%ADD14C,0.00000*%
D10*
X0218603Y0051182D02*
X0223103Y0051182D01*
X0223103Y0053682D01*
X0224103Y0053682D01*
X0224103Y0051682D01*
X0223103Y0051182D02*
X0228603Y0051182D01*
X0228603Y0055682D01*
X0226103Y0058182D01*
X0223603Y0055682D01*
X0218603Y0055682D01*
X0218603Y0051182D01*
X0218603Y0055682D02*
X0218603Y0060182D01*
X0219103Y0060182D01*
X0219103Y0058682D01*
X0228603Y0058682D01*
X0228603Y0055682D01*
X0200437Y0253552D02*
X0200437Y0262760D01*
X0195833Y0262760D01*
X0194298Y0261225D01*
X0194298Y0258156D01*
X0195833Y0256621D01*
X0200437Y0256621D01*
X0203506Y0258156D02*
X0203506Y0261225D01*
X0205041Y0262760D01*
X0208110Y0262760D01*
X0209645Y0261225D01*
X0209645Y0258156D01*
X0208110Y0256621D01*
X0205041Y0256621D01*
X0203506Y0258156D01*
X0212714Y0256621D02*
X0212714Y0265829D01*
X0212714Y0261225D02*
X0218853Y0261225D01*
X0218853Y0256621D02*
X0218853Y0265829D01*
X0191229Y0265829D02*
X0191229Y0256621D01*
X0191229Y0259691D02*
X0186625Y0262760D01*
X0183556Y0262760D02*
X0182021Y0262760D01*
X0182021Y0256621D01*
X0180487Y0256621D02*
X0183556Y0256621D01*
X0186625Y0256621D02*
X0191229Y0259691D01*
X0182021Y0265829D02*
X0182021Y0267364D01*
X0177417Y0262760D02*
X0172813Y0262760D01*
X0171279Y0261225D01*
X0171279Y0256621D01*
X0168210Y0256621D02*
X0163606Y0256621D01*
X0162071Y0258156D01*
X0163606Y0259691D01*
X0166675Y0259691D01*
X0168210Y0261225D01*
X0166675Y0262760D01*
X0162071Y0262760D01*
X0149794Y0261225D02*
X0143655Y0261225D01*
X0140586Y0262760D02*
X0137517Y0262760D01*
X0139051Y0264294D02*
X0139051Y0258156D01*
X0137517Y0256621D01*
X0134447Y0256621D02*
X0134447Y0265829D01*
X0132913Y0262760D02*
X0129843Y0262760D01*
X0128309Y0261225D01*
X0128309Y0256621D01*
X0134447Y0261225D02*
X0132913Y0262760D01*
X0145190Y0265829D02*
X0145190Y0256621D01*
X0149794Y0261225D02*
X0145190Y0265829D01*
X0158751Y0284672D02*
X0161821Y0284672D01*
X0163355Y0286207D01*
X0163355Y0287742D01*
X0161821Y0289276D01*
X0158751Y0289276D01*
X0157217Y0287742D01*
X0157217Y0286207D01*
X0158751Y0284672D01*
X0158751Y0289276D02*
X0157217Y0290811D01*
X0157217Y0292346D01*
X0158751Y0293880D01*
X0161821Y0293880D01*
X0163355Y0292346D01*
X0163355Y0290811D01*
X0161821Y0289276D01*
X0166424Y0284672D02*
X0172563Y0284672D01*
X0169494Y0284672D02*
X0169494Y0293880D01*
X0172563Y0290811D01*
X0175632Y0292346D02*
X0175632Y0286207D01*
X0177167Y0284672D01*
X0180236Y0284672D01*
X0181771Y0286207D01*
X0175632Y0292346D01*
X0177167Y0293880D01*
X0180236Y0293880D01*
X0181771Y0292346D01*
X0181771Y0286207D01*
X0184840Y0284672D02*
X0190979Y0284672D01*
X0184840Y0290811D01*
X0184840Y0292346D01*
X0186375Y0293880D01*
X0189444Y0293880D01*
X0190979Y0292346D01*
X0177417Y0262760D02*
X0177417Y0256621D01*
D11*
X0001300Y0350001D02*
X0001300Y0001300D01*
X0360001Y0001300D01*
X0360001Y0350001D01*
X0001300Y0350001D01*
X0030424Y0172262D02*
X0030424Y0171194D01*
X0030424Y0169059D02*
X0030424Y0164789D01*
X0031491Y0164789D02*
X0029356Y0164789D01*
X0026127Y0165857D02*
X0025059Y0164789D01*
X0026127Y0165857D02*
X0026127Y0170127D01*
X0027194Y0169059D02*
X0025059Y0169059D01*
X0030424Y0169059D02*
X0031491Y0169059D01*
X0033666Y0171194D02*
X0037937Y0166924D01*
X0036869Y0167992D02*
X0033666Y0164789D01*
X0037937Y0164789D02*
X0037937Y0171194D01*
X0046551Y0169059D02*
X0047618Y0169059D01*
X0049754Y0166924D01*
X0049754Y0164789D02*
X0049754Y0169059D01*
X0051929Y0167992D02*
X0051929Y0166924D01*
X0056199Y0166924D01*
X0056199Y0165857D02*
X0056199Y0167992D01*
X0055131Y0169059D01*
X0052996Y0169059D01*
X0051929Y0167992D01*
X0052996Y0164789D02*
X0055131Y0164789D01*
X0056199Y0165857D01*
X0058374Y0164789D02*
X0061577Y0164789D01*
X0062645Y0165857D01*
X0062645Y0167992D01*
X0061577Y0169059D01*
X0058374Y0169059D01*
X0058374Y0171194D02*
X0058374Y0164789D01*
X0064806Y0164789D02*
X0066941Y0164789D01*
X0065874Y0164789D02*
X0065874Y0171194D01*
X0066941Y0171194D01*
X0069117Y0167992D02*
X0070184Y0169059D01*
X0072319Y0169059D01*
X0073387Y0167992D01*
X0073387Y0165857D01*
X0072319Y0164789D01*
X0070184Y0164789D01*
X0069117Y0165857D01*
X0069117Y0167992D01*
X0075562Y0166924D02*
X0075562Y0165857D01*
X0076630Y0164789D01*
X0078765Y0164789D01*
X0079832Y0165857D01*
X0078765Y0167992D02*
X0079832Y0169059D01*
X0079832Y0170127D01*
X0078765Y0171194D01*
X0076630Y0171194D01*
X0075562Y0170127D01*
X0076630Y0167992D02*
X0075562Y0166924D01*
X0076630Y0167992D02*
X0078765Y0167992D01*
X0088453Y0167992D02*
X0089521Y0169059D01*
X0091656Y0169059D01*
X0092723Y0167992D01*
X0092723Y0165857D01*
X0091656Y0164789D01*
X0089521Y0164789D01*
X0088453Y0165857D01*
X0088453Y0167992D01*
X0094899Y0171194D02*
X0099169Y0171194D01*
X0097034Y0171194D02*
X0097034Y0164789D01*
X0107790Y0164789D02*
X0107790Y0167992D01*
X0108857Y0169059D01*
X0112060Y0169059D01*
X0112060Y0164789D01*
X0115296Y0169059D02*
X0117431Y0166924D01*
X0117431Y0164789D02*
X0117431Y0169059D01*
X0115296Y0169059D02*
X0114228Y0169059D01*
X0119606Y0167992D02*
X0119606Y0164789D01*
X0122809Y0164789D01*
X0123877Y0165857D01*
X0122809Y0166924D01*
X0119606Y0166924D01*
X0119606Y0167992D02*
X0120674Y0169059D01*
X0122809Y0169059D01*
X0126052Y0167992D02*
X0126052Y0166924D01*
X0130322Y0166924D01*
X0130322Y0165857D02*
X0130322Y0167992D01*
X0129255Y0169059D01*
X0127119Y0169059D01*
X0126052Y0167992D01*
X0127119Y0164789D02*
X0129255Y0164789D01*
X0130322Y0165857D01*
X0132497Y0164789D02*
X0136768Y0164789D01*
X0136768Y0171194D01*
X0256108Y0158990D02*
X0256842Y0159724D01*
X0258310Y0159724D01*
X0259044Y0158990D01*
X0259044Y0156054D01*
X0258310Y0155320D01*
X0256842Y0155320D01*
X0256108Y0156054D01*
X0260712Y0155320D02*
X0263648Y0155320D01*
X0263648Y0159724D01*
X0265316Y0155320D02*
X0268252Y0155320D01*
X0268252Y0159724D01*
X0274524Y0158256D02*
X0276726Y0158256D01*
X0277460Y0157522D01*
X0276726Y0156788D01*
X0275258Y0156788D01*
X0274524Y0156054D01*
X0275258Y0155320D01*
X0277460Y0155320D01*
X0279128Y0155320D02*
X0279128Y0158256D01*
X0279128Y0155320D02*
X0281330Y0155320D01*
X0282064Y0156054D01*
X0282064Y0158256D01*
X0283732Y0157522D02*
X0284466Y0158256D01*
X0285934Y0158256D01*
X0285934Y0156788D02*
X0283732Y0156788D01*
X0283732Y0157522D02*
X0283732Y0155320D01*
X0285934Y0155320D01*
X0286668Y0156054D01*
X0285934Y0156788D01*
X0288336Y0157522D02*
X0291272Y0157522D01*
X0292940Y0158256D02*
X0295876Y0155320D01*
X0292940Y0155320D01*
X0291272Y0155320D02*
X0291272Y0159724D01*
X0292940Y0158256D02*
X0295876Y0158256D01*
X0298211Y0159724D02*
X0298211Y0155320D01*
X0298945Y0155320D02*
X0297477Y0155320D01*
X0300613Y0155320D02*
X0302815Y0155320D01*
X0303549Y0156054D01*
X0302815Y0156788D01*
X0300613Y0156788D01*
X0300613Y0157522D02*
X0300613Y0155320D01*
X0300613Y0157522D02*
X0301347Y0158256D01*
X0302815Y0158256D01*
X0305217Y0157522D02*
X0305217Y0155320D01*
X0306685Y0155320D02*
X0306685Y0157522D01*
X0305951Y0158256D01*
X0305217Y0157522D01*
X0306685Y0157522D02*
X0307419Y0158256D01*
X0308153Y0158256D01*
X0308153Y0155320D01*
X0309821Y0155320D02*
X0309821Y0157522D01*
X0310555Y0158256D01*
X0312023Y0158256D01*
X0312757Y0157522D01*
X0314425Y0158256D02*
X0316627Y0158256D01*
X0317361Y0157522D01*
X0317361Y0156054D01*
X0316627Y0155320D01*
X0314425Y0155320D01*
X0312757Y0155320D02*
X0312757Y0159724D01*
X0319029Y0158990D02*
X0319763Y0159724D01*
X0321231Y0159724D01*
X0321965Y0158990D01*
X0321965Y0158256D01*
X0321231Y0157522D01*
X0319763Y0157522D01*
X0319029Y0156788D01*
X0319029Y0156054D01*
X0319763Y0155320D01*
X0321231Y0155320D01*
X0321965Y0156054D01*
X0298945Y0159724D02*
X0298211Y0159724D01*
X0288336Y0159724D02*
X0288336Y0155320D01*
D12*
X0288038Y0167416D02*
X0288621Y0168000D01*
X0288621Y0170335D01*
X0289205Y0169751D02*
X0288038Y0169751D01*
X0286750Y0169168D02*
X0286750Y0168000D01*
X0286166Y0167416D01*
X0284998Y0167416D01*
X0284414Y0168000D01*
X0284414Y0169168D01*
X0284998Y0169751D01*
X0286166Y0169751D01*
X0286750Y0169168D01*
X0286780Y0173416D02*
X0285028Y0173416D01*
X0285028Y0175168D01*
X0285612Y0175751D01*
X0286780Y0175751D01*
X0286780Y0174584D02*
X0285028Y0174584D01*
X0286780Y0174584D02*
X0287364Y0174000D01*
X0286780Y0173416D01*
X0288711Y0173416D02*
X0288711Y0175168D01*
X0289295Y0175751D01*
X0289879Y0175168D01*
X0289879Y0173416D01*
X0291047Y0173416D02*
X0291047Y0175751D01*
X0290463Y0175751D01*
X0289879Y0175168D01*
X0292365Y0175751D02*
X0292948Y0175751D01*
X0294116Y0174584D01*
X0294116Y0175751D02*
X0294116Y0173416D01*
X0295464Y0174000D02*
X0295464Y0175168D01*
X0296048Y0175751D01*
X0297215Y0175751D01*
X0297799Y0175168D01*
X0297799Y0174000D01*
X0297215Y0173416D01*
X0296048Y0173416D01*
X0295464Y0174000D01*
X0299087Y0175168D02*
X0300255Y0175168D01*
X0299671Y0176335D02*
X0299087Y0176919D01*
X0299671Y0176335D02*
X0299671Y0173416D01*
X0301602Y0173416D02*
X0301602Y0175168D01*
X0302186Y0175751D01*
X0303938Y0175751D01*
X0303938Y0173416D01*
X0305226Y0173416D02*
X0306393Y0173416D01*
X0305809Y0173416D02*
X0305809Y0175751D01*
X0306393Y0175751D01*
X0305809Y0176919D02*
X0305809Y0177503D01*
X0311424Y0175168D02*
X0311424Y0174584D01*
X0313759Y0174584D01*
X0313759Y0175168D02*
X0313176Y0175751D01*
X0312008Y0175751D01*
X0311424Y0175168D01*
X0312008Y0173416D02*
X0313176Y0173416D01*
X0313759Y0174000D01*
X0313759Y0175168D01*
X0315077Y0175751D02*
X0315661Y0175751D01*
X0316829Y0174584D01*
X0316829Y0175751D02*
X0316829Y0173416D01*
X0318177Y0174000D02*
X0318177Y0175168D01*
X0318760Y0175751D01*
X0319928Y0175751D01*
X0320512Y0175168D01*
X0320512Y0174000D01*
X0319928Y0173416D01*
X0318760Y0173416D01*
X0318177Y0174000D01*
X0316889Y0170919D02*
X0317473Y0170335D01*
X0317473Y0167416D01*
X0318056Y0169168D02*
X0316889Y0169168D01*
X0315601Y0169751D02*
X0315601Y0168000D01*
X0315017Y0167416D01*
X0313266Y0167416D01*
X0313266Y0169751D01*
X0311918Y0169751D02*
X0310166Y0169751D01*
X0309583Y0169168D01*
X0309583Y0167416D01*
X0311918Y0167416D02*
X0311918Y0169751D01*
X0304552Y0168584D02*
X0302800Y0169751D01*
X0301482Y0169751D02*
X0300899Y0169751D01*
X0300899Y0167416D01*
X0301482Y0167416D02*
X0300315Y0167416D01*
X0298443Y0168000D02*
X0298443Y0170335D01*
X0299027Y0169751D02*
X0297859Y0169751D01*
X0296572Y0169168D02*
X0295988Y0169751D01*
X0294236Y0169751D01*
X0294820Y0168584D02*
X0295988Y0168584D01*
X0296572Y0169168D01*
X0296572Y0167416D02*
X0294820Y0167416D01*
X0294236Y0168000D01*
X0294820Y0168584D01*
X0297859Y0167416D02*
X0298443Y0168000D01*
X0300899Y0170919D02*
X0300899Y0171503D01*
X0304552Y0170919D02*
X0304552Y0167416D01*
X0304552Y0168584D02*
X0302800Y0167416D01*
X0283097Y0174000D02*
X0282513Y0173416D01*
X0283097Y0174000D02*
X0283097Y0176335D01*
X0283680Y0175751D02*
X0282513Y0175751D01*
X0281225Y0175751D02*
X0280641Y0175751D01*
X0280641Y0173416D01*
X0281225Y0173416D02*
X0280057Y0173416D01*
X0278770Y0174000D02*
X0278186Y0173416D01*
X0277018Y0173416D01*
X0276434Y0174000D01*
X0276434Y0175168D01*
X0277018Y0175751D01*
X0278186Y0175751D01*
X0278770Y0175168D01*
X0278770Y0174000D01*
X0279384Y0170919D02*
X0279384Y0167416D01*
X0277632Y0167416D01*
X0277048Y0168000D01*
X0277048Y0169168D01*
X0277632Y0169751D01*
X0279384Y0169751D01*
X0275700Y0169751D02*
X0275700Y0168000D01*
X0275117Y0167416D01*
X0273365Y0167416D01*
X0273365Y0169751D01*
X0272017Y0169751D02*
X0271433Y0169751D01*
X0271433Y0167416D01*
X0270850Y0167416D02*
X0272017Y0167416D01*
X0269562Y0167416D02*
X0268394Y0167416D01*
X0268978Y0167416D02*
X0268978Y0170919D01*
X0269562Y0170919D01*
X0271433Y0170919D02*
X0271433Y0171503D01*
X0272751Y0173416D02*
X0272751Y0175168D01*
X0273335Y0175751D01*
X0275087Y0175751D01*
X0275087Y0173416D01*
X0280641Y0176919D02*
X0280641Y0177503D01*
X0267720Y0174000D02*
X0267136Y0174584D01*
X0265385Y0174584D01*
X0265385Y0175168D02*
X0265385Y0173416D01*
X0267136Y0173416D01*
X0267720Y0174000D01*
X0267136Y0175751D02*
X0265969Y0175751D01*
X0265385Y0175168D01*
X0264037Y0175751D02*
X0264037Y0173416D01*
X0261702Y0173416D02*
X0261702Y0175168D01*
X0262286Y0175751D01*
X0264037Y0175751D01*
X0260354Y0175168D02*
X0259770Y0175751D01*
X0258019Y0175751D01*
X0258019Y0176919D02*
X0258019Y0173416D01*
X0259770Y0173416D01*
X0260354Y0174000D01*
X0260354Y0175168D01*
X0264771Y0170919D02*
X0264771Y0167416D01*
X0266523Y0167416D01*
X0267106Y0168000D01*
X0267106Y0169168D01*
X0266523Y0169751D01*
X0264771Y0169751D01*
X0262839Y0168000D02*
X0262839Y0167416D01*
X0262256Y0167416D01*
X0262256Y0168000D01*
X0262839Y0168000D01*
X0262256Y0167416D02*
X0263423Y0166248D01*
X0257285Y0168000D02*
X0257285Y0169168D01*
X0256701Y0169751D01*
X0254949Y0169751D01*
X0254949Y0166832D01*
X0255533Y0166248D01*
X0256117Y0166248D01*
X0256701Y0167416D02*
X0254949Y0167416D01*
X0253602Y0168000D02*
X0253018Y0167416D01*
X0251850Y0167416D01*
X0251266Y0168000D01*
X0251266Y0169168D01*
X0251850Y0169751D01*
X0253018Y0169751D01*
X0253602Y0169168D01*
X0253602Y0168000D01*
X0256701Y0167416D02*
X0257285Y0168000D01*
X0246235Y0169751D02*
X0245068Y0169751D01*
X0245651Y0170335D02*
X0245651Y0168000D01*
X0245068Y0167416D01*
X0243780Y0168000D02*
X0243196Y0167416D01*
X0242028Y0167416D01*
X0241444Y0168000D01*
X0241444Y0169168D01*
X0242028Y0169751D01*
X0243196Y0169751D01*
X0243780Y0169168D01*
X0243780Y0168000D01*
X0321860Y0173416D02*
X0321860Y0175168D01*
X0322444Y0175751D01*
X0323027Y0175168D01*
X0323027Y0173416D01*
X0324195Y0173416D02*
X0324195Y0175751D01*
X0323611Y0175751D01*
X0323027Y0175168D01*
X0323057Y0169751D02*
X0323641Y0169751D01*
X0324809Y0168584D01*
X0324809Y0169751D02*
X0324809Y0167416D01*
X0326157Y0168584D02*
X0326157Y0169168D01*
X0326741Y0169751D01*
X0327908Y0169751D01*
X0328492Y0169168D01*
X0328492Y0168000D01*
X0327908Y0167416D01*
X0326741Y0167416D01*
X0326157Y0168584D02*
X0328492Y0168584D01*
X0329840Y0169168D02*
X0329840Y0167416D01*
X0329840Y0169168D02*
X0330424Y0169751D01*
X0331591Y0169751D01*
X0332175Y0169168D01*
X0333463Y0169751D02*
X0334631Y0169751D01*
X0334047Y0170335D02*
X0334047Y0168000D01*
X0333463Y0167416D01*
X0332175Y0167416D02*
X0332175Y0170919D01*
X0332879Y0173416D02*
X0332295Y0174000D01*
X0332295Y0175168D01*
X0332879Y0175751D01*
X0334047Y0175751D01*
X0334631Y0175168D01*
X0334631Y0174000D01*
X0334047Y0173416D01*
X0332879Y0173416D01*
X0330947Y0173416D02*
X0330947Y0175751D01*
X0329780Y0175751D02*
X0329196Y0175751D01*
X0329780Y0175751D02*
X0330947Y0174584D01*
X0335978Y0176919D02*
X0338314Y0176919D01*
X0338314Y0173416D01*
X0338314Y0175168D02*
X0337146Y0175168D01*
X0336562Y0169751D02*
X0335978Y0169168D01*
X0335978Y0168000D01*
X0336562Y0167416D01*
X0337730Y0167416D01*
X0338314Y0168000D01*
X0338314Y0169168D01*
X0337730Y0169751D01*
X0336562Y0169751D01*
X0314489Y0251288D02*
X0313905Y0251288D01*
X0313321Y0251872D01*
X0313321Y0254791D01*
X0315072Y0254791D01*
X0315656Y0254207D01*
X0315656Y0253039D01*
X0315072Y0252456D01*
X0313321Y0252456D01*
X0311973Y0253039D02*
X0311389Y0252456D01*
X0310222Y0252456D01*
X0309638Y0253039D01*
X0309638Y0254207D01*
X0310222Y0254791D01*
X0311389Y0254791D01*
X0311973Y0254207D01*
X0311973Y0253039D01*
X0308290Y0253039D02*
X0307706Y0252456D01*
X0306539Y0252456D01*
X0305955Y0253623D02*
X0308290Y0253623D01*
X0308290Y0253039D02*
X0308290Y0254207D01*
X0307706Y0254791D01*
X0306539Y0254791D01*
X0305955Y0254207D01*
X0305955Y0253623D01*
X0304607Y0254207D02*
X0304023Y0254791D01*
X0302272Y0254791D01*
X0302855Y0253623D02*
X0304023Y0253623D01*
X0304607Y0254207D01*
X0304607Y0252456D02*
X0302855Y0252456D01*
X0302272Y0253039D01*
X0302855Y0253623D01*
X0304023Y0258456D02*
X0304607Y0258456D01*
X0304607Y0259039D01*
X0304023Y0259039D01*
X0304023Y0258456D01*
X0304023Y0260207D02*
X0304607Y0260207D01*
X0304607Y0260791D01*
X0304023Y0260791D01*
X0304023Y0260207D01*
X0305955Y0261375D02*
X0306539Y0261959D01*
X0308290Y0261959D01*
X0308290Y0258456D01*
X0306539Y0258456D01*
X0305955Y0259039D01*
X0305955Y0261375D01*
X0309638Y0261959D02*
X0311973Y0261959D01*
X0311973Y0258456D01*
X0309638Y0258456D01*
X0310805Y0260207D02*
X0311973Y0260207D01*
X0313321Y0258456D02*
X0315656Y0258456D01*
X0315656Y0261959D01*
X0299082Y0261959D02*
X0299082Y0258456D01*
X0296747Y0258456D01*
X0295399Y0259039D02*
X0295399Y0260207D01*
X0294815Y0260791D01*
X0293648Y0260791D01*
X0293064Y0260207D01*
X0293064Y0259039D01*
X0293648Y0258456D01*
X0294815Y0258456D01*
X0295399Y0259039D01*
X0296657Y0256542D02*
X0296657Y0255959D01*
X0296657Y0254791D02*
X0296657Y0252456D01*
X0297241Y0252456D02*
X0296073Y0252456D01*
X0294785Y0252456D02*
X0294785Y0254791D01*
X0293034Y0254791D01*
X0292450Y0254207D01*
X0292450Y0252456D01*
X0287419Y0252456D02*
X0285667Y0252456D01*
X0285084Y0253039D01*
X0285667Y0253623D01*
X0286835Y0253623D01*
X0287419Y0254207D01*
X0286835Y0254791D01*
X0285084Y0254791D01*
X0283736Y0254207D02*
X0283736Y0253039D01*
X0283152Y0252456D01*
X0281400Y0252456D01*
X0281400Y0251288D02*
X0281400Y0254791D01*
X0283152Y0254791D01*
X0283736Y0254207D01*
X0280053Y0254791D02*
X0280053Y0253039D01*
X0279469Y0252456D01*
X0277717Y0252456D01*
X0277717Y0254791D01*
X0275786Y0254791D02*
X0274618Y0254791D01*
X0274034Y0254207D01*
X0274034Y0252456D01*
X0275786Y0252456D01*
X0276369Y0253039D01*
X0275786Y0253623D01*
X0274034Y0253623D01*
X0272686Y0253623D02*
X0271519Y0254791D01*
X0270935Y0254791D01*
X0269617Y0254207D02*
X0269033Y0254791D01*
X0267866Y0254791D01*
X0267282Y0254207D01*
X0267282Y0253623D01*
X0269617Y0253623D01*
X0269617Y0253039D02*
X0269617Y0254207D01*
X0269617Y0253039D02*
X0269033Y0252456D01*
X0267866Y0252456D01*
X0272686Y0252456D02*
X0272686Y0254791D01*
X0270875Y0258456D02*
X0271459Y0259039D01*
X0271459Y0260207D01*
X0270875Y0260791D01*
X0269707Y0260791D01*
X0269123Y0260207D01*
X0269123Y0259623D01*
X0271459Y0259623D01*
X0270875Y0258456D02*
X0269707Y0258456D01*
X0272776Y0260791D02*
X0273360Y0260791D01*
X0274528Y0259623D01*
X0274528Y0258456D02*
X0274528Y0260791D01*
X0276399Y0260791D02*
X0276399Y0258456D01*
X0275816Y0258456D02*
X0276983Y0258456D01*
X0278331Y0259039D02*
X0278331Y0260791D01*
X0276983Y0260791D02*
X0276399Y0260791D01*
X0276399Y0261959D02*
X0276399Y0262542D01*
X0278331Y0259039D02*
X0278915Y0258456D01*
X0279499Y0259039D01*
X0280083Y0258456D01*
X0280666Y0259039D01*
X0280666Y0260791D01*
X0285697Y0260791D02*
X0285697Y0257872D01*
X0286281Y0257288D01*
X0286865Y0257288D01*
X0287449Y0258456D02*
X0285697Y0258456D01*
X0287449Y0258456D02*
X0288033Y0259039D01*
X0288033Y0260207D01*
X0287449Y0260791D01*
X0285697Y0260791D01*
X0289381Y0260207D02*
X0289381Y0258456D01*
X0289381Y0260207D02*
X0289964Y0260791D01*
X0291716Y0260791D01*
X0291716Y0258456D01*
X0296657Y0254791D02*
X0297241Y0254791D01*
X0262251Y0254207D02*
X0261667Y0254791D01*
X0260499Y0254791D01*
X0259915Y0254207D01*
X0259915Y0252456D01*
X0258568Y0253039D02*
X0257984Y0252456D01*
X0256816Y0252456D01*
X0256232Y0253039D01*
X0256232Y0254207D01*
X0256816Y0254791D01*
X0257984Y0254791D01*
X0258568Y0254207D01*
X0258568Y0253039D01*
X0262251Y0252456D02*
X0262251Y0255959D01*
X0254884Y0255959D02*
X0254301Y0255959D01*
X0254301Y0252456D01*
X0254884Y0252456D02*
X0253717Y0252456D01*
X0252429Y0253039D02*
X0252429Y0254207D01*
X0251845Y0254791D01*
X0250678Y0254791D01*
X0250094Y0254207D01*
X0250094Y0253623D01*
X0252429Y0253623D01*
X0252429Y0253039D02*
X0251845Y0252456D01*
X0250678Y0252456D01*
X0102585Y0253630D02*
X0102002Y0253046D01*
X0100250Y0253046D01*
X0100250Y0252462D02*
X0100250Y0255381D01*
X0102002Y0255381D01*
X0102585Y0254798D01*
X0102585Y0253630D01*
X0101418Y0251878D02*
X0100834Y0251878D01*
X0100250Y0252462D01*
X0098902Y0253630D02*
X0098318Y0253046D01*
X0097151Y0253046D01*
X0096567Y0253630D01*
X0096567Y0254798D01*
X0097151Y0255381D01*
X0098318Y0255381D01*
X0098902Y0254798D01*
X0098902Y0253630D01*
X0095219Y0253630D02*
X0095219Y0254798D01*
X0094635Y0255381D01*
X0093468Y0255381D01*
X0092884Y0254798D01*
X0092884Y0254214D01*
X0095219Y0254214D01*
X0095219Y0253630D02*
X0094635Y0253046D01*
X0093468Y0253046D01*
X0091536Y0253046D02*
X0089785Y0253046D01*
X0089201Y0253630D01*
X0089785Y0254214D01*
X0090952Y0254214D01*
X0091536Y0254798D01*
X0090952Y0255381D01*
X0089201Y0255381D01*
X0090952Y0259046D02*
X0091536Y0259046D01*
X0091536Y0259630D01*
X0090952Y0259630D01*
X0090952Y0259046D01*
X0090952Y0260798D02*
X0091536Y0260798D01*
X0091536Y0261381D01*
X0090952Y0261381D01*
X0090952Y0260798D01*
X0092884Y0261965D02*
X0093468Y0262549D01*
X0095219Y0262549D01*
X0095219Y0259046D01*
X0093468Y0259046D01*
X0092884Y0259630D01*
X0092884Y0261965D01*
X0096567Y0262549D02*
X0098902Y0262549D01*
X0098902Y0259046D01*
X0096567Y0259046D01*
X0097735Y0260798D02*
X0098902Y0260798D01*
X0100250Y0259046D02*
X0102585Y0259046D01*
X0102585Y0262549D01*
X0086011Y0262549D02*
X0086011Y0259046D01*
X0083676Y0259046D01*
X0082328Y0259630D02*
X0082328Y0260798D01*
X0081744Y0261381D01*
X0080577Y0261381D01*
X0079993Y0260798D01*
X0079993Y0259630D01*
X0080577Y0259046D01*
X0081744Y0259046D01*
X0082328Y0259630D01*
X0083586Y0257133D02*
X0083586Y0256549D01*
X0083586Y0255381D02*
X0083586Y0253046D01*
X0084170Y0253046D02*
X0083002Y0253046D01*
X0081714Y0253046D02*
X0081714Y0255381D01*
X0079963Y0255381D01*
X0079379Y0254798D01*
X0079379Y0253046D01*
X0074348Y0253046D02*
X0072597Y0253046D01*
X0072013Y0253630D01*
X0072597Y0254214D01*
X0073764Y0254214D01*
X0074348Y0254798D01*
X0073764Y0255381D01*
X0072013Y0255381D01*
X0070665Y0254798D02*
X0070665Y0253630D01*
X0070081Y0253046D01*
X0068330Y0253046D01*
X0068330Y0251878D02*
X0068330Y0255381D01*
X0070081Y0255381D01*
X0070665Y0254798D01*
X0066982Y0255381D02*
X0066982Y0253630D01*
X0066398Y0253046D01*
X0064646Y0253046D01*
X0064646Y0255381D01*
X0062715Y0255381D02*
X0061547Y0255381D01*
X0060963Y0254798D01*
X0060963Y0253046D01*
X0062715Y0253046D01*
X0063299Y0253630D01*
X0062715Y0254214D01*
X0060963Y0254214D01*
X0059615Y0254214D02*
X0058448Y0255381D01*
X0057864Y0255381D01*
X0056546Y0254798D02*
X0055962Y0255381D01*
X0054795Y0255381D01*
X0054211Y0254798D01*
X0054211Y0254214D01*
X0056546Y0254214D01*
X0056546Y0253630D02*
X0056546Y0254798D01*
X0056546Y0253630D02*
X0055962Y0253046D01*
X0054795Y0253046D01*
X0059615Y0253046D02*
X0059615Y0255381D01*
X0057804Y0259046D02*
X0058388Y0259630D01*
X0058388Y0260798D01*
X0057804Y0261381D01*
X0056636Y0261381D01*
X0056052Y0260798D01*
X0056052Y0260214D01*
X0058388Y0260214D01*
X0057804Y0259046D02*
X0056636Y0259046D01*
X0059705Y0261381D02*
X0060289Y0261381D01*
X0061457Y0260214D01*
X0061457Y0261381D02*
X0061457Y0259046D01*
X0062745Y0259046D02*
X0063912Y0259046D01*
X0063329Y0259046D02*
X0063329Y0261381D01*
X0063912Y0261381D01*
X0063329Y0262549D02*
X0063329Y0263133D01*
X0065260Y0261381D02*
X0065260Y0259630D01*
X0065844Y0259046D01*
X0066428Y0259630D01*
X0067012Y0259046D01*
X0067596Y0259630D01*
X0067596Y0261381D01*
X0072627Y0261381D02*
X0072627Y0258462D01*
X0073210Y0257878D01*
X0073794Y0257878D01*
X0074378Y0259046D02*
X0072627Y0259046D01*
X0074378Y0259046D02*
X0074962Y0259630D01*
X0074962Y0260798D01*
X0074378Y0261381D01*
X0072627Y0261381D01*
X0076310Y0260798D02*
X0076310Y0259046D01*
X0076310Y0260798D02*
X0076894Y0261381D01*
X0078645Y0261381D01*
X0078645Y0259046D01*
X0083586Y0255381D02*
X0084170Y0255381D01*
X0049180Y0254798D02*
X0048596Y0255381D01*
X0047428Y0255381D01*
X0046845Y0254798D01*
X0046845Y0253046D01*
X0045497Y0253630D02*
X0044913Y0253046D01*
X0043745Y0253046D01*
X0043161Y0253630D01*
X0043161Y0254798D01*
X0043745Y0255381D01*
X0044913Y0255381D01*
X0045497Y0254798D01*
X0045497Y0253630D01*
X0049180Y0253046D02*
X0049180Y0256549D01*
X0041814Y0256549D02*
X0041230Y0256549D01*
X0041230Y0253046D01*
X0041814Y0253046D02*
X0040646Y0253046D01*
X0039358Y0253630D02*
X0039358Y0254798D01*
X0038774Y0255381D01*
X0037607Y0255381D01*
X0037023Y0254798D01*
X0037023Y0254214D01*
X0039358Y0254214D01*
X0039358Y0253630D02*
X0038774Y0253046D01*
X0037607Y0253046D01*
X0037244Y0043189D02*
X0035910Y0043189D01*
X0035243Y0042522D01*
X0035910Y0041188D02*
X0035243Y0040520D01*
X0035243Y0039853D01*
X0035910Y0039186D01*
X0037244Y0039186D01*
X0037912Y0039853D01*
X0037244Y0041188D02*
X0035910Y0041188D01*
X0037244Y0041188D02*
X0037912Y0041855D01*
X0037912Y0042522D01*
X0037244Y0043189D01*
X0033768Y0041188D02*
X0033768Y0039853D01*
X0033101Y0039186D01*
X0031099Y0039186D01*
X0029625Y0039186D02*
X0029625Y0043189D01*
X0028957Y0041855D02*
X0027623Y0041855D01*
X0026956Y0041188D01*
X0026956Y0039186D01*
X0025481Y0039186D02*
X0025481Y0041855D01*
X0024814Y0041855D01*
X0024147Y0041188D01*
X0023479Y0041855D01*
X0022812Y0041188D01*
X0022812Y0039186D01*
X0024147Y0039186D02*
X0024147Y0041188D01*
X0021338Y0039853D02*
X0020670Y0040520D01*
X0018669Y0040520D01*
X0018669Y0041188D02*
X0018669Y0039186D01*
X0020670Y0039186D01*
X0021338Y0039853D01*
X0020670Y0041855D02*
X0019336Y0041855D01*
X0018669Y0041188D01*
X0017194Y0043189D02*
X0016527Y0043189D01*
X0016527Y0039186D01*
X0017194Y0039186D02*
X0015859Y0039186D01*
X0014432Y0039186D02*
X0011763Y0039186D01*
X0011763Y0041855D02*
X0014432Y0039186D01*
X0014432Y0041855D02*
X0011763Y0041855D01*
X0028957Y0041855D02*
X0029625Y0041188D01*
X0031099Y0041855D02*
X0033101Y0041855D01*
X0033768Y0041188D01*
X0033768Y0035105D02*
X0033101Y0035105D01*
X0032434Y0034438D01*
X0031766Y0035105D01*
X0031099Y0034438D01*
X0031099Y0032436D01*
X0032434Y0032436D02*
X0032434Y0034438D01*
X0033768Y0035105D02*
X0033768Y0032436D01*
X0035243Y0033103D02*
X0035243Y0034438D01*
X0035910Y0035105D01*
X0037244Y0035105D01*
X0037912Y0034438D01*
X0037912Y0033103D01*
X0037244Y0032436D01*
X0035910Y0032436D01*
X0035243Y0033103D01*
X0039386Y0032436D02*
X0041388Y0032436D01*
X0042055Y0033103D01*
X0042055Y0034438D01*
X0041388Y0035105D01*
X0039386Y0035105D01*
X0043460Y0033103D02*
X0043460Y0032436D01*
X0044127Y0032436D01*
X0044127Y0033103D01*
X0043460Y0033103D01*
X0045602Y0033103D02*
X0046269Y0033770D01*
X0047603Y0033770D01*
X0048271Y0034438D01*
X0047603Y0035105D01*
X0045602Y0035105D01*
X0045602Y0033103D02*
X0046269Y0032436D01*
X0048271Y0032436D01*
X0049745Y0032436D02*
X0049745Y0035105D01*
X0052414Y0035105D02*
X0052414Y0033103D01*
X0051747Y0032436D01*
X0049745Y0032436D01*
X0053889Y0032436D02*
X0055890Y0032436D01*
X0056558Y0033103D01*
X0055890Y0033770D01*
X0053889Y0033770D01*
X0053889Y0034438D02*
X0053889Y0032436D01*
X0053889Y0034438D02*
X0054556Y0035105D01*
X0055890Y0035105D01*
X0058032Y0034438D02*
X0058032Y0032436D01*
X0058032Y0034438D02*
X0058699Y0035105D01*
X0060034Y0035105D01*
X0060701Y0034438D01*
X0062176Y0035105D02*
X0064845Y0032436D01*
X0062176Y0032436D01*
X0060701Y0032436D02*
X0060701Y0036439D01*
X0062176Y0035105D02*
X0064845Y0035105D01*
X0066940Y0036439D02*
X0066940Y0032436D01*
X0067607Y0032436D02*
X0066273Y0032436D01*
X0069082Y0032436D02*
X0071083Y0032436D01*
X0071751Y0033103D01*
X0071083Y0033770D01*
X0069082Y0033770D01*
X0069082Y0034438D02*
X0069082Y0032436D01*
X0069082Y0034438D02*
X0069749Y0035105D01*
X0071083Y0035105D01*
X0073225Y0034438D02*
X0073225Y0032436D01*
X0074560Y0032436D02*
X0074560Y0034438D01*
X0073892Y0035105D01*
X0073225Y0034438D01*
X0074560Y0034438D02*
X0075227Y0035105D01*
X0075894Y0035105D01*
X0075894Y0032436D01*
X0077369Y0032436D02*
X0077369Y0034438D01*
X0078036Y0035105D01*
X0079370Y0035105D01*
X0080038Y0034438D01*
X0081512Y0035105D02*
X0083514Y0035105D01*
X0084181Y0034438D01*
X0084181Y0033103D01*
X0083514Y0032436D01*
X0081512Y0032436D01*
X0080038Y0032436D02*
X0080038Y0036439D01*
X0079417Y0039186D02*
X0078750Y0039853D01*
X0078750Y0041188D01*
X0079417Y0041855D01*
X0081419Y0041855D01*
X0081419Y0043189D02*
X0081419Y0039186D01*
X0079417Y0039186D01*
X0077275Y0039853D02*
X0076608Y0039186D01*
X0074606Y0039186D01*
X0074606Y0038519D02*
X0074606Y0041855D01*
X0073132Y0041855D02*
X0073132Y0041188D01*
X0072465Y0041188D01*
X0072465Y0041855D01*
X0073132Y0041855D01*
X0073132Y0039853D02*
X0073132Y0039186D01*
X0072465Y0039186D01*
X0072465Y0039853D01*
X0073132Y0039853D01*
X0074606Y0038519D02*
X0075274Y0037851D01*
X0075941Y0037851D01*
X0077275Y0039853D02*
X0077275Y0041855D01*
X0085656Y0035105D02*
X0087658Y0035105D01*
X0088325Y0034438D01*
X0087658Y0033770D01*
X0086323Y0033770D01*
X0085656Y0033103D01*
X0086323Y0032436D01*
X0088325Y0032436D01*
X0089799Y0033103D02*
X0090467Y0032436D01*
X0091801Y0032436D01*
X0092468Y0033103D01*
X0092468Y0035772D01*
X0091801Y0036439D01*
X0090467Y0036439D01*
X0089799Y0035772D01*
X0089799Y0034438D01*
X0090467Y0033770D01*
X0090467Y0035105D01*
X0091801Y0035105D01*
X0091801Y0033770D01*
X0090467Y0033770D01*
X0093943Y0033770D02*
X0095945Y0033770D01*
X0096612Y0033103D01*
X0095945Y0032436D01*
X0093943Y0032436D01*
X0093943Y0034438D01*
X0094610Y0035105D01*
X0095945Y0035105D01*
X0098086Y0034438D02*
X0098086Y0032436D01*
X0098086Y0034438D02*
X0098754Y0035105D01*
X0100755Y0035105D01*
X0100755Y0032436D01*
X0102230Y0032436D02*
X0102230Y0034438D01*
X0102897Y0035105D01*
X0104899Y0035105D01*
X0104899Y0032436D01*
X0106373Y0032436D02*
X0108375Y0032436D01*
X0109042Y0033103D01*
X0108375Y0033770D01*
X0106373Y0033770D01*
X0106373Y0034438D02*
X0106373Y0032436D01*
X0106373Y0034438D02*
X0107041Y0035105D01*
X0108375Y0035105D01*
X0110517Y0034438D02*
X0110517Y0033770D01*
X0113186Y0033770D01*
X0113186Y0033103D02*
X0113186Y0034438D01*
X0112519Y0035105D01*
X0111184Y0035105D01*
X0110517Y0034438D01*
X0111184Y0032436D02*
X0112519Y0032436D01*
X0113186Y0033103D01*
X0114661Y0032436D02*
X0116662Y0032436D01*
X0117330Y0033103D01*
X0117330Y0034438D01*
X0116662Y0035105D01*
X0114661Y0035105D01*
X0114661Y0036439D02*
X0114661Y0032436D01*
X0115328Y0039186D02*
X0114661Y0039853D01*
X0114661Y0042522D01*
X0115328Y0043189D01*
X0117330Y0043189D01*
X0117330Y0039186D01*
X0115328Y0039186D01*
X0113186Y0039853D02*
X0113186Y0041188D01*
X0112519Y0041855D01*
X0111184Y0041855D01*
X0110517Y0041188D01*
X0110517Y0040520D01*
X0113186Y0040520D01*
X0113186Y0039853D02*
X0112519Y0039186D01*
X0111184Y0039186D01*
X0109042Y0039186D02*
X0107041Y0039186D01*
X0106373Y0039853D01*
X0107041Y0040520D01*
X0108375Y0040520D01*
X0109042Y0041188D01*
X0108375Y0041855D01*
X0106373Y0041855D01*
X0104899Y0041855D02*
X0104232Y0041855D01*
X0104232Y0039186D01*
X0104899Y0039186D02*
X0103564Y0039186D01*
X0102137Y0039186D02*
X0102137Y0041855D01*
X0100135Y0041855D01*
X0099468Y0041188D01*
X0099468Y0039186D01*
X0097993Y0039853D02*
X0097326Y0039186D01*
X0095324Y0039186D01*
X0095324Y0038519D02*
X0095324Y0041855D01*
X0097326Y0041855D01*
X0097993Y0041188D01*
X0097993Y0039853D01*
X0096659Y0037851D02*
X0095991Y0037851D01*
X0095324Y0038519D01*
X0093849Y0039853D02*
X0093849Y0041188D01*
X0093182Y0041855D01*
X0091848Y0041855D01*
X0091181Y0041188D01*
X0091181Y0040520D01*
X0093849Y0040520D01*
X0093849Y0039853D02*
X0093182Y0039186D01*
X0091848Y0039186D01*
X0089706Y0039853D02*
X0089706Y0041188D01*
X0089039Y0041855D01*
X0087037Y0041855D01*
X0087037Y0043189D02*
X0087037Y0039186D01*
X0089039Y0039186D01*
X0089706Y0039853D01*
X0104232Y0043189D02*
X0104232Y0043856D01*
X0066916Y0043189D02*
X0066916Y0039186D01*
X0064915Y0039186D01*
X0064248Y0039853D01*
X0064248Y0042522D01*
X0064915Y0043189D01*
X0066916Y0043189D01*
X0062773Y0041188D02*
X0062106Y0041855D01*
X0060771Y0041855D01*
X0060104Y0041188D01*
X0060104Y0040520D01*
X0062773Y0040520D01*
X0062773Y0039853D02*
X0062773Y0041188D01*
X0062773Y0039853D02*
X0062106Y0039186D01*
X0060771Y0039186D01*
X0058629Y0039853D02*
X0057962Y0040520D01*
X0055960Y0040520D01*
X0055960Y0041188D02*
X0055960Y0039186D01*
X0057962Y0039186D01*
X0058629Y0039853D01*
X0057962Y0041855D02*
X0056628Y0041855D01*
X0055960Y0041188D01*
X0054486Y0041855D02*
X0052484Y0041855D01*
X0051817Y0041188D01*
X0051817Y0039186D01*
X0050342Y0039186D02*
X0050342Y0041855D01*
X0048341Y0041855D01*
X0047673Y0041188D01*
X0047673Y0039186D01*
X0046199Y0039853D02*
X0045532Y0040520D01*
X0043530Y0040520D01*
X0043530Y0041188D02*
X0043530Y0039186D01*
X0045532Y0039186D01*
X0046199Y0039853D01*
X0045532Y0041855D02*
X0044197Y0041855D01*
X0043530Y0041188D01*
X0054486Y0041855D02*
X0054486Y0039186D01*
X0066940Y0036439D02*
X0067607Y0036439D01*
X0265950Y0039792D02*
X0268619Y0039792D01*
X0268619Y0040459D02*
X0267952Y0041126D01*
X0266617Y0041126D01*
X0265950Y0040459D01*
X0265950Y0039792D01*
X0266617Y0038457D02*
X0267952Y0038457D01*
X0268619Y0039125D01*
X0268619Y0040459D01*
X0270070Y0041126D02*
X0270737Y0041126D01*
X0272072Y0039792D01*
X0272072Y0041126D02*
X0272072Y0038457D01*
X0273546Y0039792D02*
X0276215Y0039792D01*
X0276215Y0040459D02*
X0275548Y0041126D01*
X0274214Y0041126D01*
X0273546Y0040459D01*
X0273546Y0039792D01*
X0274214Y0038457D02*
X0275548Y0038457D01*
X0276215Y0039125D01*
X0276215Y0040459D01*
X0277690Y0040459D02*
X0277690Y0038457D01*
X0277690Y0040459D02*
X0278357Y0041126D01*
X0279692Y0041126D01*
X0280359Y0040459D01*
X0281833Y0041126D02*
X0281833Y0039125D01*
X0282501Y0038457D01*
X0283168Y0039125D01*
X0283835Y0038457D01*
X0284502Y0039125D01*
X0284502Y0041126D01*
X0285263Y0045207D02*
X0284596Y0045875D01*
X0284596Y0047209D01*
X0285263Y0047876D01*
X0286597Y0047876D01*
X0287265Y0047209D01*
X0287265Y0045875D01*
X0286597Y0045207D01*
X0285263Y0045207D01*
X0283121Y0045207D02*
X0283121Y0047876D01*
X0281119Y0047876D01*
X0280452Y0047209D01*
X0280452Y0045207D01*
X0280359Y0042461D02*
X0280359Y0038457D01*
X0284502Y0036378D02*
X0284502Y0033709D01*
X0284502Y0032375D02*
X0284502Y0031707D01*
X0285977Y0032375D02*
X0286644Y0033042D01*
X0287979Y0033042D01*
X0288646Y0033709D01*
X0287979Y0034376D01*
X0285977Y0034376D01*
X0285977Y0032375D02*
X0286644Y0031707D01*
X0288646Y0031707D01*
X0290120Y0032375D02*
X0290120Y0034376D01*
X0290120Y0032375D02*
X0290788Y0031707D01*
X0291455Y0032375D01*
X0292122Y0031707D01*
X0292789Y0032375D01*
X0292789Y0034376D01*
X0294264Y0033709D02*
X0294931Y0034376D01*
X0296266Y0034376D01*
X0296933Y0033709D01*
X0296933Y0032375D01*
X0296266Y0031707D01*
X0294931Y0031707D01*
X0294264Y0032375D01*
X0294264Y0033709D01*
X0298361Y0031707D02*
X0299695Y0031707D01*
X0299028Y0031707D02*
X0299028Y0035711D01*
X0299695Y0035711D01*
X0301123Y0035711D02*
X0301790Y0035044D01*
X0301790Y0031707D01*
X0302458Y0033709D02*
X0301123Y0033709D01*
X0301076Y0038457D02*
X0299075Y0038457D01*
X0298408Y0039125D01*
X0299075Y0039792D01*
X0300409Y0039792D01*
X0301076Y0040459D01*
X0300409Y0041126D01*
X0298408Y0041126D01*
X0296933Y0040459D02*
X0296266Y0041126D01*
X0294931Y0041126D01*
X0294264Y0040459D01*
X0294264Y0039792D01*
X0296933Y0039792D01*
X0296933Y0039125D02*
X0296933Y0040459D01*
X0296933Y0039125D02*
X0296266Y0038457D01*
X0294931Y0038457D01*
X0292789Y0039125D02*
X0292789Y0040459D01*
X0292122Y0041126D01*
X0290788Y0041126D01*
X0290120Y0040459D01*
X0290120Y0039792D01*
X0292789Y0039792D01*
X0292789Y0039125D02*
X0292122Y0038457D01*
X0290788Y0038457D01*
X0293550Y0045207D02*
X0292883Y0045875D01*
X0293550Y0046542D01*
X0294885Y0046542D01*
X0295552Y0047209D01*
X0294885Y0047876D01*
X0292883Y0047876D01*
X0293550Y0045207D02*
X0295552Y0045207D01*
X0297026Y0046542D02*
X0299695Y0046542D01*
X0299695Y0047209D02*
X0299028Y0047876D01*
X0297694Y0047876D01*
X0297026Y0047209D01*
X0297026Y0046542D01*
X0297694Y0045207D02*
X0299028Y0045207D01*
X0299695Y0045875D01*
X0299695Y0047209D01*
X0301170Y0047209D02*
X0301170Y0045207D01*
X0301170Y0047209D02*
X0301837Y0047876D01*
X0303839Y0047876D01*
X0303839Y0045207D01*
X0305267Y0045207D02*
X0306601Y0045207D01*
X0305934Y0045207D02*
X0305934Y0047876D01*
X0306601Y0047876D01*
X0305934Y0049211D02*
X0305934Y0049878D01*
X0308696Y0049211D02*
X0308696Y0045207D01*
X0308029Y0045207D02*
X0309364Y0045207D01*
X0311459Y0041794D02*
X0311459Y0039125D01*
X0310791Y0038457D01*
X0309364Y0039125D02*
X0308696Y0038457D01*
X0307362Y0038457D01*
X0306695Y0039125D01*
X0306695Y0040459D01*
X0307362Y0041126D01*
X0308696Y0041126D01*
X0309364Y0040459D01*
X0309364Y0039125D01*
X0310791Y0041126D02*
X0312126Y0041126D01*
X0315649Y0045207D02*
X0316983Y0045207D01*
X0317651Y0045875D01*
X0317651Y0047209D01*
X0316983Y0047876D01*
X0315649Y0047876D01*
X0314982Y0047209D01*
X0314982Y0046542D01*
X0317651Y0046542D01*
X0319125Y0047209D02*
X0319125Y0045207D01*
X0319125Y0047209D02*
X0319792Y0047876D01*
X0321127Y0047876D01*
X0321794Y0047209D01*
X0323222Y0047876D02*
X0324557Y0047876D01*
X0323889Y0048544D02*
X0323889Y0045875D01*
X0323222Y0045207D01*
X0321794Y0045207D02*
X0321794Y0049211D01*
X0330175Y0047209D02*
X0330175Y0046542D01*
X0332844Y0046542D01*
X0332844Y0047209D02*
X0332176Y0047876D01*
X0330842Y0047876D01*
X0330175Y0047209D01*
X0330842Y0045207D02*
X0332176Y0045207D01*
X0332844Y0045875D01*
X0332844Y0047209D01*
X0334318Y0047876D02*
X0336320Y0047876D01*
X0336987Y0047209D01*
X0336987Y0045875D01*
X0336320Y0045207D01*
X0334318Y0045207D01*
X0332200Y0042461D02*
X0332867Y0041794D01*
X0332867Y0038457D01*
X0330772Y0038457D02*
X0330772Y0041126D01*
X0330772Y0039792D02*
X0329437Y0041126D01*
X0328770Y0041126D01*
X0327319Y0040459D02*
X0327319Y0039125D01*
X0326652Y0038457D01*
X0325317Y0038457D01*
X0324650Y0039125D01*
X0324650Y0040459D01*
X0325317Y0041126D01*
X0326652Y0041126D01*
X0327319Y0040459D01*
X0323175Y0041126D02*
X0323175Y0038457D01*
X0322508Y0036378D02*
X0322508Y0035711D01*
X0322508Y0034376D02*
X0322508Y0031707D01*
X0323175Y0031707D02*
X0321841Y0031707D01*
X0320413Y0032375D02*
X0319746Y0031707D01*
X0317744Y0031707D01*
X0316269Y0031707D02*
X0314935Y0031707D01*
X0315602Y0031707D02*
X0315602Y0034376D01*
X0316269Y0034376D01*
X0317744Y0034376D02*
X0319746Y0034376D01*
X0320413Y0033709D01*
X0320413Y0032375D01*
X0322508Y0034376D02*
X0323175Y0034376D01*
X0324627Y0034376D02*
X0325294Y0034376D01*
X0326628Y0033042D01*
X0326628Y0034376D02*
X0326628Y0031707D01*
X0328056Y0031707D02*
X0328723Y0032375D01*
X0328723Y0035044D01*
X0328056Y0034376D02*
X0329391Y0034376D01*
X0330865Y0034376D02*
X0332867Y0034376D01*
X0333534Y0033709D01*
X0333534Y0032375D01*
X0332867Y0031707D01*
X0330865Y0031707D01*
X0335009Y0033042D02*
X0337678Y0033042D01*
X0337678Y0033709D02*
X0337010Y0034376D01*
X0335676Y0034376D01*
X0335009Y0033709D01*
X0335009Y0033042D01*
X0335676Y0031707D02*
X0337010Y0031707D01*
X0337678Y0032375D01*
X0337678Y0033709D01*
X0339106Y0031707D02*
X0340440Y0031707D01*
X0339773Y0031707D02*
X0339773Y0035711D01*
X0340440Y0035711D01*
X0341915Y0033709D02*
X0341915Y0033042D01*
X0344584Y0033042D01*
X0344584Y0033709D02*
X0343916Y0034376D01*
X0342582Y0034376D01*
X0341915Y0033709D01*
X0342582Y0031707D02*
X0343916Y0031707D01*
X0344584Y0032375D01*
X0344584Y0033709D01*
X0343296Y0038457D02*
X0343296Y0040459D01*
X0343963Y0041126D01*
X0345298Y0041126D01*
X0345965Y0040459D01*
X0347393Y0041126D02*
X0348727Y0041126D01*
X0348060Y0041794D02*
X0348060Y0039125D01*
X0347393Y0038457D01*
X0345965Y0038457D02*
X0345965Y0042461D01*
X0344584Y0045207D02*
X0344584Y0047876D01*
X0344584Y0046542D02*
X0343249Y0047876D01*
X0342582Y0047876D01*
X0340463Y0047876D02*
X0339129Y0047876D01*
X0338462Y0047209D01*
X0338462Y0045207D01*
X0340463Y0045207D01*
X0341131Y0045875D01*
X0340463Y0046542D01*
X0338462Y0046542D01*
X0339820Y0041126D02*
X0339152Y0040459D01*
X0339152Y0039792D01*
X0341821Y0039792D01*
X0341821Y0040459D02*
X0341154Y0041126D01*
X0339820Y0041126D01*
X0341821Y0040459D02*
X0341821Y0039125D01*
X0341154Y0038457D01*
X0339820Y0038457D01*
X0333534Y0040459D02*
X0332200Y0040459D01*
X0323175Y0041126D02*
X0321174Y0041126D01*
X0320506Y0040459D01*
X0320506Y0038457D01*
X0318365Y0039125D02*
X0317697Y0038457D01*
X0318365Y0039125D02*
X0318365Y0041794D01*
X0319032Y0041126D02*
X0317697Y0041126D01*
X0315602Y0036378D02*
X0315602Y0035711D01*
X0313507Y0034376D02*
X0312173Y0034376D01*
X0312840Y0035044D02*
X0312840Y0032375D01*
X0312173Y0031707D01*
X0310745Y0032375D02*
X0310078Y0031707D01*
X0308076Y0031707D01*
X0308076Y0031040D02*
X0308076Y0034376D01*
X0310745Y0034376D02*
X0310745Y0032375D01*
X0309410Y0030373D02*
X0308743Y0030373D01*
X0308076Y0031040D01*
X0308696Y0049211D02*
X0309364Y0049211D01*
X0346058Y0049211D02*
X0348727Y0049211D01*
X0347393Y0049211D02*
X0347393Y0045207D01*
D13*
X0323426Y0182653D02*
X0323426Y0187557D01*
X0320974Y0187557D01*
X0320157Y0186740D01*
X0320157Y0185105D01*
X0320974Y0184288D01*
X0323426Y0184288D01*
X0325229Y0184288D02*
X0326047Y0185105D01*
X0326047Y0188375D01*
X0326864Y0187557D02*
X0325229Y0187557D01*
X0328667Y0187557D02*
X0330301Y0187557D01*
X0329484Y0188375D02*
X0329484Y0185105D01*
X0328667Y0184288D01*
X0332188Y0184288D02*
X0332188Y0186740D01*
X0333006Y0187557D01*
X0334641Y0187557D01*
X0335458Y0186740D01*
X0335458Y0189192D02*
X0335458Y0184288D01*
X0318270Y0184288D02*
X0315818Y0184288D01*
X0315000Y0185105D01*
X0315818Y0185923D01*
X0317453Y0185923D01*
X0318270Y0186740D01*
X0317453Y0187557D01*
X0315000Y0187557D01*
X0313113Y0187557D02*
X0313113Y0186740D01*
X0312296Y0186740D01*
X0312296Y0187557D01*
X0313113Y0187557D01*
X0313113Y0185105D02*
X0313113Y0184288D01*
X0312296Y0184288D01*
X0312296Y0185105D01*
X0313113Y0185105D01*
X0310535Y0184288D02*
X0307266Y0189192D01*
X0302109Y0189192D02*
X0305379Y0184288D01*
X0300222Y0185105D02*
X0300222Y0186740D01*
X0299405Y0187557D01*
X0296953Y0187557D01*
X0296953Y0183470D01*
X0297770Y0182653D01*
X0298588Y0182653D01*
X0299405Y0184288D02*
X0296953Y0184288D01*
X0295066Y0185105D02*
X0295066Y0186740D01*
X0294249Y0187557D01*
X0292614Y0187557D01*
X0291797Y0186740D01*
X0291797Y0185105D01*
X0292614Y0184288D01*
X0294249Y0184288D01*
X0295066Y0185105D01*
X0299405Y0184288D02*
X0300222Y0185105D01*
X0289910Y0185105D02*
X0289092Y0184288D01*
X0287458Y0184288D01*
X0286640Y0185105D01*
X0286640Y0186740D01*
X0287458Y0187557D01*
X0289092Y0187557D01*
X0289910Y0186740D01*
X0289910Y0185105D01*
X0284753Y0185105D02*
X0283936Y0185105D01*
X0283936Y0184288D01*
X0284753Y0184288D01*
X0284753Y0185105D01*
X0282175Y0185105D02*
X0281358Y0184288D01*
X0278906Y0184288D01*
X0278906Y0183470D02*
X0278906Y0187557D01*
X0281358Y0187557D01*
X0282175Y0186740D01*
X0282175Y0185105D01*
X0280540Y0182653D02*
X0279723Y0182653D01*
X0278906Y0183470D01*
X0277019Y0184288D02*
X0275384Y0184288D01*
X0276201Y0184288D02*
X0276201Y0189192D01*
X0277019Y0189192D01*
X0273581Y0184288D02*
X0270312Y0189192D01*
X0268425Y0189192D02*
X0265155Y0184288D01*
X0263268Y0184288D02*
X0259999Y0189192D01*
X0258112Y0189192D02*
X0254842Y0184288D01*
X0252956Y0184288D02*
X0249686Y0189192D01*
X0247799Y0189192D02*
X0244530Y0184288D01*
X0242643Y0184288D02*
X0239373Y0189192D01*
X0242643Y0189192D02*
X0239373Y0184288D01*
X0244530Y0189192D02*
X0247799Y0184288D01*
X0249686Y0184288D02*
X0252956Y0189192D01*
X0254842Y0189192D02*
X0258112Y0184288D01*
X0259999Y0184288D02*
X0263268Y0189192D01*
X0265155Y0189192D02*
X0268425Y0184288D01*
D14*
X0287363Y0109017D02*
X0287365Y0109142D01*
X0287371Y0109267D01*
X0287381Y0109391D01*
X0287395Y0109515D01*
X0287412Y0109639D01*
X0287434Y0109762D01*
X0287460Y0109884D01*
X0287489Y0110006D01*
X0287522Y0110126D01*
X0287560Y0110245D01*
X0287600Y0110364D01*
X0287645Y0110480D01*
X0287693Y0110595D01*
X0287745Y0110709D01*
X0287801Y0110821D01*
X0287860Y0110931D01*
X0287922Y0111039D01*
X0287988Y0111146D01*
X0288057Y0111250D01*
X0288130Y0111351D01*
X0288205Y0111451D01*
X0288284Y0111548D01*
X0288366Y0111642D01*
X0288451Y0111734D01*
X0288538Y0111823D01*
X0288629Y0111909D01*
X0288722Y0111992D01*
X0288818Y0112073D01*
X0288916Y0112150D01*
X0289016Y0112224D01*
X0289119Y0112295D01*
X0289224Y0112362D01*
X0289332Y0112427D01*
X0289441Y0112487D01*
X0289552Y0112545D01*
X0289665Y0112598D01*
X0289779Y0112648D01*
X0289895Y0112695D01*
X0290012Y0112737D01*
X0290131Y0112776D01*
X0290251Y0112812D01*
X0290372Y0112843D01*
X0290494Y0112871D01*
X0290616Y0112894D01*
X0290740Y0112914D01*
X0290864Y0112930D01*
X0290988Y0112942D01*
X0291113Y0112950D01*
X0291238Y0112954D01*
X0291362Y0112954D01*
X0291487Y0112950D01*
X0291612Y0112942D01*
X0291736Y0112930D01*
X0291860Y0112914D01*
X0291984Y0112894D01*
X0292106Y0112871D01*
X0292228Y0112843D01*
X0292349Y0112812D01*
X0292469Y0112776D01*
X0292588Y0112737D01*
X0292705Y0112695D01*
X0292821Y0112648D01*
X0292935Y0112598D01*
X0293048Y0112545D01*
X0293159Y0112487D01*
X0293269Y0112427D01*
X0293376Y0112362D01*
X0293481Y0112295D01*
X0293584Y0112224D01*
X0293684Y0112150D01*
X0293782Y0112073D01*
X0293878Y0111992D01*
X0293971Y0111909D01*
X0294062Y0111823D01*
X0294149Y0111734D01*
X0294234Y0111642D01*
X0294316Y0111548D01*
X0294395Y0111451D01*
X0294470Y0111351D01*
X0294543Y0111250D01*
X0294612Y0111146D01*
X0294678Y0111039D01*
X0294740Y0110931D01*
X0294799Y0110821D01*
X0294855Y0110709D01*
X0294907Y0110595D01*
X0294955Y0110480D01*
X0295000Y0110364D01*
X0295040Y0110245D01*
X0295078Y0110126D01*
X0295111Y0110006D01*
X0295140Y0109884D01*
X0295166Y0109762D01*
X0295188Y0109639D01*
X0295205Y0109515D01*
X0295219Y0109391D01*
X0295229Y0109267D01*
X0295235Y0109142D01*
X0295237Y0109017D01*
X0295235Y0108892D01*
X0295229Y0108767D01*
X0295219Y0108643D01*
X0295205Y0108519D01*
X0295188Y0108395D01*
X0295166Y0108272D01*
X0295140Y0108150D01*
X0295111Y0108028D01*
X0295078Y0107908D01*
X0295040Y0107789D01*
X0295000Y0107670D01*
X0294955Y0107554D01*
X0294907Y0107439D01*
X0294855Y0107325D01*
X0294799Y0107213D01*
X0294740Y0107103D01*
X0294678Y0106995D01*
X0294612Y0106888D01*
X0294543Y0106784D01*
X0294470Y0106683D01*
X0294395Y0106583D01*
X0294316Y0106486D01*
X0294234Y0106392D01*
X0294149Y0106300D01*
X0294062Y0106211D01*
X0293971Y0106125D01*
X0293878Y0106042D01*
X0293782Y0105961D01*
X0293684Y0105884D01*
X0293584Y0105810D01*
X0293481Y0105739D01*
X0293376Y0105672D01*
X0293268Y0105607D01*
X0293159Y0105547D01*
X0293048Y0105489D01*
X0292935Y0105436D01*
X0292821Y0105386D01*
X0292705Y0105339D01*
X0292588Y0105297D01*
X0292469Y0105258D01*
X0292349Y0105222D01*
X0292228Y0105191D01*
X0292106Y0105163D01*
X0291984Y0105140D01*
X0291860Y0105120D01*
X0291736Y0105104D01*
X0291612Y0105092D01*
X0291487Y0105084D01*
X0291362Y0105080D01*
X0291238Y0105080D01*
X0291113Y0105084D01*
X0290988Y0105092D01*
X0290864Y0105104D01*
X0290740Y0105120D01*
X0290616Y0105140D01*
X0290494Y0105163D01*
X0290372Y0105191D01*
X0290251Y0105222D01*
X0290131Y0105258D01*
X0290012Y0105297D01*
X0289895Y0105339D01*
X0289779Y0105386D01*
X0289665Y0105436D01*
X0289552Y0105489D01*
X0289441Y0105547D01*
X0289331Y0105607D01*
X0289224Y0105672D01*
X0289119Y0105739D01*
X0289016Y0105810D01*
X0288916Y0105884D01*
X0288818Y0105961D01*
X0288722Y0106042D01*
X0288629Y0106125D01*
X0288538Y0106211D01*
X0288451Y0106300D01*
X0288366Y0106392D01*
X0288284Y0106486D01*
X0288205Y0106583D01*
X0288130Y0106683D01*
X0288057Y0106784D01*
X0287988Y0106888D01*
X0287922Y0106995D01*
X0287860Y0107103D01*
X0287801Y0107213D01*
X0287745Y0107325D01*
X0287693Y0107439D01*
X0287645Y0107554D01*
X0287600Y0107670D01*
X0287560Y0107789D01*
X0287522Y0107908D01*
X0287489Y0108028D01*
X0287460Y0108150D01*
X0287434Y0108272D01*
X0287412Y0108395D01*
X0287395Y0108519D01*
X0287381Y0108643D01*
X0287371Y0108767D01*
X0287365Y0108892D01*
X0287363Y0109017D01*
X0287363Y0073583D02*
X0287365Y0073708D01*
X0287371Y0073833D01*
X0287381Y0073957D01*
X0287395Y0074081D01*
X0287412Y0074205D01*
X0287434Y0074328D01*
X0287460Y0074450D01*
X0287489Y0074572D01*
X0287522Y0074692D01*
X0287560Y0074811D01*
X0287600Y0074930D01*
X0287645Y0075046D01*
X0287693Y0075161D01*
X0287745Y0075275D01*
X0287801Y0075387D01*
X0287860Y0075497D01*
X0287922Y0075605D01*
X0287988Y0075712D01*
X0288057Y0075816D01*
X0288130Y0075917D01*
X0288205Y0076017D01*
X0288284Y0076114D01*
X0288366Y0076208D01*
X0288451Y0076300D01*
X0288538Y0076389D01*
X0288629Y0076475D01*
X0288722Y0076558D01*
X0288818Y0076639D01*
X0288916Y0076716D01*
X0289016Y0076790D01*
X0289119Y0076861D01*
X0289224Y0076928D01*
X0289332Y0076993D01*
X0289441Y0077053D01*
X0289552Y0077111D01*
X0289665Y0077164D01*
X0289779Y0077214D01*
X0289895Y0077261D01*
X0290012Y0077303D01*
X0290131Y0077342D01*
X0290251Y0077378D01*
X0290372Y0077409D01*
X0290494Y0077437D01*
X0290616Y0077460D01*
X0290740Y0077480D01*
X0290864Y0077496D01*
X0290988Y0077508D01*
X0291113Y0077516D01*
X0291238Y0077520D01*
X0291362Y0077520D01*
X0291487Y0077516D01*
X0291612Y0077508D01*
X0291736Y0077496D01*
X0291860Y0077480D01*
X0291984Y0077460D01*
X0292106Y0077437D01*
X0292228Y0077409D01*
X0292349Y0077378D01*
X0292469Y0077342D01*
X0292588Y0077303D01*
X0292705Y0077261D01*
X0292821Y0077214D01*
X0292935Y0077164D01*
X0293048Y0077111D01*
X0293159Y0077053D01*
X0293269Y0076993D01*
X0293376Y0076928D01*
X0293481Y0076861D01*
X0293584Y0076790D01*
X0293684Y0076716D01*
X0293782Y0076639D01*
X0293878Y0076558D01*
X0293971Y0076475D01*
X0294062Y0076389D01*
X0294149Y0076300D01*
X0294234Y0076208D01*
X0294316Y0076114D01*
X0294395Y0076017D01*
X0294470Y0075917D01*
X0294543Y0075816D01*
X0294612Y0075712D01*
X0294678Y0075605D01*
X0294740Y0075497D01*
X0294799Y0075387D01*
X0294855Y0075275D01*
X0294907Y0075161D01*
X0294955Y0075046D01*
X0295000Y0074930D01*
X0295040Y0074811D01*
X0295078Y0074692D01*
X0295111Y0074572D01*
X0295140Y0074450D01*
X0295166Y0074328D01*
X0295188Y0074205D01*
X0295205Y0074081D01*
X0295219Y0073957D01*
X0295229Y0073833D01*
X0295235Y0073708D01*
X0295237Y0073583D01*
X0295235Y0073458D01*
X0295229Y0073333D01*
X0295219Y0073209D01*
X0295205Y0073085D01*
X0295188Y0072961D01*
X0295166Y0072838D01*
X0295140Y0072716D01*
X0295111Y0072594D01*
X0295078Y0072474D01*
X0295040Y0072355D01*
X0295000Y0072236D01*
X0294955Y0072120D01*
X0294907Y0072005D01*
X0294855Y0071891D01*
X0294799Y0071779D01*
X0294740Y0071669D01*
X0294678Y0071561D01*
X0294612Y0071454D01*
X0294543Y0071350D01*
X0294470Y0071249D01*
X0294395Y0071149D01*
X0294316Y0071052D01*
X0294234Y0070958D01*
X0294149Y0070866D01*
X0294062Y0070777D01*
X0293971Y0070691D01*
X0293878Y0070608D01*
X0293782Y0070527D01*
X0293684Y0070450D01*
X0293584Y0070376D01*
X0293481Y0070305D01*
X0293376Y0070238D01*
X0293268Y0070173D01*
X0293159Y0070113D01*
X0293048Y0070055D01*
X0292935Y0070002D01*
X0292821Y0069952D01*
X0292705Y0069905D01*
X0292588Y0069863D01*
X0292469Y0069824D01*
X0292349Y0069788D01*
X0292228Y0069757D01*
X0292106Y0069729D01*
X0291984Y0069706D01*
X0291860Y0069686D01*
X0291736Y0069670D01*
X0291612Y0069658D01*
X0291487Y0069650D01*
X0291362Y0069646D01*
X0291238Y0069646D01*
X0291113Y0069650D01*
X0290988Y0069658D01*
X0290864Y0069670D01*
X0290740Y0069686D01*
X0290616Y0069706D01*
X0290494Y0069729D01*
X0290372Y0069757D01*
X0290251Y0069788D01*
X0290131Y0069824D01*
X0290012Y0069863D01*
X0289895Y0069905D01*
X0289779Y0069952D01*
X0289665Y0070002D01*
X0289552Y0070055D01*
X0289441Y0070113D01*
X0289331Y0070173D01*
X0289224Y0070238D01*
X0289119Y0070305D01*
X0289016Y0070376D01*
X0288916Y0070450D01*
X0288818Y0070527D01*
X0288722Y0070608D01*
X0288629Y0070691D01*
X0288538Y0070777D01*
X0288451Y0070866D01*
X0288366Y0070958D01*
X0288284Y0071052D01*
X0288205Y0071149D01*
X0288130Y0071249D01*
X0288057Y0071350D01*
X0287988Y0071454D01*
X0287922Y0071561D01*
X0287860Y0071669D01*
X0287801Y0071779D01*
X0287745Y0071891D01*
X0287693Y0072005D01*
X0287645Y0072120D01*
X0287600Y0072236D01*
X0287560Y0072355D01*
X0287522Y0072474D01*
X0287489Y0072594D01*
X0287460Y0072716D01*
X0287434Y0072838D01*
X0287412Y0072961D01*
X0287395Y0073085D01*
X0287381Y0073209D01*
X0287371Y0073333D01*
X0287365Y0073458D01*
X0287363Y0073583D01*
X0057363Y0073583D02*
X0057365Y0073708D01*
X0057371Y0073833D01*
X0057381Y0073957D01*
X0057395Y0074081D01*
X0057412Y0074205D01*
X0057434Y0074328D01*
X0057460Y0074450D01*
X0057489Y0074572D01*
X0057522Y0074692D01*
X0057560Y0074811D01*
X0057600Y0074930D01*
X0057645Y0075046D01*
X0057693Y0075161D01*
X0057745Y0075275D01*
X0057801Y0075387D01*
X0057860Y0075497D01*
X0057922Y0075605D01*
X0057988Y0075712D01*
X0058057Y0075816D01*
X0058130Y0075917D01*
X0058205Y0076017D01*
X0058284Y0076114D01*
X0058366Y0076208D01*
X0058451Y0076300D01*
X0058538Y0076389D01*
X0058629Y0076475D01*
X0058722Y0076558D01*
X0058818Y0076639D01*
X0058916Y0076716D01*
X0059016Y0076790D01*
X0059119Y0076861D01*
X0059224Y0076928D01*
X0059332Y0076993D01*
X0059441Y0077053D01*
X0059552Y0077111D01*
X0059665Y0077164D01*
X0059779Y0077214D01*
X0059895Y0077261D01*
X0060012Y0077303D01*
X0060131Y0077342D01*
X0060251Y0077378D01*
X0060372Y0077409D01*
X0060494Y0077437D01*
X0060616Y0077460D01*
X0060740Y0077480D01*
X0060864Y0077496D01*
X0060988Y0077508D01*
X0061113Y0077516D01*
X0061238Y0077520D01*
X0061362Y0077520D01*
X0061487Y0077516D01*
X0061612Y0077508D01*
X0061736Y0077496D01*
X0061860Y0077480D01*
X0061984Y0077460D01*
X0062106Y0077437D01*
X0062228Y0077409D01*
X0062349Y0077378D01*
X0062469Y0077342D01*
X0062588Y0077303D01*
X0062705Y0077261D01*
X0062821Y0077214D01*
X0062935Y0077164D01*
X0063048Y0077111D01*
X0063159Y0077053D01*
X0063269Y0076993D01*
X0063376Y0076928D01*
X0063481Y0076861D01*
X0063584Y0076790D01*
X0063684Y0076716D01*
X0063782Y0076639D01*
X0063878Y0076558D01*
X0063971Y0076475D01*
X0064062Y0076389D01*
X0064149Y0076300D01*
X0064234Y0076208D01*
X0064316Y0076114D01*
X0064395Y0076017D01*
X0064470Y0075917D01*
X0064543Y0075816D01*
X0064612Y0075712D01*
X0064678Y0075605D01*
X0064740Y0075497D01*
X0064799Y0075387D01*
X0064855Y0075275D01*
X0064907Y0075161D01*
X0064955Y0075046D01*
X0065000Y0074930D01*
X0065040Y0074811D01*
X0065078Y0074692D01*
X0065111Y0074572D01*
X0065140Y0074450D01*
X0065166Y0074328D01*
X0065188Y0074205D01*
X0065205Y0074081D01*
X0065219Y0073957D01*
X0065229Y0073833D01*
X0065235Y0073708D01*
X0065237Y0073583D01*
X0065235Y0073458D01*
X0065229Y0073333D01*
X0065219Y0073209D01*
X0065205Y0073085D01*
X0065188Y0072961D01*
X0065166Y0072838D01*
X0065140Y0072716D01*
X0065111Y0072594D01*
X0065078Y0072474D01*
X0065040Y0072355D01*
X0065000Y0072236D01*
X0064955Y0072120D01*
X0064907Y0072005D01*
X0064855Y0071891D01*
X0064799Y0071779D01*
X0064740Y0071669D01*
X0064678Y0071561D01*
X0064612Y0071454D01*
X0064543Y0071350D01*
X0064470Y0071249D01*
X0064395Y0071149D01*
X0064316Y0071052D01*
X0064234Y0070958D01*
X0064149Y0070866D01*
X0064062Y0070777D01*
X0063971Y0070691D01*
X0063878Y0070608D01*
X0063782Y0070527D01*
X0063684Y0070450D01*
X0063584Y0070376D01*
X0063481Y0070305D01*
X0063376Y0070238D01*
X0063268Y0070173D01*
X0063159Y0070113D01*
X0063048Y0070055D01*
X0062935Y0070002D01*
X0062821Y0069952D01*
X0062705Y0069905D01*
X0062588Y0069863D01*
X0062469Y0069824D01*
X0062349Y0069788D01*
X0062228Y0069757D01*
X0062106Y0069729D01*
X0061984Y0069706D01*
X0061860Y0069686D01*
X0061736Y0069670D01*
X0061612Y0069658D01*
X0061487Y0069650D01*
X0061362Y0069646D01*
X0061238Y0069646D01*
X0061113Y0069650D01*
X0060988Y0069658D01*
X0060864Y0069670D01*
X0060740Y0069686D01*
X0060616Y0069706D01*
X0060494Y0069729D01*
X0060372Y0069757D01*
X0060251Y0069788D01*
X0060131Y0069824D01*
X0060012Y0069863D01*
X0059895Y0069905D01*
X0059779Y0069952D01*
X0059665Y0070002D01*
X0059552Y0070055D01*
X0059441Y0070113D01*
X0059331Y0070173D01*
X0059224Y0070238D01*
X0059119Y0070305D01*
X0059016Y0070376D01*
X0058916Y0070450D01*
X0058818Y0070527D01*
X0058722Y0070608D01*
X0058629Y0070691D01*
X0058538Y0070777D01*
X0058451Y0070866D01*
X0058366Y0070958D01*
X0058284Y0071052D01*
X0058205Y0071149D01*
X0058130Y0071249D01*
X0058057Y0071350D01*
X0057988Y0071454D01*
X0057922Y0071561D01*
X0057860Y0071669D01*
X0057801Y0071779D01*
X0057745Y0071891D01*
X0057693Y0072005D01*
X0057645Y0072120D01*
X0057600Y0072236D01*
X0057560Y0072355D01*
X0057522Y0072474D01*
X0057489Y0072594D01*
X0057460Y0072716D01*
X0057434Y0072838D01*
X0057412Y0072961D01*
X0057395Y0073085D01*
X0057381Y0073209D01*
X0057371Y0073333D01*
X0057365Y0073458D01*
X0057363Y0073583D01*
X0057363Y0109017D02*
X0057365Y0109142D01*
X0057371Y0109267D01*
X0057381Y0109391D01*
X0057395Y0109515D01*
X0057412Y0109639D01*
X0057434Y0109762D01*
X0057460Y0109884D01*
X0057489Y0110006D01*
X0057522Y0110126D01*
X0057560Y0110245D01*
X0057600Y0110364D01*
X0057645Y0110480D01*
X0057693Y0110595D01*
X0057745Y0110709D01*
X0057801Y0110821D01*
X0057860Y0110931D01*
X0057922Y0111039D01*
X0057988Y0111146D01*
X0058057Y0111250D01*
X0058130Y0111351D01*
X0058205Y0111451D01*
X0058284Y0111548D01*
X0058366Y0111642D01*
X0058451Y0111734D01*
X0058538Y0111823D01*
X0058629Y0111909D01*
X0058722Y0111992D01*
X0058818Y0112073D01*
X0058916Y0112150D01*
X0059016Y0112224D01*
X0059119Y0112295D01*
X0059224Y0112362D01*
X0059332Y0112427D01*
X0059441Y0112487D01*
X0059552Y0112545D01*
X0059665Y0112598D01*
X0059779Y0112648D01*
X0059895Y0112695D01*
X0060012Y0112737D01*
X0060131Y0112776D01*
X0060251Y0112812D01*
X0060372Y0112843D01*
X0060494Y0112871D01*
X0060616Y0112894D01*
X0060740Y0112914D01*
X0060864Y0112930D01*
X0060988Y0112942D01*
X0061113Y0112950D01*
X0061238Y0112954D01*
X0061362Y0112954D01*
X0061487Y0112950D01*
X0061612Y0112942D01*
X0061736Y0112930D01*
X0061860Y0112914D01*
X0061984Y0112894D01*
X0062106Y0112871D01*
X0062228Y0112843D01*
X0062349Y0112812D01*
X0062469Y0112776D01*
X0062588Y0112737D01*
X0062705Y0112695D01*
X0062821Y0112648D01*
X0062935Y0112598D01*
X0063048Y0112545D01*
X0063159Y0112487D01*
X0063269Y0112427D01*
X0063376Y0112362D01*
X0063481Y0112295D01*
X0063584Y0112224D01*
X0063684Y0112150D01*
X0063782Y0112073D01*
X0063878Y0111992D01*
X0063971Y0111909D01*
X0064062Y0111823D01*
X0064149Y0111734D01*
X0064234Y0111642D01*
X0064316Y0111548D01*
X0064395Y0111451D01*
X0064470Y0111351D01*
X0064543Y0111250D01*
X0064612Y0111146D01*
X0064678Y0111039D01*
X0064740Y0110931D01*
X0064799Y0110821D01*
X0064855Y0110709D01*
X0064907Y0110595D01*
X0064955Y0110480D01*
X0065000Y0110364D01*
X0065040Y0110245D01*
X0065078Y0110126D01*
X0065111Y0110006D01*
X0065140Y0109884D01*
X0065166Y0109762D01*
X0065188Y0109639D01*
X0065205Y0109515D01*
X0065219Y0109391D01*
X0065229Y0109267D01*
X0065235Y0109142D01*
X0065237Y0109017D01*
X0065235Y0108892D01*
X0065229Y0108767D01*
X0065219Y0108643D01*
X0065205Y0108519D01*
X0065188Y0108395D01*
X0065166Y0108272D01*
X0065140Y0108150D01*
X0065111Y0108028D01*
X0065078Y0107908D01*
X0065040Y0107789D01*
X0065000Y0107670D01*
X0064955Y0107554D01*
X0064907Y0107439D01*
X0064855Y0107325D01*
X0064799Y0107213D01*
X0064740Y0107103D01*
X0064678Y0106995D01*
X0064612Y0106888D01*
X0064543Y0106784D01*
X0064470Y0106683D01*
X0064395Y0106583D01*
X0064316Y0106486D01*
X0064234Y0106392D01*
X0064149Y0106300D01*
X0064062Y0106211D01*
X0063971Y0106125D01*
X0063878Y0106042D01*
X0063782Y0105961D01*
X0063684Y0105884D01*
X0063584Y0105810D01*
X0063481Y0105739D01*
X0063376Y0105672D01*
X0063268Y0105607D01*
X0063159Y0105547D01*
X0063048Y0105489D01*
X0062935Y0105436D01*
X0062821Y0105386D01*
X0062705Y0105339D01*
X0062588Y0105297D01*
X0062469Y0105258D01*
X0062349Y0105222D01*
X0062228Y0105191D01*
X0062106Y0105163D01*
X0061984Y0105140D01*
X0061860Y0105120D01*
X0061736Y0105104D01*
X0061612Y0105092D01*
X0061487Y0105084D01*
X0061362Y0105080D01*
X0061238Y0105080D01*
X0061113Y0105084D01*
X0060988Y0105092D01*
X0060864Y0105104D01*
X0060740Y0105120D01*
X0060616Y0105140D01*
X0060494Y0105163D01*
X0060372Y0105191D01*
X0060251Y0105222D01*
X0060131Y0105258D01*
X0060012Y0105297D01*
X0059895Y0105339D01*
X0059779Y0105386D01*
X0059665Y0105436D01*
X0059552Y0105489D01*
X0059441Y0105547D01*
X0059331Y0105607D01*
X0059224Y0105672D01*
X0059119Y0105739D01*
X0059016Y0105810D01*
X0058916Y0105884D01*
X0058818Y0105961D01*
X0058722Y0106042D01*
X0058629Y0106125D01*
X0058538Y0106211D01*
X0058451Y0106300D01*
X0058366Y0106392D01*
X0058284Y0106486D01*
X0058205Y0106583D01*
X0058130Y0106683D01*
X0058057Y0106784D01*
X0057988Y0106888D01*
X0057922Y0106995D01*
X0057860Y0107103D01*
X0057801Y0107213D01*
X0057745Y0107325D01*
X0057693Y0107439D01*
X0057645Y0107554D01*
X0057600Y0107670D01*
X0057560Y0107789D01*
X0057522Y0107908D01*
X0057489Y0108028D01*
X0057460Y0108150D01*
X0057434Y0108272D01*
X0057412Y0108395D01*
X0057395Y0108519D01*
X0057381Y0108643D01*
X0057371Y0108767D01*
X0057365Y0108892D01*
X0057363Y0109017D01*
M02*
