G04 EAGLE Gerber X2 export*
%TF.Part,Single*%
%TF.FileFunction,Soldermask,Top,1*%
%TF.FilePolarity,Negative*%
%TF.GenerationSoftware,Autodesk,EAGLE,8.7.0*%
%TF.CreationDate,2018-04-04T18:07:55Z*%
G75*
%MOMM*%
%FSLAX34Y34*%
%LPD*%
%AMOC8*
5,1,8,0,0,1.08239X$1,22.5*%
G01*
%ADD10C,2.077000*%
%ADD11R,2.006600X2.006600*%
%ADD12C,2.006600*%
%ADD13C,2.127000*%
%ADD14R,2.327000X0.727000*%
%ADD15C,1.651000*%
%ADD16P,1.457113X8X112.500000*%
%ADD17C,0.832600*%


D10*
X444500Y296300D03*
X444500Y96300D03*
D11*
X596900Y812800D03*
D12*
X596900Y838200D03*
D11*
X762000Y673100D03*
D12*
X762000Y698500D03*
D13*
X635000Y184700D03*
X635000Y94700D03*
D10*
X697500Y114700D03*
X572500Y114700D03*
X697500Y164700D03*
X572500Y164700D03*
D13*
X254000Y184700D03*
X254000Y94700D03*
D10*
X316500Y114700D03*
X191500Y114700D03*
X316500Y164700D03*
X191500Y164700D03*
D14*
X470500Y577850D03*
X418500Y577850D03*
X470500Y565150D03*
X470500Y590550D03*
X470500Y603250D03*
X418500Y565150D03*
X418500Y590550D03*
X418500Y603250D03*
D11*
X762000Y508000D03*
D12*
X762000Y533400D03*
D11*
X596900Y368300D03*
D12*
X596900Y393700D03*
D11*
X139700Y508000D03*
D12*
X139700Y533400D03*
D11*
X279400Y368300D03*
D12*
X279400Y393700D03*
D11*
X317500Y812800D03*
D12*
X317500Y838200D03*
D11*
X139700Y673100D03*
D12*
X139700Y698500D03*
D15*
X393700Y45720D02*
X393700Y30480D01*
X419100Y30480D02*
X419100Y45720D01*
X444500Y45720D02*
X444500Y30480D01*
X469900Y30480D02*
X469900Y45720D01*
X495300Y45720D02*
X495300Y30480D01*
D16*
X152400Y76200D03*
X152400Y203200D03*
X114300Y76200D03*
X114300Y203200D03*
X736600Y76200D03*
X736600Y203200D03*
X774700Y76200D03*
X774700Y203200D03*
D17*
X444500Y254000D03*
X508000Y603250D03*
X393700Y165100D03*
X381000Y603250D03*
X397510Y577850D03*
X461010Y552450D03*
X388620Y590550D03*
X495300Y577850D03*
X520700Y596900D03*
X444500Y647700D03*
X368300Y609600D03*
X495300Y590550D03*
M02*
